<svg xmlns="http://www.w3.org/2000/svg" viewBox="0 0 231.32 215.24"><defs><style>.cls-1{fill:#5a50a3;opacity:0.42;}.cls-2{fill:#ba6161;}.cls-3{fill:#5c5c5c;}.cls-4{fill:#6d8da6;}.cls-5{fill:#a69d6d;}.cls-6{fill:#a6a6a6;}.cls-7{fill:#9c8362;}.cls-8{fill:#424242;}.cls-9{fill:#c3d7e8;}.cls-10{fill:#85939e;}.cls-11{fill:#787878;}.cls-12{fill:#e57368;}.cls-13{fill:#4f4f4f;}.cls-14{fill:#34495e;}</style></defs><g id="Capa_2" data-name="Capa 2"><g id="Capa_1-2" data-name="Capa 1"><circle class="cls-1" cx="115.66" cy="107.62" r="107.62"/><rect class="cls-2" x="118.48" y="125.55" width="14.15" height="6.67"/><rect class="cls-3" x="118.48" y="125.55" width="14.15" height="0.37"/><rect class="cls-3" x="118.48" y="131.85" width="14.15" height="0.37"/><rect class="cls-4" x="118.48" y="118.88" width="14.15" height="6.67"/><rect class="cls-3" x="118.48" y="118.88" width="14.15" height="0.37"/><rect class="cls-3" x="118.48" y="125.18" width="14.15" height="0.37"/><rect class="cls-4" x="118.48" y="112.21" width="14.15" height="6.67"/><rect class="cls-3" x="118.48" y="112.21" width="14.15" height="0.37"/><rect class="cls-3" x="118.48" y="118.51" width="14.15" height="0.37"/><rect class="cls-5" x="118.48" y="105.54" width="14.15" height="6.67"/><rect class="cls-3" x="118.48" y="105.54" width="14.15" height="0.37"/><rect class="cls-3" x="118.48" y="111.84" width="14.15" height="0.37"/><rect class="cls-5" x="133.49" y="125.55" width="14.15" height="6.67"/><rect class="cls-3" x="133.49" y="125.55" width="14.15" height="0.37"/><rect class="cls-3" x="133.49" y="131.85" width="14.15" height="0.37"/><rect class="cls-6" x="133.49" y="118.88" width="14.15" height="6.67"/><rect class="cls-3" x="133.49" y="118.88" width="14.15" height="0.37"/><rect class="cls-3" x="133.49" y="125.18" width="14.15" height="0.37"/><rect class="cls-2" x="133.49" y="112.21" width="14.15" height="6.67"/><rect class="cls-3" x="133.49" y="112.21" width="14.15" height="0.37"/><rect class="cls-3" x="133.49" y="118.51" width="14.15" height="0.37"/><rect class="cls-5" x="148.68" y="125.55" width="14.15" height="6.67"/><rect class="cls-3" x="148.68" y="125.55" width="14.15" height="0.37"/><rect class="cls-3" x="148.68" y="131.85" width="14.15" height="0.37"/><rect class="cls-2" x="148.68" y="118.88" width="14.15" height="6.67"/><rect class="cls-3" x="148.68" y="118.88" width="14.15" height="0.37"/><rect class="cls-3" x="148.68" y="125.18" width="14.15" height="0.37"/><rect class="cls-4" x="163.95" y="125.55" width="14.15" height="6.67"/><rect class="cls-3" x="163.95" y="125.55" width="14.15" height="0.37"/><rect class="cls-3" x="163.95" y="131.85" width="14.15" height="0.37"/><rect class="cls-6" x="163.95" y="118.88" width="14.15" height="6.67"/><rect class="cls-3" x="163.95" y="118.88" width="14.15" height="0.37"/><rect class="cls-3" x="163.95" y="125.18" width="14.15" height="0.37"/><rect class="cls-4" x="163.95" y="112.21" width="14.15" height="6.67"/><rect class="cls-3" x="163.95" y="112.21" width="14.15" height="0.37"/><rect class="cls-3" x="163.95" y="118.51" width="14.15" height="0.37"/><rect class="cls-4" x="179.19" y="125.55" width="14.15" height="6.67"/><rect class="cls-3" x="179.19" y="125.55" width="14.15" height="0.37"/><rect class="cls-3" x="179.19" y="131.85" width="14.15" height="0.37"/><rect class="cls-2" x="179.19" y="118.88" width="14.15" height="6.67"/><rect class="cls-3" x="179.19" y="118.88" width="14.15" height="0.37"/><rect class="cls-3" x="179.19" y="125.18" width="14.15" height="0.37"/><rect class="cls-5" x="179.19" y="112.21" width="14.15" height="6.67"/><rect class="cls-3" x="179.19" y="112.21" width="14.15" height="0.37"/><rect class="cls-3" x="179.19" y="118.51" width="14.15" height="0.37"/><rect class="cls-4" x="79.83" y="125.55" width="14.15" height="6.67"/><rect class="cls-3" x="79.83" y="125.55" width="14.15" height="0.37"/><rect class="cls-3" x="79.83" y="131.85" width="14.15" height="0.37"/><rect class="cls-4" x="79.83" y="118.88" width="14.15" height="6.67"/><rect class="cls-3" x="79.83" y="118.88" width="14.15" height="0.37"/><rect class="cls-3" x="79.83" y="125.18" width="14.15" height="0.37"/><rect class="cls-5" x="79.83" y="112.21" width="14.15" height="6.67"/><rect class="cls-3" x="79.83" y="112.21" width="14.15" height="0.37"/><rect class="cls-3" x="79.83" y="118.51" width="14.15" height="0.37"/><rect class="cls-6" x="64.82" y="125.55" width="14.15" height="6.67"/><rect class="cls-3" x="64.82" y="125.55" width="14.15" height="0.37"/><rect class="cls-3" x="64.82" y="131.85" width="14.15" height="0.37"/><rect class="cls-2" x="64.82" y="118.88" width="14.15" height="6.67"/><rect class="cls-3" x="64.82" y="118.88" width="14.15" height="0.37"/><rect class="cls-3" x="64.82" y="125.18" width="14.15" height="0.37"/><rect class="cls-2" x="49.63" y="125.55" width="14.15" height="6.67"/><rect class="cls-3" x="49.63" y="125.55" width="14.15" height="0.37"/><rect class="cls-3" x="49.63" y="131.85" width="14.15" height="0.37"/><rect class="cls-4" x="49.63" y="112.21" width="14.15" height="6.67"/><rect class="cls-3" x="49.63" y="112.21" width="14.15" height="0.37"/><rect class="cls-3" x="49.63" y="118.51" width="14.15" height="0.37"/><rect class="cls-2" x="49.63" y="118.88" width="14.15" height="6.67"/><rect class="cls-3" x="49.63" y="118.88" width="14.15" height="0.37"/><rect class="cls-3" x="49.63" y="125.18" width="14.15" height="0.37"/><rect class="cls-5" x="49.63" y="105.54" width="14.15" height="6.67"/><rect class="cls-3" x="49.63" y="105.54" width="14.15" height="0.37"/><rect class="cls-3" x="49.63" y="111.84" width="14.15" height="0.37"/><rect class="cls-6" x="34.36" y="125.55" width="14.15" height="6.67"/><rect class="cls-3" x="34.36" y="125.55" width="14.15" height="0.37"/><rect class="cls-3" x="34.36" y="131.85" width="14.15" height="0.37"/><rect class="cls-4" x="34.36" y="118.88" width="14.15" height="6.67"/><rect class="cls-3" x="34.36" y="118.88" width="14.15" height="0.37"/><rect class="cls-3" x="34.36" y="125.18" width="14.15" height="0.37"/><rect class="cls-6" x="64.82" y="112.21" width="14.15" height="6.67"/><rect class="cls-3" x="64.82" y="112.21" width="14.15" height="0.37"/><rect class="cls-3" x="64.82" y="118.51" width="14.15" height="0.37"/><polygon class="cls-7" points="200.25 90.04 199.23 124.32 201.27 124.32 200.25 90.04"/><path class="cls-7" d="M200.26,89.13h0a.94.94,0,0,0-.94.94V91h1.89v-.88A.94.94,0,0,0,200.26,89.13Z"/><polygon class="cls-8" points="193.98 161.69 15.81 161.69 0 127.56 45.68 127.56 48.24 132.22 177.98 132.22 184.62 124.71 231.32 122.05 193.98 161.69"/><rect class="cls-9" x="97.87" y="91.11" width="16.29" height="41.11"/><rect class="cls-10" x="97.87" y="91.11" width="16.29" height="2.36"/><rect class="cls-9" x="92.7" y="85.61" width="26.63" height="5.69"/><rect class="cls-11" x="100.15" y="79.85" width="11.72" height="5.76"/><polygon class="cls-12" points="197.89 157.54 13.88 157.54 12.73 155.04 200.25 155.04 197.89 157.54"/><polygon class="cls-13" points="99.97 53.55 99.75 85.61 100.19 85.61 99.97 53.55"/><polygon class="cls-13" points="112.09 53.55 111.87 85.61 112.31 85.61 112.09 53.55"/><path class="cls-13" d="M103.22,76.41h0a2.5,2.5,0,0,0-2.5,2.49v.95h5V78.9A2.5,2.5,0,0,0,103.22,76.41Z"/><rect class="cls-14" x="110.06" y="96" width="3" height="3.85"/><rect class="cls-14" x="104.6" y="96" width="3" height="3.85"/><rect class="cls-14" x="99.14" y="96" width="3" height="3.85"/></g></g></svg>