<svg xmlns="http://www.w3.org/2000/svg" viewBox="0 0 161.08 160.84"><defs><style>.cls-1{fill:#3b4977;}</style></defs><g id="Capa_2" data-name="Capa 2"><g id="Capa_1-2" data-name="Capa 1"><path class="cls-1" d="M90.85.06c33.37-1.47,64.28,24.51,69.36,58.28,6.88,45.72-28.06,80.79-67.42,81.4-13.38.21-25.8-2.69-37.14-9.69-3.94-2.43-6.58-2.2-9.87,1.28-8.11,8.6-16.61,16.83-25,25.15C15.34,161.86,7.47,162.3,3,157.6S-.9,145.39,4.3,140.14c8.43-8.52,16.83-17.09,25.49-25.39,3.08-3,3.53-5.41,1.26-9-9.59-15.27-12.22-32-8.71-49.45,4.6-22.74,17.43-39.72,38.6-49.69C73.15.82,78.38.06,90.85.06Zm0,132.39c33.54,1.38,63.32-27.2,63.27-62.76,0-34.85-28.44-63.18-62.89-63-35.23.15-62,27.67-63.1,62.66C27.13,103.61,58.29,134.24,90.89,132.45ZM44,122.76c-.69-2.38-2.45-3.72-4.08-5.06-1.81-1.49-3.09,0-4.25,1.16q-11.5,11.45-23,23c-1.41,1.42-2.85,2.8-4.16,4.31C7,147.91,6.24,150,8,152s4.17,1.78,6.37.51a11.23,11.23,0,0,0,2.28-1.93Q29,138.22,41.38,125.83C42.3,124.91,43.07,123.83,44,122.76Z"/><path class="cls-1" d="M91.82,10.27c32.61.32,59.18,27.59,58.74,60.26-.43,32.41-27.45,59-59.77,58.88S31.11,101.72,31.43,69.48A60,60,0,0,1,91.82,10.27Zm-.55,7.18C62,17.45,38.61,40.6,38.61,69.55a52.77,52.77,0,0,0,52.76,52.68c28.95-.06,52-23.51,52-52.78A51.94,51.94,0,0,0,91.27,17.45Z"/><path class="cls-1" d="M139.65,73c-.56,23-22.23,44.81-44.87,45.53-.67,0-1.33,0-2,0-2.29-.08-4.61-.54-4.83-3.25s2.2-3.61,4.38-3.71a40.4,40.4,0,0,0,15.87-3.86c14.29-6.92,22.71-18,24.21-34,0-.17,0-.34,0-.5.32-2.79.15-6.45,3.93-6.43C140.55,66.83,139.4,70.69,139.65,73Z"/><path class="cls-1" d="M87.55,21.22c1,0,2-.06,3,0,1.81.13,3.35.85,3.6,2.81.28,2.22-1.23,3.37-3.14,3.86a24.28,24.28,0,0,1-4.44.55C68.19,29.67,51.24,46.23,49.62,64.56a44.17,44.17,0,0,1-.4,4.47c-.38,2-1.1,4.13-3.69,3.87-2.43-.24-3.17-2.24-3.18-4.38a44.58,44.58,0,0,1,9.9-28.19C61.17,28.91,72.91,22.27,87.55,21.22Z"/></g></g></svg>