<svg xmlns="http://www.w3.org/2000/svg" viewBox="0 0 215.24 215.24"><defs><style>.cls-1{fill:#5a50a3;opacity:0.42;}.cls-2{fill:#45bcff;}.cls-3{opacity:0.2;}.cls-4,.cls-5{opacity:0.3;}</style></defs><g id="Capa_2" data-name="Capa 2"><g id="Capa_1-2" data-name="Capa 1"><circle class="cls-1" cx="107.62" cy="107.62" r="107.62"/><rect class="cls-2" x="93.27" y="49.36" width="28.69" height="145.06"/><rect class="cls-3" x="93.27" y="49.36" width="28.69" height="145.06"/><rect class="cls-2" x="93.27" y="44.61" width="30.41" height="4.75" transform="translate(216.95 93.97) rotate(180)"/><rect class="cls-2" x="93.27" y="37.19" width="25.78" height="7.42" transform="translate(212.32 81.79) rotate(180)"/><rect class="cls-3" x="93.27" y="37.19" width="25.78" height="7.42" transform="translate(212.32 81.79) rotate(180)"/><rect class="cls-2" x="93.27" y="20.82" width="19.72" height="16.37" transform="translate(206.27 58) rotate(180)"/><rect class="cls-4" x="93.27" y="20.82" width="19.72" height="16.37" transform="translate(206.27 58) rotate(180)"/><g class="cls-5"><rect x="96.02" y="54.86" width="3.89" height="15.26"/></g><g class="cls-5"><rect x="96.02" y="75.65" width="3.89" height="15.26"/></g><g class="cls-5"><rect x="96.02" y="96.43" width="3.89" height="15.26"/></g><g class="cls-5"><rect x="96.02" y="117.22" width="3.89" height="15.26"/></g><g class="cls-5"><rect x="96.02" y="138" width="3.89" height="15.26"/></g><g class="cls-5"><rect x="96.02" y="158.79" width="3.89" height="15.26"/></g><g class="cls-5"><rect x="102.45" y="54.86" width="3.89" height="15.26"/></g><g class="cls-5"><rect x="102.45" y="75.65" width="3.89" height="15.26"/></g><g class="cls-5"><rect x="102.45" y="96.43" width="3.89" height="15.26"/></g><g class="cls-5"><rect x="102.45" y="117.22" width="3.89" height="15.26"/></g><g class="cls-5"><rect x="102.45" y="138" width="3.89" height="15.26"/></g><g class="cls-5"><rect x="102.45" y="158.79" width="3.89" height="15.26"/></g><g class="cls-5"><rect x="108.89" y="54.86" width="3.89" height="15.26"/></g><g class="cls-5"><rect x="108.89" y="75.65" width="3.89" height="15.26"/></g><g class="cls-5"><rect x="108.89" y="96.43" width="3.89" height="15.26"/></g><g class="cls-5"><rect x="108.89" y="117.22" width="3.89" height="15.26"/></g><g class="cls-5"><rect x="108.89" y="138" width="3.89" height="15.26"/></g><g class="cls-5"><rect x="108.89" y="158.79" width="3.89" height="15.26"/></g><g class="cls-5"><rect x="115.32" y="54.86" width="3.89" height="15.26"/></g><g class="cls-5"><rect x="115.32" y="75.65" width="3.89" height="15.26"/></g><g class="cls-5"><rect x="115.32" y="96.43" width="3.89" height="15.26"/></g><g class="cls-5"><rect x="115.32" y="117.22" width="3.89" height="15.26"/></g><g class="cls-5"><rect x="115.32" y="138" width="3.89" height="15.26"/></g><g class="cls-5"><rect x="115.32" y="158.79" width="3.89" height="15.26"/></g><rect class="cls-2" x="34.46" y="49.36" width="58.81" height="145.06"/><rect class="cls-2" x="37.27" y="37.19" width="56" height="7.42"/><rect class="cls-2" x="51.13" y="20.82" width="42.14" height="16.37"/><rect class="cls-3" x="51.13" y="20.82" width="42.14" height="16.37"/><rect class="cls-2" x="32.7" y="44.61" width="60.57" height="4.75"/><rect class="cls-3" x="32.7" y="44.61" width="60.57" height="4.75"/><g class="cls-5"><rect x="40.08" y="54.86" width="7.98" height="15.26"/></g><g class="cls-5"><rect x="40.08" y="75.65" width="7.98" height="15.26"/></g><g class="cls-5"><rect x="40.08" y="96.43" width="7.98" height="15.26"/></g><g class="cls-5"><rect x="40.08" y="117.22" width="7.98" height="15.26"/></g><g class="cls-5"><rect x="40.08" y="138" width="7.98" height="15.26"/></g><g class="cls-5"><rect x="40.08" y="158.79" width="7.98" height="15.26"/></g><g class="cls-5"><rect x="53.27" y="54.86" width="7.98" height="15.26"/></g><g class="cls-5"><rect x="53.27" y="75.65" width="7.98" height="15.26"/></g><g class="cls-5"><rect x="53.27" y="96.43" width="7.98" height="15.26"/></g><g class="cls-5"><rect x="53.27" y="117.22" width="7.98" height="15.26"/></g><g class="cls-5"><rect x="53.27" y="138" width="7.98" height="15.26"/></g><g class="cls-5"><rect x="53.27" y="158.79" width="7.98" height="15.26"/></g><g class="cls-5"><rect x="66.47" y="54.86" width="7.98" height="15.26"/></g><g class="cls-5"><rect x="66.47" y="75.65" width="7.98" height="15.26"/></g><g class="cls-5"><rect x="66.47" y="96.43" width="7.98" height="15.26"/></g><g class="cls-5"><rect x="66.47" y="117.22" width="7.98" height="15.26"/></g><g class="cls-5"><rect x="66.47" y="138" width="7.98" height="15.26"/></g><g class="cls-5"><rect x="66.47" y="158.79" width="7.98" height="15.26"/></g><g class="cls-5"><rect x="79.66" y="54.86" width="7.98" height="15.26"/></g><g class="cls-5"><rect x="79.66" y="75.65" width="7.98" height="15.26"/></g><g class="cls-5"><rect x="79.66" y="96.43" width="7.98" height="15.26"/></g><g class="cls-5"><rect x="79.66" y="117.22" width="7.98" height="15.26"/></g><g class="cls-5"><rect x="79.66" y="138" width="7.98" height="15.26"/></g><g class="cls-5"><rect x="79.66" y="158.79" width="7.98" height="15.26"/></g><rect class="cls-4" x="53.27" y="180.05" width="21.18" height="14.38"/><rect class="cls-2" x="152.14" y="111.7" width="28.69" height="82.72"/><rect class="cls-3" x="152.14" y="111.7" width="28.69" height="82.72"/><rect class="cls-2" x="152.14" y="106.95" width="30.41" height="4.75" transform="translate(334.68 218.65) rotate(180)"/><rect class="cls-2" x="152.14" y="99.53" width="25.78" height="7.42" transform="translate(330.05 206.48) rotate(180)"/><rect class="cls-3" x="152.14" y="99.53" width="25.78" height="7.42" transform="translate(330.05 206.48) rotate(180)"/><g class="cls-5"><rect x="154.89" y="117.2" width="3.89" height="15.26"/></g><g class="cls-5"><rect x="154.89" y="137.99" width="3.89" height="15.26"/></g><g class="cls-5"><rect x="154.89" y="158.77" width="3.89" height="15.26"/></g><g class="cls-5"><rect x="161.32" y="117.2" width="3.89" height="15.26"/></g><g class="cls-5"><rect x="161.32" y="137.99" width="3.89" height="15.26"/></g><g class="cls-5"><rect x="161.32" y="158.77" width="3.89" height="15.26"/></g><g class="cls-5"><rect x="167.75" y="117.2" width="3.89" height="15.26"/></g><g class="cls-5"><rect x="167.75" y="137.99" width="3.89" height="15.26"/></g><g class="cls-5"><rect x="167.75" y="158.77" width="3.89" height="15.26"/></g><g class="cls-5"><rect x="174.19" y="117.2" width="3.89" height="15.26"/></g><g class="cls-5"><rect x="174.19" y="137.99" width="3.89" height="15.26"/></g><g class="cls-5"><rect x="174.19" y="158.77" width="3.89" height="15.26"/></g><rect class="cls-2" x="93.32" y="111.7" width="58.81" height="82.72"/><rect class="cls-2" x="96.14" y="99.53" width="56" height="7.42"/><rect class="cls-2" x="91.56" y="106.95" width="60.57" height="4.75"/><rect class="cls-3" x="91.56" y="106.95" width="60.57" height="4.75"/><g class="cls-5"><rect x="98.94" y="117.2" width="7.98" height="15.26"/></g><g class="cls-5"><rect x="98.94" y="137.99" width="7.98" height="15.26"/></g><g class="cls-5"><rect x="98.94" y="158.77" width="7.98" height="15.26"/></g><g class="cls-5"><rect x="112.14" y="117.2" width="7.98" height="15.26"/></g><g class="cls-5"><rect x="112.14" y="137.99" width="7.98" height="15.26"/></g><g class="cls-5"><rect x="112.14" y="158.77" width="7.98" height="15.26"/></g><g class="cls-5"><rect x="125.33" y="117.2" width="7.98" height="15.26"/></g><g class="cls-5"><rect x="125.33" y="137.99" width="7.98" height="15.26"/></g><g class="cls-5"><rect x="125.33" y="158.77" width="7.98" height="15.26"/></g><g class="cls-5"><rect x="138.53" y="117.2" width="7.98" height="15.26"/></g><g class="cls-5"><rect x="138.53" y="137.99" width="7.98" height="15.26"/></g><g class="cls-5"><rect x="138.53" y="158.77" width="7.98" height="15.26"/></g></g></g></svg>