<svg width="154" height="148" viewBox="0 0 154 148" fill="none" xmlns="http://www.w3.org/2000/svg">
<path d="M85.9903 22.3016C92.0589 17.1784 87.3389 9.60502 96.2395 3.36808C105.14 -2.86886 123.795 -0.374084 126.358 10.2733C128.92 20.9206 145.597 24.7519 149.823 40.6115C154.048 56.4712 140.563 66.6285 147.665 76.6521C154.768 86.6758 158.948 101.199 139.843 106.946C120.739 112.693 100.285 103.159 101.004 81.2853C101.724 59.4114 89.8113 61.8171 84.0124 48.3186C78.1236 34.5082 97.0486 26.5784 85.9903 22.3016Z" fill="url(#paint0_linear)" fill-opacity="0.69"/>
<path opacity="0.2" d="M85.9903 22.3016C92.0589 17.1784 87.3389 9.60502 96.2395 3.36808C105.14 -2.86886 123.795 -0.374084 126.358 10.2733C128.92 20.9206 145.597 24.7519 149.823 40.6115C154.048 56.4712 140.563 66.6285 147.665 76.6521C154.768 86.6758 158.948 101.199 139.843 106.946C120.739 112.693 100.285 103.159 101.004 81.2853C101.724 59.4114 89.8113 61.8171 84.0124 48.3186C78.1236 34.5082 97.0486 26.5784 85.9903 22.3016Z" fill="url(#paint1_linear)"/>
<path d="M29.9364 9.65216H24.7847C23.581 9.65216 22.5217 10.8327 22.5217 12.3766C22.5217 13.9204 23.4847 15.2826 24.7365 15.2826C25.2661 15.2826 25.7476 15.0556 26.1328 14.6469C26.4217 14.2836 26.855 14.102 27.3365 14.0566H27.5291C27.9624 14.102 28.3476 14.2836 28.6365 14.6015C29.0698 15.1464 29.8401 15.3734 30.5142 15.1918C31.3327 14.9647 32.0068 14.102 32.1512 13.0577C32.3438 11.2414 31.2846 9.65216 29.9364 9.65216Z" fill="#1A237E"/>
<path opacity="0.8" d="M28.7019 9.65216H24.4065C23.3984 9.65216 22.5217 10.6682 22.5217 11.9805C22.5217 13.2929 23.3107 14.4782 24.3626 14.4782C24.8009 14.4782 25.2393 14.2666 25.5022 13.9279C25.7652 13.6316 26.1159 13.4622 26.5104 13.4199H26.6857C27.0363 13.4199 27.387 13.6316 27.6061 13.8856C28.0006 14.3512 28.6142 14.5629 29.184 14.3936C29.973 14.0972 30.4551 13.3776 30.5428 12.5732C30.7181 11.0492 29.8415 9.65216 28.7019 9.65216Z" fill="white"/>
<path d="M16.288 29.5152L15.6633 30.3129L14.9939 31.1549C14.5477 31.731 14.1015 32.3071 13.6553 32.8833C12.7629 34.0355 11.9597 35.232 11.1565 36.3842C10.7549 36.9603 10.3979 37.5807 10.041 38.1568C9.68399 38.7329 9.32702 39.3534 9.05929 39.9295C8.47921 41.0374 7.98837 42.1896 7.67602 43.3861C7.6314 43.519 7.67602 43.4304 7.67602 43.4304V43.3861C7.67602 43.3861 7.6314 43.3861 7.6314 43.4304C7.6314 43.5634 7.6314 43.6963 7.67602 43.8293C7.80989 44.3167 8.033 44.8042 8.30072 45.203C9.01467 46.3553 9.86247 47.4188 10.7549 48.3938C12.7629 50.5653 14.8601 52.6481 17.0465 54.598L17.0911 54.6423C17.8497 55.3514 17.8943 56.5479 17.225 57.3013C16.6449 57.9217 15.7525 58.0989 14.9939 57.7001C12.0935 56.2377 9.37164 54.5094 6.82821 52.4708C5.48957 51.4073 4.24017 50.1664 3.12464 48.8369C2.49994 48.0393 1.91986 47.1529 1.51826 46.2223C1.25053 45.6462 1.07205 45.0258 0.938187 44.4054C0.848944 44.0508 0.848943 43.652 0.804321 43.2975C0.804321 43.1202 0.804321 42.8986 0.804321 42.677C0.804321 42.4555 0.848945 42.2339 0.893566 42.1453C1.20592 40.3283 1.69675 38.6 2.45532 36.916C3.12464 35.3649 3.8832 33.8582 4.77563 32.4401C5.62344 31.022 6.51586 29.6482 7.49754 28.363C7.98837 27.6983 8.47921 27.0779 8.97005 26.4131C9.23777 26.1029 9.5055 25.7927 9.77323 25.4825C10.041 25.1723 10.3087 24.8621 10.621 24.5076C12.0489 23.0008 14.4585 22.9122 15.9756 24.3746C17.4035 25.7041 17.5374 27.8756 16.3772 29.3823L16.288 29.5152Z" fill="#1A237E"/>
<path opacity="0.6" d="M16.288 29.5152L15.6633 30.3129L14.9939 31.1549C14.5477 31.731 14.1015 32.3071 13.6553 32.8833C12.7629 34.0355 11.9597 35.232 11.1565 36.3842C10.7549 36.9603 10.3979 37.5807 10.041 38.1568C9.68399 38.7329 9.32702 39.3534 9.05929 39.9295C8.47921 41.0374 7.98837 42.1896 7.67602 43.3861C7.6314 43.519 7.67602 43.4304 7.67602 43.4304V43.3861C7.67602 43.3861 7.6314 43.3861 7.6314 43.4304C7.6314 43.5634 7.6314 43.6963 7.67602 43.8293C7.80989 44.3167 8.033 44.8042 8.30072 45.203C9.01467 46.3553 9.86247 47.4188 10.7549 48.3938C12.7629 50.5653 14.8601 52.6481 17.0465 54.598L17.0911 54.6423C17.8497 55.3514 17.8943 56.5479 17.225 57.3013C16.6449 57.9217 15.7525 58.0989 14.9939 57.7001C12.0935 56.2377 9.37164 54.5094 6.82821 52.4708C5.48957 51.4073 4.24017 50.1664 3.12464 48.8369C2.49994 48.0393 1.91986 47.1529 1.51826 46.2223C1.25053 45.6462 1.07205 45.0258 0.938187 44.4054C0.848944 44.0508 0.848943 43.652 0.804321 43.2975C0.804321 43.1202 0.804321 42.8986 0.804321 42.677C0.804321 42.4555 0.848945 42.2339 0.893566 42.1453C1.20592 40.3283 1.69675 38.6 2.45532 36.916C3.12464 35.3649 3.8832 33.8582 4.77563 32.4401C5.62344 31.022 6.51586 29.6482 7.49754 28.363C7.98837 27.6983 8.47921 27.0779 8.97005 26.4131C9.23777 26.1029 9.5055 25.7927 9.77323 25.4825C10.041 25.1723 10.3087 24.8621 10.621 24.5076C12.0489 23.0008 14.4585 22.9122 15.9756 24.3746C17.4035 25.7041 17.5374 27.8756 16.3772 29.3823L16.288 29.5152Z" fill="white"/>
<path d="M18.9063 56.2427C18.1756 55.6134 15.3385 53.2312 13.7911 51.4783C12.0717 51.703 9.70748 53.6807 8.84778 54.7594C11.083 56.5573 14.4359 58.8047 16.0263 58.7148C17.6168 58.6249 20.3248 57.5012 18.9063 56.2427Z" fill="#263238"/>
<path d="M17.7465 55.5752L19.8955 56.2883C20.6897 56.5558 21.3905 57.046 21.8577 57.7146L23.1658 59.5419C23.4462 59.9431 23.3527 60.5225 22.9322 60.8345C22.8855 60.879 22.8388 60.879 22.7921 60.9236L20.643 61.8596C20.316 61.9933 19.9422 61.9487 19.6619 61.7259L17.7932 60.3442C17.7932 60.3442 16.0179 59.1408 15.3638 57.67C15.1769 57.2243 15.3171 56.734 15.7376 56.4666L16.8121 55.7089C17.0457 55.4861 17.4194 55.4415 17.7465 55.5752Z" fill="#263238"/>
<path d="M28.1522 11.663C28.1522 11.8796 28.2931 12.0652 28.5279 12.0652C28.7627 12.0652 28.9035 11.8796 28.9505 11.663C28.9975 11.4465 28.7627 11.2609 28.5748 11.2609C28.387 11.2609 28.1522 11.4465 28.1522 11.663Z" fill="#263238"/>
<path d="M28.2468 12.0652C28.6254 13.0717 29.1458 14.0781 29.7609 14.9408C29.1458 15.4679 28.1522 15.2283 28.1522 15.2283L28.2468 12.0652Z" fill="#A02724"/>
<path d="M19.1685 12.8696C19.3507 15.7836 19.123 21.7481 16.8914 23.3873C16.8914 23.3873 17.4379 25.8004 22.7664 26.4378C28.6415 27.1663 25.9089 23.8881 25.9089 23.8881C22.8119 22.7043 23.1763 20.3367 24.0416 18.1967L19.1685 12.8696Z" fill="#B55B52"/>
<path d="M33.6374 142.37H29.2726C29.0888 142.37 28.951 142.543 28.951 142.716L28.1699 147.09C28.078 147.567 28.3537 148 28.7672 147.957C30.3293 147.913 32.6266 147.827 34.5563 147.827C36.8535 147.827 36.5778 148 39.2886 148C40.9426 148 41.4021 145.964 40.7129 145.748C37.5886 144.882 37.313 144.795 34.6022 142.759C34.3265 142.5 34.0049 142.37 33.6374 142.37Z" fill="#263238"/>
<path d="M13.5272 22.9344C19.3631 22.2691 25.2438 22.4021 31.0348 23.378C32.8753 23.7328 34.3567 25.1965 34.6709 27.0151C36.4217 36.862 34.6261 50.7453 33.0549 60.3261L10.6542 59.8382C10.5195 56.9551 11.8213 42.0073 9.71144 28.0353C9.30742 25.5957 11.0133 23.3336 13.5272 22.9344Z" fill="#1A237E"/>
<path opacity="0.5" d="M13.5272 22.9344C19.3631 22.2691 25.2438 22.4021 31.0348 23.378C32.8753 23.7328 34.3567 25.1965 34.6709 27.0151C36.4217 36.862 34.6261 50.7453 33.0549 60.3261L10.6542 59.8382C10.5195 56.9551 11.8213 42.0073 9.71144 28.0353C9.30742 25.5957 11.0133 23.3336 13.5272 22.9344Z" fill="white"/>
<path d="M34.5187 25.2371L37.0465 29.6093C37.9041 31.037 38.7617 32.4647 39.6194 33.8031C40.4319 35.0969 41.3798 36.3462 42.3728 37.5062C43.2756 38.5323 44.2686 39.4692 45.4422 40.2277L43.9527 39.8261C44.9457 39.96 45.9388 40.0938 46.8867 40.2277C47.8346 40.3615 48.8727 40.54 49.8207 40.7184C51.8067 41.0753 53.7477 41.4769 55.6887 42.0123C56.7268 42.2799 57.3136 43.3507 57.0428 44.3768C56.8171 45.0907 56.2303 45.6261 55.463 45.7599C53.4317 46.0722 51.4456 46.2507 49.4596 46.3845C48.4665 46.4291 47.4735 46.5184 46.4804 46.563C45.4874 46.6076 44.4943 46.6522 43.5013 46.6522C43.095 46.6522 42.6888 46.563 42.3277 46.3845L42.0568 46.2507C40.2062 45.2691 38.4909 44.0199 37.0465 42.503C35.6923 41.12 34.4736 39.6477 33.3451 38.0861C32.2618 36.5692 31.3139 35.0523 30.366 33.5354C29.4181 32.0185 28.6056 30.457 27.7931 28.9401C26.8001 27.0663 27.5223 24.7909 29.4181 23.8094C31.2236 22.7833 33.4805 23.4525 34.5187 25.2371Z" fill="#1A237E"/>
<path opacity="0.7" d="M34.5187 25.2371L37.0465 29.6093C37.9041 31.037 38.7617 32.4647 39.6194 33.8031C40.4319 35.0969 41.3798 36.3462 42.3728 37.5062C43.2756 38.5323 44.2686 39.4692 45.4422 40.2277L43.9527 39.8261C44.9457 39.96 45.9388 40.0938 46.8867 40.2277C47.8346 40.3615 48.8727 40.54 49.8207 40.7184C51.8067 41.0753 53.7477 41.4769 55.6887 42.0123C56.7268 42.2799 57.3136 43.3507 57.0428 44.3768C56.8171 45.0907 56.2303 45.6261 55.463 45.7599C53.4317 46.0722 51.4456 46.2507 49.4596 46.3845C48.4665 46.4291 47.4735 46.5184 46.4804 46.563C45.4874 46.6076 44.4943 46.6522 43.5013 46.6522C43.095 46.6522 42.6888 46.563 42.3277 46.3845L42.0568 46.2507C40.2062 45.2691 38.4909 44.0199 37.0465 42.503C35.6923 41.12 34.4736 39.6477 33.3451 38.0861C32.2618 36.5692 31.3139 35.0523 30.366 33.5354C29.4181 32.0185 28.6056 30.457 27.7931 28.9401C26.8001 27.0663 27.5223 24.7909 29.4181 23.8094C31.2236 22.7833 33.4805 23.4525 34.5187 25.2371Z" fill="white"/>
<path d="M30.561 18.5451C30.4656 20.3155 28.7972 21.8064 27.6531 21.7132C26.5091 21.62 25.651 20.1757 25.7464 18.4053C25.8417 16.6349 26.8428 15.2371 27.9868 15.2837C29.1309 15.3303 30.6563 16.7746 30.561 18.5451Z" fill="#1A237E"/>
<path d="M17.7026 11.1521C17.8856 15.0164 17.7484 17.308 19.7156 19.33C22.6435 22.3855 27.5387 20.723 28.5452 16.8587C29.4601 13.3988 29.0484 7.69217 25.2512 6.07455C22.552 4.90627 19.3496 6.11948 18.1601 8.81551C17.8399 9.53445 17.6569 10.3433 17.7026 11.1521Z" fill="#C97E54"/>
<path d="M24.1304 60.0167C24.1304 60.0167 22.3549 83.4177 20.0786 95.1181C18.5307 103.083 17.1649 124.234 13.5683 132.92C12.931 134.495 11.7473 135.935 10.0628 135.935L1.54938 135.575C-0.180625 135.17 -0.0440471 133.775 0.0470055 132.02C0.411216 125.134 4.50859 102.543 6.64832 93.3181C7.24017 82.6977 8.19622 67.8021 10.7457 59.5217L24.1304 60.0167Z" fill="#1A237E"/>
<g opacity="0.5">
<path opacity="0.5" d="M24.0807 60.3671C24.0807 60.3671 22.3331 83.6688 20.0925 95.3196C18.5689 103.251 17.2246 124.312 13.6846 132.961C13.0572 134.529 11.8921 135.963 10.2341 135.963L1.85449 135.605C0.151682 135.201 0.286113 133.812 0.375735 132.065C0.734222 125.208 4.7672 102.713 6.87331 93.5272C7.45585 82.9518 8.39688 68.1194 10.9063 59.8742L24.0807 60.3671Z" fill="white"/>
</g>
<path opacity="0.2" d="M20.4902 73.6606C16.7588 76.4811 16.9246 87.4543 20.0342 94.1087C21.0292 88.3357 21.8999 80.0947 22.5218 73.264C21.8169 73.0877 21.1121 73.264 20.4902 73.6606Z" fill="#1A237E"/>
<path d="M33.1943 60.6847C33.1943 60.6847 37.0092 83.0042 37.5927 94.8363C38.0863 105.145 38.8493 126.344 38.5351 132.932C38.4454 134.635 37.0541 135.935 35.3486 135.935H29.3795C27.6291 135.935 26.2378 134.545 26.1929 132.798C26.148 125.94 24.5323 103.979 22.6024 94.7467C19.8647 81.6597 16.6782 71.8444 16.9026 60.3261L33.1943 60.6847Z" fill="#1A237E"/>
<g opacity="0.5">
<path opacity="0.5" d="M33.2669 60.7257C33.2669 60.7257 37.0758 83.0416 37.6584 94.8716C38.1513 105.178 38.9131 126.374 38.5994 132.961C38.5098 134.664 37.1207 135.963 35.4178 135.963H29.458C27.7104 135.963 26.3212 134.574 26.2764 132.826C26.2316 125.97 24.6184 104.013 22.6916 94.782C19.9581 81.6972 16.7765 71.8836 17.0006 60.3672L33.2669 60.7257Z" fill="white"/>
</g>
<path d="M28.1522 134.581C28.1522 134.581 34.5343 133.907 37 134.75C36.5166 136.099 35.4529 143.729 36.8067 144.783L28.9258 144.15C29.5543 140.862 28.1522 134.581 28.1522 134.581Z" fill="#263238"/>
<path d="M5.48515 142.37H1.12038C0.936602 142.37 0.798769 142.543 0.798769 142.716L0.0177067 147.09C-0.0741832 147.567 0.201484 148 0.614988 147.957C2.17712 147.913 4.42842 147.827 6.40405 147.827C8.70129 147.827 8.42562 148 11.1364 148C12.7904 148 13.2498 145.964 12.5607 145.748C9.43641 144.882 9.16074 144.795 6.44999 142.759C6.17433 142.5 5.85271 142.37 5.48515 142.37Z" fill="#263238"/>
<path d="M2.00507 134.581C2.00507 134.581 8.23973 133.907 10.4565 134.75C9.71757 136.099 7.13134 143.729 8.19354 144.783L0.804321 142.844C1.45088 138.586 2.00507 134.581 2.00507 134.581Z" fill="#263238"/>
<path d="M30.5652 23.2404C28.8671 22.5686 29.0905 19.389 29.5821 17.732C30.0736 16.075 27.7946 18.2246 26.2753 14.821C25.3816 12.761 25.6497 10.9696 26.4987 9.71568C27.0796 8.86479 28.8671 9.26784 28.4649 6.93909C28.0627 4.61033 25.2475 2.77419 21.1364 3.3116C14.8357 4.1177 15.0144 10.1635 16.3103 13.6567C18.634 19.8368 15.9082 21.2699 12.8695 23.0165C15.9528 25.0318 23.0132 25.9722 30.5652 23.2404Z" fill="#1A237E"/>
<path opacity="0.5" d="M30.5652 23.2404C28.8671 22.5686 29.0905 19.389 29.5821 17.732C30.0736 16.075 27.7946 18.2246 26.2753 14.821C25.3816 12.761 25.6497 10.9696 26.4987 9.71568C27.0796 8.86479 28.8671 9.26784 28.4649 6.93909C28.0627 4.61033 25.2475 2.77419 21.1364 3.3116C14.8357 4.1177 15.0144 10.1635 16.3103 13.6567C18.634 19.8368 15.9082 21.2699 12.8695 23.0165C15.9528 25.0318 23.0132 25.9722 30.5652 23.2404Z" fill="white"/>
<path d="M33.5435 59.5135C33.7645 60.338 33.8529 61.2595 33.7203 62.1325C33.7203 62.278 33.6319 62.375 33.4994 62.375C31.8641 62.5205 20.2405 63.5875 10.7383 61.211C10.6499 61.1625 10.5615 61.114 10.5615 61.017C10.3405 59.9985 10.4731 58.98 10.9151 58.0585C10.9593 57.9615 11.0919 57.913 11.1803 57.913C12.5062 58.204 21.036 60.047 33.3226 59.368C33.411 59.368 33.4994 59.4165 33.5435 59.5135Z" fill="#263238"/>
<path d="M31.0044 11.2609H15.3491C15.0822 11.5826 15.7049 12.0652 15.7049 12.0652H31.3602C31.3157 12.0652 31.5381 11.5366 31.0044 11.2609Z" fill="#263238"/>
<path d="M23.9552 28.1522C23.9118 28.1522 23.8251 28.1522 23.7817 28.1072C23.4349 28.0172 23.2614 27.6122 23.3481 27.2972C24.0419 24.6423 27.3805 21.7174 30.7191 21.7174C31.066 21.7174 31.3695 22.0324 31.3695 22.3924C31.3695 22.7524 31.066 23.0674 30.7191 23.0674C27.9875 23.0674 25.1692 25.5423 24.6056 27.6572C24.5188 27.9722 24.2587 28.1522 23.9552 28.1522Z" fill="#263238"/>
<path d="M33.0626 60.321H32.9276C27.1675 59.1988 22.3523 54.0082 21.7223 48.2566C21.6773 47.8825 21.9473 47.5084 22.3073 47.4616C22.6673 47.4149 23.0273 47.6955 23.0723 48.0695C23.6124 53.1665 28.0675 57.9362 33.1526 58.9182C33.5126 58.9649 33.7826 59.2923 33.7826 59.6664C33.7376 60.0872 33.4226 60.3678 33.0626 60.321Z" fill="#263238"/>
<path d="M8.77412 31.3696C8.48393 31.3696 8.2352 31.1328 8.15229 30.8012C7.61337 27.9594 9.10576 23.5547 11.9662 21.8023C12.2564 21.6128 12.6295 21.7549 12.7953 22.0864C12.9611 22.418 12.8367 22.8442 12.5465 23.0337C10.2251 24.4546 8.93994 28.1963 9.39595 30.4697C9.47886 30.8486 9.27158 31.2275 8.93994 31.3222C8.85703 31.3696 8.81557 31.3696 8.77412 31.3696Z" fill="#263238"/>
<path d="M9.32736 23.3261H19.6291C22.5472 23.3261 24.9348 25.7488 24.9348 28.7098V62.9859C24.9348 65.9469 22.5472 68.3696 19.6291 68.3696H9.32736C6.40926 68.3696 4.02173 65.9469 4.02173 62.9859V28.7098C4.02173 25.7488 6.40926 23.3261 9.32736 23.3261Z" fill="#CB4141"/>
<path opacity="0.1" d="M7.47348 28.1522H15.8526C18.2023 28.1522 20.1087 30.0544 20.1087 32.3991V59.2965C20.1087 61.6412 18.2023 63.5435 15.8526 63.5435H7.47348C5.12377 63.5435 3.21741 61.6412 3.21741 59.2965V32.3991C3.21741 30.0544 5.12377 28.1522 7.47348 28.1522Z" fill="#0F0B0B"/>
<path d="M6.10204 27.3478H14.8109C17.266 27.3478 19.3043 29.267 19.3043 31.677V59.2143C19.3043 61.5797 17.3124 63.5435 14.8109 63.5435H6.10204C3.64688 63.5435 1.60864 61.6244 1.60864 59.2143V31.677C1.60864 29.267 3.60056 27.3478 6.10204 27.3478Z" fill="#CB4141"/>
<path d="M16.664 48.0847L11.9346 37.3156C11.2791 35.8224 9.64017 35.8224 8.98461 37.3156L4.25525 48.0847C3.5997 49.5779 4.39573 51.4783 5.75366 51.4783H15.1656C16.4767 51.4783 17.3195 49.5779 16.664 48.0847ZM15.7275 49.6684C15.6338 49.8946 15.4465 50.0756 15.1656 50.0756H5.75366C5.47271 50.0303 5.28541 49.8946 5.19176 49.6684C5.05128 49.3969 5.05128 49.0801 5.19176 48.8086L9.92112 38.0395C10.0148 37.8133 10.2021 37.6323 10.483 37.6323C10.764 37.6323 10.9513 37.8133 11.0449 38.0395L15.7743 48.8086C15.8211 49.0801 15.8211 49.3969 15.7275 49.6684Z" fill="white"/>
<path d="M38.9662 83.6521C37.849 83.6521 36.7319 83.2877 35.7935 82.65C32.9336 80.6914 31.5483 76.3641 32.0398 70.8526C32.308 67.9374 31.727 65.7054 30.3418 64.1567C28.8225 62.4714 26.3647 61.6059 22.9686 61.6059C22.7005 61.6059 22.5217 61.4237 22.5217 61.1504C22.5217 60.8771 22.7005 60.6949 22.9686 60.6949C26.5882 60.6949 29.314 61.6515 31.0121 63.519C32.5761 65.2499 33.2017 67.7552 32.9336 70.8981C32.4867 76.0908 33.7379 80.0537 36.285 81.8757C37.6703 82.8778 39.5024 83.0144 41.0664 82.1945C43.4795 80.9647 45.0435 77.7762 45.2222 73.7222L45.3116 71.9913C45.7138 62.8813 45.9372 56.8687 52.3273 50.8105C52.506 50.6283 52.7741 50.6283 52.9529 50.8105C53.1316 50.9927 53.1316 51.266 52.9529 51.4482C46.8309 57.2331 46.6075 63.1091 46.2053 71.9913L46.1159 73.7222C45.9372 78.1406 44.1944 81.6024 41.4686 82.9689C40.7089 83.4244 39.8599 83.6521 38.9662 83.6521Z" fill="#263238"/>
<path opacity="0.2" d="M38.9662 83.6521C37.849 83.6521 36.7319 83.2877 35.7935 82.65C32.9336 80.6914 31.5483 76.3641 32.0398 70.8526C32.308 67.9374 31.727 65.7054 30.3418 64.1567C28.8225 62.4714 26.3647 61.6059 22.9686 61.6059C22.7005 61.6059 22.5217 61.4237 22.5217 61.1504C22.5217 60.8771 22.7005 60.6949 22.9686 60.6949C26.5882 60.6949 29.314 61.6515 31.0121 63.519C32.5761 65.2499 33.2017 67.7552 32.9336 70.8981C32.4867 76.0908 33.7379 80.0537 36.285 81.8757C37.6703 82.8778 39.5024 83.0144 41.0664 82.1945C43.4795 80.9647 45.0435 77.7762 45.2222 73.7222L45.3116 71.9913C45.7138 62.8813 45.9372 56.8687 52.3273 50.8105C52.506 50.6283 52.7741 50.6283 52.9529 50.8105C53.1316 50.9927 53.1316 51.266 52.9529 51.4482C46.8309 57.2331 46.6075 63.1091 46.2053 71.9913L46.1159 73.7222C45.9372 78.1406 44.1944 81.6024 41.4686 82.9689C40.7089 83.4244 39.8599 83.6521 38.9662 83.6521Z" fill="white"/>
<path d="M56.6808 41.8261H59.5291C60.306 41.8261 61.0828 42.0738 61.6869 42.6105L63.2837 44.0142C63.7153 44.3858 63.5858 45.0877 63.0679 45.5418L60.9964 47.1932C60.7375 47.4409 60.306 47.5235 59.9607 47.3996L57.8892 46.6152C57.8892 46.6152 55.2136 45.7895 54.6957 44.0968L56.6808 41.8261Z" fill="#263238"/>
<path d="M57.9881 41.4239C55.8636 41.2005 53.7391 40.7983 51.6571 40.2174C50.3399 41.3345 49.2776 45.1775 49.0652 46.5627C51.827 46.8755 55.1413 46.3393 56.416 45.4009C57.6907 44.4625 59.8577 41.5133 57.9881 41.4239Z" fill="#263238"/>
<path d="M69.0285 34.7751L51.9786 50.6575L53.5058 52.2969L70.5556 36.4145L69.0285 34.7751Z" fill="#263238"/>
<path d="M84.8 21.7174L82.1726 23.2752L69.174 35.3251L69.9576 36.1957L82.9562 24.1915L85.2609 23.6876L84.8 21.7174Z" fill="#263238"/>
<path opacity="0.2" d="M84.8 21.7174L82.1726 23.2752L69.174 35.3251L69.9576 36.1957L82.9562 24.1915L85.2609 23.6876L84.8 21.7174Z" fill="white"/>
<defs>
<linearGradient id="paint0_linear" x1="139.754" y1="60.8816" x2="89.4218" y2="54.3065" gradientUnits="userSpaceOnUse">
<stop stop-color="#C97E54"/>
<stop offset="0.741578" stop-color="#F7E4B6" stop-opacity="0"/>
</linearGradient>
<linearGradient id="paint1_linear" x1="88.7324" y1="34.1518" x2="176.654" y2="-17.9947" gradientUnits="userSpaceOnUse">
<stop stop-color="#EA4747"/>
<stop offset="0.177125" stop-color="#FE6838"/>
<stop offset="0.39289" stop-color="#EA7533"/>
</linearGradient>
</defs>
</svg>
