<svg xmlns="http://www.w3.org/2000/svg" viewBox="0 0 303.98 329.56"><defs><style>.cls-1{fill:#fbfbfb;}.cls-2{fill:#f7f8f8;}.cls-3{fill:#fdfdfd;}.cls-4{fill:#f3eef3;}.cls-5{fill:#0e507c;}.cls-6{fill:#0478b6;}.cls-7{fill:#8d6468;}.cls-8{fill:#95989a;}.cls-9{fill:#0f0607;}.cls-10{fill:#050505;}.cls-11{fill:#abd0e9;}.cls-12{fill:#323333;}.cls-13{fill:#e77992;}.cls-14{fill:#ec8fa0;}.cls-15{fill:#bc5446;}</style></defs><g id="Capa_2" data-name="Capa 2"><g id="Capa_1-2" data-name="Capa 1"><path class="cls-1" d="M263.22,80c.82,3,1.79,6.05,2.42,9.13a22.45,22.45,0,0,0,4.56,10.17c4.05,5,4.93,11.57,6.08,17.75,3.89,20.92,6.3,42,5.77,63.34A103.09,103.09,0,0,1,279.16,204c-1,3.84-2.13,7.7-5.25,10.51l-25.36-2.2c-.36-30.25-2-60.55,3-91-2.29,1.34-2.8,3-3.2,5-2.53,12.61-2,25.45-3.16,38.16-1.95.78-3.94-1.64-5.87.09l-2-.16c.18-2.06-.9-3.15-2.58-4.27-3.27-2.2-6.52-1.44-9.88-.65l.39-11.08,1.05-15.83c2.73-6.42,1.67-13.54,3.77-20.07,1.91.2,3.41-.34,3.43-2.5s-1.77-1.17-2.88-1.3c0-2.73,2.35-2.5,4-3.15,1,0,2,0,2.69-1,5.34-1.64,10.85-2,16.37-2.48,1.39-.1,3.8.48,3.73-1.32-.09-2.38-2.6-1.18-4.05-1.27-5.35-.37-10.37,1.88-15.66,2.14l-4.29.9c-.44-1.33,1.07-1.82,1.25-2.88,6.57-1.09,9.76-5.44,10.41-14.2a.91.91,0,0,0,.35-.66c2.16-1.28,1.21-3.62,1.85-5.41l15.53-.11C262.35,79.83,262.92,79.82,263.22,80Zm-7.38,4.33c3,4.36,5.17,7.8,6.37,11.75C263.78,90.88,261.56,86.42,255.84,84.29Z"/><path class="cls-1" d="M56.36,6a12.31,12.31,0,0,1,6.06,0c4.19,2.76,7.12,7.68,13,7.64l0,0,.87.93a.94.94,0,0,1,.24.75l.74,1.24a1.16,1.16,0,0,1,.26.82c-.1,1.32-.35,2.7,1.4,3.22.09.7.19,1.39.28,2.08-1.24,3.17-.93,6.51-1,9.8a3.19,3.19,0,0,0,1.23,2.4,7.59,7.59,0,0,0,8.88,2l2.12.39c2.4,2.19,5.84,2.39,9.69,5-8.29.42-13.73,6.41-21.32,5.35a1.93,1.93,0,0,0-2.31,2c2.94,3,6.75.49,10,1.57l-1,6.4a.43.43,0,0,1-.63.1c-1.8-.07-3.67-.68-5.32.6l-2,.23c-1.08-1.34-1.64-.71-2,.54l-2.91.57-1-.3c.08-2.44-1.44-3.75-3.54-3.47s-1.24,2.5-1.4,4c-3,1.65-7.22-.59-10.71,3.62a115.13,115.13,0,0,0,17.77-1.83l.33,3.5c-2.5,4-4.17,8.57-8.42,11.47-11.64,7.94-26.42,2.81-30.66-11a8.33,8.33,0,0,0-4-5.25C22.56,55.46,19,48.22,20.63,38.58c2.79-1.86,3.27-4.87,3.91-7.81l.11-.16c.26-.33.53-.66.79-1l1-1,1-.83a3.45,3.45,0,0,1,3-2.15c1.52-.16,3.44.59,4-1.76l1.9-.29c1.92-.06,4.95.81,5.33-1.25.94-5.07,5.77-7.8,6.78-12.65l0,0,.91-.79a1.4,1.4,0,0,1,.9-.28l1.08-.67,1-.32C54,7.74,55.4,7.48,56.36,6Z"/><path class="cls-2" d="M204,83.09c.35.54.7,1.07,1.06,1.6a4.24,4.24,0,0,0,2.28,2.87h0c3.59,5.75,7.15,11.36,15,12,2.85.25,6,.65,8.3,2.82-.88,1.81-2,3.54-1.78,5.69-1.34,1-1.12,2.63-1.43,4.07-1.46,6.72-1.72,13.57-2.21,20.39-1.72,4.84-.91,10-1.67,14.92-1.38,1.53-.95,3.44-1,5.2-.11,6.61-.28,13.22-.11,19.82.08,3.17-.79,4.54-4.13,4.28-3-.23-5.95,0-8.92,0-.86,0-1.72.38-1.7,1.38s.94,1.22,1.78,1.26c2.3.11,4.6.19,6.9.28-.2,2.29-2,2.68-3.75,3.12-2.32.59-4.67,1.09-7,1.63a16.33,16.33,0,0,1,.77-8q0-13.5.08-27l0,.09c2.85-6,2.33-12.72,4.15-18.94,2.1-2.48,3.18-5.2,2.22-8.62-6.52,4.48-21.16-5.92-26.66-18.6a30,30,0,0,0-.13-8.82c.41-2.08-.81-3.8-1.25-5.7-1.23-5.27-4.36-9.92-5-15.39,3.53-1.31,6.19-4,9.33-5.93,2.92.73,3.46,4.16,6,5.3a1.08,1.08,0,0,0,.31.64,3,3,0,0,0,1.84,2h0a2.12,2.12,0,0,0,1.93,2.08l0,0C200,80.19,201.88,81.75,204,83.09Z"/><path class="cls-3" d="M196.4,280.39q.19-3,.38-6c2.51-1.35,1.93-3.11.67-5l.18-3c4.67-.36,6.53-2.72,5.81-7.46a52.29,52.29,0,0,1-.06-7.92c0-2-.31-4.07,1.46-5.52,2.7-2.22,2.92-4.81,1.78-8-1.86-5.16-4.25-10.21-1.83-16.09.49-1.19.78-4.68-2.06-5.87l.09-2.12c1.89-.7,1.92-1.73.53-3,0-2-.07-4-.11-6l.15-2,.93-2c3.27-1.87,2.81-3.92.3-6.07l-.44.09c.22-.66.45-1.33.67-2,1.33-.42,1.77-1,.44-2,0-1.66-.11-3.32-.16-5,.16-.33.33-.65.49-1,2.34-.54,4.69-1,7-1.63,1.73-.44,3.55-.83,3.75-3.12h4c.35,1.74-1,4.26,2.15,4.73l1,6c-4.31,2.72-4.31,2.72,1.11,6a.93.93,0,0,1,.28.88c-3.74.54-2.31,4.07-3.51,6.07l-.21.38.21-.38,5.07,1a5.53,5.53,0,0,1,1.13,3.44c0,1.37,0,2.74,0,4.11q-.66,2.72-1.31,5.43c-1.46.09-3.65-.41-4,1.1-1.11,4.28-6.53,6.76-4.92,12.14a3.42,3.42,0,0,1-.76,2.74c-3.63,4.19-1.83,10.59-6,14.59a2,2,0,0,0,.47,2.7c1.46.78,1.95-.58,2.36-1.67.25-.65.52-1.19,1.48-1,.51,1.12,1.06,2.3,1.6,3.49l-1,1.71c-.84,1.74-2.09,2.53-4,1.74a2.18,2.18,0,0,0-2.64.74c-2,2.13-2.15,10.34,0,12.56.71.74,1.85,1.34,1.28,2.32-2.05,3.52-1.51,7.38-1.8,11.15a4.24,4.24,0,0,1-3.28,4c-2.75.33-1-2.56-1.89-3.66s-.17-3.69-2.37-2.91c-1.91.68-1.38,2.63-.69,4.29,2.42,5.84,1.77,6.78-4.63,7,.07-1.33.13-2.66.2-4C198.61,284.74,197.55,282.57,196.4,280.39Zm17-57c-2.54.61-4.2,1.85-3.85,4.71a1.15,1.15,0,0,0,1.36,1.08c2.8-1,2.29-3.53,3.26-7.32a13.3,13.3,0,0,0-.73,1.12c-.26.49-.08.68.39.4a8,8,0,0,0,1-.84C214.67,222.31,214.48,222.12,213.41,223.35Z"/><path class="cls-4" d="M137.71,59.42c.36-2.23,0-4-2.73-4.25-.47-.92-1.2-2-2.2-1.65-4.58,1.37-4.27-1.84-4.4-4.56a32.11,32.11,0,0,1,.27-3.91C138.84,45,149,45,159.22,44.82c2.61,0,4.34,1.2,5.95,2.93,2.59,6,2.59,6-3.72,7.15-.13,0-.23.22-.35.33-1.7.44-3.39,1-5.11,1.32-2.86.58-3.07,1.91-1.24,3.92C150,56,144.9,57,139.65,59.34A5.19,5.19,0,0,1,137.71,59.42Z"/><path class="cls-5" d="M177,106.74l-3.13,2.19c-9.13,3.51-11.62,2.53-15.27-6.34-2.44-6-5.36-11.77-6.43-18.18-.47-2.85-3.06-3.9-4.62-5.43-3.53-3.49-5.14-8.23-8.61-11.57-2.6-2.48-2.8-5-1.27-8a5.19,5.19,0,0,0,1.94-.08C144.9,57,150,56,154.75,60.48c1.64,2.9,2.63,6.09,4.22,9.07,2.63,4.91,1.27,7.71-3.63,10.54-1.53.89-2.22,1.79-1.46,3.6,1,2.44,1.89,5,2.8,7.45.73,2,1.8,2.29,3.84,1.46,2.64-1.07,5.14-2.86,8.76-2.7-1.9,3.14-5,3.24-7.36,4.37-4.29,2-1.93,5-1.24,7.65.79,3.07,2.85,2.65,5.06,1.67,2-.88,3.94-1.75,5.95-2.55,1-.38,2.06-.55,2.36.83.24,1-.64,1.36-1.47,1.61-1.91.58-3.84,1.1-5.69,1.81-1.2.46-2.73,1-2.06,2.8.54,1.43,2,1,3.08.89C171.05,108.7,173.78,106.64,177,106.74ZM152.37,74.57c.38,1.82-3.94,3-1.5,4.22s5.17-1,7.61-3.75l-6.07-.51c.64-1.26,2-.93,3-1.33,1.37-.55,2.19-1.52,1.55-3.06-.55-1.35-1.62-1.4-2.85-.92a19.18,19.18,0,0,0-2.33.74c-1.89,1.05-5.83.08-5.59,2.75C146.49,76.08,150.26,73.81,152.37,74.57Zm-9-10a13.78,13.78,0,0,1,1.63-1c1.75-.79,5.42-.28,4.58-2.91-.73-2.3-4.06-.85-6.26-.41a4.74,4.74,0,0,0-1.36.61c-1.13.63-2.76,1-2.34,2.75.58,2.4,2.48.64,3.74,1-1.05,4.32.09,5.66,4.16,4.72a26.23,26.23,0,0,0,4.21-1.53A2.1,2.1,0,0,0,153.16,65c-.49-1.52-1.78-1.45-2.87-1.07A15.79,15.79,0,0,1,143.41,64.55Z"/><path class="cls-6" d="M161.1,55.23c.12-.11.22-.3.35-.33,6.31-1.19,6.31-1.19,3.72-7.15,10.41,1,15.17,9.79,22,15.78a2.41,2.41,0,0,0,2.24,2c.07.32.15.64.22,1-.13.36-.26.71-.4,1.06-3.14,1.93-5.8,4.62-9.33,5.93-2.21-.79-2.59-4.1-5.48-4h0c-3.44-4.23-8.74-6.93-10.31-12.72-.24-.89-1.46-1.26-2.54-1.13Z"/><path class="cls-2" d="M21.61,19.49a9.56,9.56,0,0,1-10-9.52,10.12,10.12,0,0,1,9.7-10C26.21,0,31,4.51,31.15,9.4A10,10,0,0,1,21.61,19.49Z"/><path class="cls-2" d="M202.73,215.54c2.84,1.19,2.55,4.68,2.06,5.87-2.42,5.88,0,10.93,1.83,16.09,1.14,3.17.92,5.76-1.78,8-1.77,1.45-1.46,3.55-1.46,5.52a52.29,52.29,0,0,0,.06,7.92c.72,4.74-1.14,7.1-5.81,7.46,0-7.93,1.4-15.74,2.13-23.61.11-1.13.13-2.27.18-3.4.13-1.66.25-3.32.37-5s.35-3.36.52-5c.19-2,.37-4,.56-6,.23-2.69,1.51-5.28.76-8.07A3.06,3.06,0,0,1,202.73,215.54Z"/><path class="cls-4" d="M236.61,67.72c.85-.77,1.7-1.56,2.57-2.32,6.24-5.48,13.1-4.84,18,1.84a22.1,22.1,0,0,1,4.06,8.45,61.9,61.9,0,0,1-14.9-.13c-1.67-3.93-4.77-5.41-8.88-5.16l-.9-1.26C236.58,68.67,236.59,68.2,236.61,67.72Z"/><path class="cls-5" d="M248.55,212.32l25.36,2.2c.73,2,.12,4-.46,5.95.06.34.11.68.17,1l-.21,2.9c-1.61,1.69-.13,3.43-.06,5.14-3.84,4.23-9.09,2-13.64,2.94-4.36.29-8.28-.74-11.46-3.92.22-1.08.44-2.16.67-3.24l-.38-1.83a1.61,1.61,0,0,0-.82-1.87c.95-1.84,0-3.06-1.33-4.19a.57.57,0,0,0,.09-.7,1.1,1.1,0,0,0,.91-1.4C247.52,214.22,247.17,212.93,248.55,212.32Zm4.53,15.13.47-4.37c2.21,1.93,1.26,4.82,2.6,6.94,1.71-1.37.88-2.6.6-3.84s-1-2.57.9-3.27a7.8,7.8,0,0,1,1.63,4.61c.13,1.69.36,2.25,2.6,2.3,7.69.15,8,0,10-8.59.83-3.49-.29-5.17-3.52-5.5-4.75-.48-9.54-.49-14.32-1-4-.45-5.24,1.86-3.64,5.73C251.37,222.71,252.65,224.85,253.08,227.45Z"/><path class="cls-7" d="M237.47,70.4c4.11-.25,7.21,1.23,8.88,5.16.32,1.27.63,2.54,1,3.81-.64,1.79.31,4.13-1.85,5.41-.68-1.84-1.82-.6-2.81-.43-2.91.49-5.83,1.12-8.47-.91.34-3.15-.79-4.13-3.69-2.52l-.11-1.31c2.9-3.53,1.24-9.45,6.24-11.89,0,.48,0,1,0,1.42A1.07,1.07,0,0,0,237.47,70.4Z"/><path class="cls-1" d="M76.47,49.64a1.93,1.93,0,0,1,2.31-2c7.59,1.06,13-4.93,21.32-5.35-3.85-2.62-7.29-2.82-9.69-5,4.6-.84,8.28,3,12.81,2.5.09.5.18,1,.28,1.5.18.76.48.92,1,.19,1.8-.27,3.34.62,5,1.13-.28,2.08-1.93,1.71-3.36,2-2.64.62-5.58.35-7.91,2.42,4.62.53,9.18.46,13.74.56,1.66,0,3.8-.81,4.56,1.73Z"/><path class="cls-8" d="M116.44,49.33c-.76-2.54-2.9-1.7-4.56-1.73-4.56-.1-9.12,0-13.74-.56,2.33-2.07,5.27-1.8,7.91-2.42,1.43-.33,3.08,0,3.36-2a41.63,41.63,0,0,1,10,2.22c1.9,1.89,4.32,1.8,6.73,1.79l0,5.94a7.42,7.42,0,0,0-5.69,1.76l-5.83.38-3.63,0-3.62,0c-.21-1.7,1.75-2.19,2-3.62C111.68,50.14,114.74,52.47,116.44,49.33Z"/><path class="cls-4" d="M0,57.18a6.88,6.88,0,0,1,7.23-6.6c3.64.16,7,3.62,6.85,7.13s-3.76,6.82-7.34,6.67A7.11,7.11,0,0,1,0,57.18Z"/><path class="cls-4" d="M55.37,99.63a6.54,6.54,0,0,1-7,6.71,6.84,6.84,0,1,1,.25-13.68A6.54,6.54,0,0,1,55.37,99.63Z"/><path class="cls-5" d="M230.37,79.61c0,.44.07.88.11,1.31-.31.93-.66,1.85-.92,2.79-.65,2.42.39,4,2.76,4.15,4.37.26-.56-3.67,1.85-4.42,2.64,2,5.56,1.4,8.47.91,1-.17,2.13-1.41,2.81.43a.91.91,0,0,1-.35.66c-2.36.3-5-.36-6.08,3-.61,1.92-2.67,2.19-4.67,1.57-1.3-.4-2.69-1.13-4,0,1.93,2.64,5.45.42,8.82,3.24-7.09-.78-7.91,1.66-5,6.11-1.49.68-2.11-1-3.29-1.2l-1.28-1.12c-3-4.15-4.05-8.59-2-13.5a1.8,1.8,0,0,0,.78-2.18C228.85,80.65,229.3,79.78,230.37,79.61Z"/><path class="cls-8" d="M107.4,54.69l3.62,0c.1.28.22.56.34.83-2.85,4-7.38,2.05-11,2.58C93,59.21,85.63,60.36,78.23,61.26c-3,.37-2.25,3.4-4.34,3.87-.1-1.17-.21-2.33-.32-3.5l-1.08-2,2.91-.57a1.88,1.88,0,0,0,2-.54l2-.23c1.76-.39,4,3.22,5.32-.6a.43.43,0,0,0,.63-.1A170.94,170.94,0,0,0,107.4,54.69Z"/><path class="cls-9" d="M247.3,79.37c-.32-1.27-.63-2.54-1-3.81a61.9,61.9,0,0,0,14.9.13c1.21.84,5,.48,1.63,3.48l-.05.09Z"/><path class="cls-8" d="M119.46,44.8a41.63,41.63,0,0,0-10-2.22c-1.62-.51-3.16-1.4-5-1.13l-1-.19c-.1-.5-.19-1-.28-1.5,7.61.28,15.17.79,22.06,4.57Z"/><path class="cls-8" d="M75.38,13.61c-5.84,0-8.77-4.88-13-7.64C68.23,6,72.5,8.63,75.38,13.61Z"/><path class="cls-8" d="M48.46,9.64c-1,4.85-5.84,7.58-6.78,12.65-.38,2.06-3.41,1.19-5.33,1.25a7,7,0,0,0,4.86-5C42.42,14.68,44.25,11.13,48.46,9.64Z"/><path class="cls-8" d="M126.17,52.53c0-2,0-4,0-5.94l0-1.76,2.43.22a32.11,32.11,0,0,0-.27,3.91c.13,2.72-.18,5.93,4.4,4.56,1-.3,1.73.73,2.2,1.65-3,.1-6.23,1.51-8.88-1.19C126.12,53.5,126.15,53,126.17,52.53Z"/><path class="cls-10" d="M273.35,229.53c-.07-1.71-1.55-3.45.06-5.14l5.94,10.5,0,2-2.33-.32A16,16,0,0,0,273.35,229.53Z"/><path class="cls-8" d="M88.29,36.87a7.59,7.59,0,0,1-8.88-2A17.46,17.46,0,0,1,88.29,36.87Z"/><path class="cls-8" d="M78.18,32.48c.1-3.29-.21-6.63,1-9.8C81,26.18,79.57,29.32,78.18,32.48Z"/><path class="cls-4" d="M24.54,30.77c-.64,2.94-1.12,5.95-3.91,7.81C21.29,35.66,21.57,32.54,24.54,30.77Z"/><path class="cls-8" d="M126.22,44.83l0,1.76c-2.41,0-4.83.1-6.73-1.79l5.82-.47Z"/><path class="cls-2" d="M204.62,194.36c2.51,2.15,3,4.2-.3,6.07l-.5-1.05C204.09,197.71,204.35,196,204.62,194.36Z"/><path class="cls-4" d="M126.17,52.53c0,.49,0,1-.07,1.45a11.17,11.17,0,0,1-5.62.31A7.42,7.42,0,0,1,126.17,52.53Z"/><path class="cls-4" d="M56.36,6c-1,1.48-2.4,1.74-4,1.55A3.59,3.59,0,0,1,56.36,6Z"/><path class="cls-2" d="M202.45,210.45l.9,0c1.39,1.28,1.36,2.31-.53,3C202.7,212.43,202.58,211.44,202.45,210.45Z"/><path class="cls-4" d="M34.45,23.83c-.54,2.35-2.46,1.6-4,1.76A5.17,5.17,0,0,1,34.45,23.83Z"/><path class="cls-4" d="M78.93,20.6c-1.75-.52-1.5-1.9-1.4-3.22A2.88,2.88,0,0,1,78.93,20.6Z"/><path class="cls-4" d="M111.36,55.55c-.12-.27-.24-.55-.34-.83l3.63,0C113.74,55.64,112.5,55.4,111.36,55.55Z"/><path class="cls-4" d="M25.44,29.61c-.26.34-.53.67-.79,1C24.91,30.28,25.18,30,25.44,29.61Z"/><path class="cls-4" d="M27.47,27.74l-1,.83Z"/><path class="cls-4" d="M77.27,16.56l-.74-1.24Z"/><path class="cls-4" d="M76.29,14.57l-.87-.93Z"/><path class="cls-7" d="M262.83,79.26l.05-.09a2.52,2.52,0,0,0,.34.79C262.92,79.82,262.35,79.83,262.83,79.26Z"/><path class="cls-4" d="M49.4,8.82l-.91.79Z"/><path class="cls-4" d="M51.38,7.87l-1.08.67Z"/><path class="cls-7" d="M273.62,221.49c-.06-.34-.11-.68-.17-1a4.17,4.17,0,0,1,.43.69C273.91,221.22,273.71,221.38,273.62,221.49Z"/><path class="cls-8" d="M248.55,212.32c-1.38.61-1,1.9-1.16,3a4.08,4.08,0,0,1-.91-.18l-.55-6.7c-.2-3.33-.41-6.67-.61-10l-.21-15c.43-2.94-1.3-3.93-3.79-4-2.65-.06-5.31.09-8,.15h-3c-4.23-1-6,.46-4.72,4.83-1,3.55,1.27,6.62,1.51,10a4,4,0,0,0,.67,3.08l.51,1.9a59.91,59.91,0,0,0,1.45,6.09c.86,2.48,0,3-2.22,2.34a5.6,5.6,0,0,0-1.14-3.44l-1.56-7.07a.93.93,0,0,0-.28-.88l-1.11-6-1-6c-.56-1.65,1.62-4.54-2.15-4.73h-4c-2.3-.09-4.6-.17-6.9-.28-.84,0-1.77-.21-1.78-1.26s.84-1.36,1.7-1.38c3,0,6-.22,8.92,0,3.34.26,4.21-1.11,4.13-4.28-.17-6.6,0-13.21.11-19.82,0-1.76-.4-3.67,1-5.2l1.74.89q-.19,5.55-.38,11.08c-.13,4.58-.17,9.16-.43,13.73-.16,2.88,1.17,3.68,3.81,3.6,3.27-.1,6.55.08,9.82.14l6.89.35c.12-2.64.25-5.28.34-7.92,0-1,0-2,0-3,0-.64-.05-1.28-.07-1.92,1.13-12.71.63-25.55,3.16-38.16.4-2,.91-3.68,3.2-5C246.55,151.77,248.19,182.07,248.55,212.32Z"/><path class="cls-4" d="M238.1,176.93c-3.27-.06-6.55-.24-9.82-.14-2.64.08-4-.72-3.81-3.6.26-4.57.3-9.15.43-13.73,3.35-.79,6.6-1.55,9.87.65,1.68,1.12,2.76,2.21,2.58,4.27-2,.25-3.81-.82-5.7-1.3-1.38-.34-3-1.39-3.93.35-.78,1.43.72,2.31,1.5,3.31C232,170.29,236.43,172.42,238.1,176.93Z"/><path class="cls-11" d="M238.1,176.93c-1.67-4.51-6.08-6.64-8.88-10.19-.78-1-2.28-1.88-1.5-3.31,1-1.74,2.55-.69,3.93-.35,1.89.48,3.65,1.55,5.7,1.3l2,.16a8.92,8.92,0,0,0,5.94,1.83c0,1,.07,2,0,3-.09,2.64-.22,5.28-.34,7.92Z"/><path class="cls-6" d="M234.13,99.43c-2.91-4.45-2.09-6.89,5-6.11-3.37-2.82-6.89-.6-8.82-3.24,1.35-1.16,2.74-.43,4,0,2,.62,4.06.35,4.67-1.57,1.09-3.4,3.72-2.74,6.08-3-.65,8.76-3.84,13.11-10.41,14.2A1.63,1.63,0,0,0,234.13,99.43Z"/><path class="cls-8" d="M225.21,132.57c.49-6.82.75-13.67,2.21-20.39.31-1.44.09-3,1.43-4.07l1.41,1.31c0,1-.11,2-.16,3.06-2.1,6.53-1,13.65-3.77,20.06Z"/><path class="cls-8" d="M237.73,101.62c5.29-.26,10.31-2.51,15.66-2.14,1.45.09,4-1.11,4.05,1.27.07,1.8-2.34,1.22-3.73,1.32-5.52.43-11,.84-16.37,2.48Z"/><path class="cls-8" d="M230.26,109.42l-1.41-1.31c-.2-2.15.9-3.88,1.78-5.69,1.58-1.32-.4-2.82.21-4.19,1.18.18,1.8,1.88,3.29,1.2a1.63,1.63,0,0,1,.56.21c-.18,1.06-1.69,1.55-1.25,2.88.4,1,.8,2,1.21,3-1.65.65-4,.42-4,3.15Z"/><path class="cls-8" d="M255.84,84.29c5.72,2.13,7.94,6.59,6.37,11.75C261,92.09,258.89,88.65,255.84,84.29Z"/><path class="cls-8" d="M225.21,132.57l1.12,0-1.05,15.84-1.74-.89C224.3,142.54,223.49,137.41,225.21,132.57Z"/><path class="cls-2" d="M230.26,109.42l.39-.74c1.11.13,2.89-1,2.88,1.3s-1.52,2.7-3.43,2.5C230.15,111.46,230.21,110.44,230.26,109.42Z"/><path class="cls-4" d="M245.3,166.37a8.92,8.92,0,0,1-5.94-1.83c1.93-1.73,3.92.69,5.87-.09C245.25,165.09,245.27,165.73,245.3,166.37Z"/><path class="cls-2" d="M234.65,105.53c-.41-1-.81-2-1.21-3l4.29-.9-.39,2.93C236.7,105.58,235.66,105.52,234.65,105.53Z"/><path class="cls-1" d="M107.4,54.69a170.94,170.94,0,0,1-22,2.92c.34-2.13.68-4.27,1-6.4l23-.14C109.15,52.5,107.19,53,107.4,54.69Z"/><path class="cls-8" d="M109.43,51.07l-23,.14c-3.24-1.08-7,1.45-10-1.57l40-.31C114.74,52.47,111.68,50.14,109.43,51.07Z"/><path class="cls-8" d="M72.49,59.65l1.08,2A115.13,115.13,0,0,1,55.8,63.46c3.49-4.21,7.69-2,10.71-3.62l4.94-.49Z"/><path class="cls-1" d="M71.45,59.35l-4.94.49c.16-1.46-.84-3.66,1.4-4S71.53,56.91,71.45,59.35Z"/><path class="cls-4" d="M84.8,57.71c-1.36,3.82-3.56.21-5.32.6C81.13,57,83,57.64,84.8,57.71Z"/><path class="cls-4" d="M77.43,58.54a1.88,1.88,0,0,1-2,.54C75.79,57.83,76.35,57.2,77.43,58.54Z"/><path class="cls-6" d="M177,106.74c-3.26-.1-6,2-9.13,2.24-1.06.1-2.54.54-3.08-.89-.67-1.77.86-2.34,2.06-2.8,1.85-.71,3.78-1.23,5.69-1.81.83-.25,1.71-.56,1.47-1.61-.3-1.38-1.4-1.21-2.36-.83-2,.8-4,1.67-5.95,2.55-2.21,1-4.27,1.4-5.06-1.67-.69-2.69-3.05-5.66,1.24-7.65,2.4-1.13,5.46-1.23,7.36-4.37-3.62-.16-6.12,1.63-8.76,2.7-2,.83-3.11.52-3.84-1.46-.91-2.49-1.76-5-2.8-7.45-.76-1.81-.07-2.71,1.46-3.6,4.9-2.83,6.26-5.63,3.63-10.54-1.59-3-2.58-6.17-4.22-9.07-1.83-2-1.62-3.35,1.24-3.93,1.72-.36,3.41-.88,5.11-1.32l.44.47c1.89,6.83,4.6,12.91,12.85,13.85h0c3.5,6.95,6.7,14,8.46,21.65a3.93,3.93,0,0,0,3.25,3.4,30,30,0,0,1,.13,8.82C183.4,105.19,180.59,107,177,106.74Z"/><path class="cls-5" d="M186.09,94.59a3.93,3.93,0,0,1-3.25-3.4c-1.76-7.64-5-14.7-8.46-21.65,2.89-.14,3.27,3.17,5.48,4,.62,5.47,3.75,10.12,5,15.39C185.28,90.79,186.5,92.51,186.09,94.59Z"/><path class="cls-9" d="M304,306.38a6.13,6.13,0,0,0-.4.91c-.62,2.46.19,6.44-2.81,6.74s-4.7-3.18-6-5.92c-.93-1.94-1.83-3.88-2.74-5.82q-.7-6.92-1.39-13.82c-.84-3.05.93-5.76,1.1-8.67,10.55.54,10.61.53,11.46,11.24C303.6,296.14,303.73,301.27,304,306.38Z"/><path class="cls-4" d="M291.73,279.8c-.17,2.91-1.94,5.62-1.1,8.67-4.94-2.37-10-4.51-14-8.39,4-.95,9,1,11.75-3.82Z"/><path class="cls-9" d="M200.32,319.68a4.07,4.07,0,0,0,0-.49l-7.84-1.34a7.58,7.58,0,0,1-3.79-.27,4.65,4.65,0,0,1-3.43.26c-1.59-.44-3.14,0-4.73.28a40,40,0,0,1-4.87.49c-1.4.43-3.26.43-4.53,1.2-.85.52-1.77.92-2.58,1.49-1.33.94-3.12,1.84-2.72,3.75.33,1.63,2.17,1.87,3.59,2.28,7.08,2.1,14.37,2.24,21.67,2.23C200.27,329.56,200.53,329.28,200.32,319.68Z"/><path class="cls-2" d="M200.27,319.19l-7.84-1.34c0-1.8,0-3.61,0-5.41.58-.41.56-.84.07-1.31,1.05-5.18,2.08-10.36,1.64-15.7.42-1.69.83-3.38,1.25-5.07,6.4-.18,7-1.12,4.63-7-.69-1.66-1.22-3.61.69-4.29,2.2-.78,1.54,1.92,2.37,2.91s-.86,4,1.89,3.66a4.24,4.24,0,0,0,3.28-4c.29-3.77-.25-7.63,1.8-11.15.57-1-.57-1.58-1.28-2.32-2.11-2.22-1.93-10.43,0-12.56a2.18,2.18,0,0,1,2.64-.74c1.93.79,3.18,0,4-1.74,2.82,1.2.92,3.14.56,4.61-3.24,13.16-6.6,26.28-9.92,39.41Z"/><path class="cls-2" d="M196.4,280.39c1.15,2.18,2.21,4.35-.8,6C195.57,284.33,194.94,282.22,196.4,280.39Z"/><path class="cls-2" d="M197.45,269.41c1.26,1.85,1.84,3.61-.67,5C196.56,272.66,196,270.91,197.45,269.41Z"/><path class="cls-4" d="M259.71,232.47c.66,1.54.11,2.91-.6,4.26-4.87-.17-9.8.88-14.6-.68,0-1.27,1.48-2.25.77-3.67h.06c1.67-.8,3.16-1.74,3-3.94l-.08.12C251.43,231.73,255.35,232.76,259.71,232.47Z"/><path class="cls-5" d="M261.35,244c-1-1-2.39-.87-3.63-1.16,12.25-3.48,21.61,9.21,18.25,20.63-.11.37-.75.59-1.14.88.51-2.36,1.77-4.76-.35-7l-.33-1.94-.19-1.52a.63.63,0,0,0-.32-.63l-.86-1.4a.53.53,0,0,0-.27-.53l-.66-1.27-.09-.13a1.87,1.87,0,0,0-1.38-1.6C268.06,245.47,264.87,244.39,261.35,244Z"/><path class="cls-4" d="M233,237.82a7.85,7.85,0,0,1-.4-4.42c2.53,1.75,5,2.8,7.72.16.72-.71,2.08-.76,3.14-1.12l-.9,3.34C239.55,237.48,236.21,237.45,233,237.82Z"/><path class="cls-10" d="M242.52,235.78l.9-3.34c.62-.17,1.21-.95,1.86-.06.71,1.42-.73,2.4-.77,3.67Z"/><path class="cls-2" d="M245.28,232.38c-.65-.89-1.24-.11-1.86.06-1.06.36-2.42.41-3.14,1.12-2.72,2.64-5.19,1.59-7.72-.16-.77-5.12-1.38-10.28-2.39-15.36-.43-2.11.45-5-2.61-6.06,0-1.37,0-2.74,0-4.11,2.26.65,3.09.14,2.23-2.34a59.91,59.91,0,0,1-1.45-6.09l6.4.93c-2.46,1.4-2.32,2.86-1.72,4.63,1.05,3.05,2.8,6.21-1,8.93-1.25.9-.32,2.24.85,2.73,3.36,1.39,3.82,4.53,4.06,7.37.32,3.69,1.94,5,5.41,4.38h4c-.27,1.34-2.39,2.2-1,4Z"/><path class="cls-2" d="M226.25,217.41c-1.4,9.17-5.26,17.74-6.43,27-1.55,2.17-.3,5.68-3.39,7.12-.54-1.19-1.09-2.37-1.6-3.49-1-.18-1.23.36-1.48,1-.41,1.09-.9,2.45-2.36,1.67a2,2,0,0,1-.47-2.7c4.18-4,2.38-10.4,6-14.59a3.42,3.42,0,0,0,.76-2.74c-1.61-5.38,3.81-7.86,4.92-12.14C222.6,217,224.79,217.5,226.25,217.41Z"/><path class="cls-2" d="M224.88,197.36l1.56,7.07-5.07-1h0C222.57,201.43,221.14,197.9,224.88,197.36Z"/><path class="cls-2" d="M213.41,223.35c-.2,2.26.31,4.79-2.49,5.79a1.15,1.15,0,0,1-1.36-1.08C209.21,225.2,210.87,224,213.41,223.35Z"/><path class="cls-2" d="M223.49,190.45l1.11,6C219.18,193.17,219.18,193.17,223.49,190.45Z"/><path class="cls-2" d="M220.35,179.71c3.77.19,1.59,3.08,2.15,4.73C219.35,184,220.7,181.45,220.35,179.71Z"/><path class="cls-2" d="M204.85,192.45a1.69,1.69,0,0,1,.44-2C206.62,191.41,206.18,192,204.85,192.45Z"/><path class="cls-2" d="M214.18,221.82l.67.68a8,8,0,0,1-1,.84c-.47.28-.65.09-.39-.4A13.3,13.3,0,0,1,214.18,221.82Z"/><path class="cls-2" d="M221.37,203.43l-.21.38.21-.38Z"/><path class="cls-12" d="M229.47,235.8c-3.31,1.81-6,5.84-10.49,3.75s-4.82-6.81-5.28-11.13c-1-9.48-.07-18.91.84-28.34.43-4.4.76-8.81,1.13-13.22,1.7-10.77,4.83-21.38,3.77-32.47.95-3.77-.37-7-2.22-10.21-2.23-5.44-6.59-8.58-11.87-10.39a112.16,112.16,0,0,0-11-2.65c.38-.77.77-1.53,1.15-2.3,2.87-.65,5.57.72,8.39.7,4.95,2,9.65,4.37,13.4,8.29l3,4.4.87,1.67c.81,3.19,1.61,6.39,2.41,9.58-.5,5.6-1,11.19-1.49,16.78-.38,4.56-2.39,9-1.34,13.67-2.13,2.26-1.7,5.19-2,7.9-1.43,12.31-3.25,24.61-1.82,37,.32,2.83.33,6.71,3.54,7.56s5.65-2,7.56-4.61l1-.13.9,2.68Z"/><path class="cls-6" d="M143.41,64.55a15.79,15.79,0,0,0,6.88-.67c1.09-.38,2.38-.45,2.87,1.07a2.1,2.1,0,0,1-1.39,2.79,26.23,26.23,0,0,1-4.21,1.53c-4.07.94-5.21-.4-4.16-4.72Z"/><path class="cls-6" d="M152.37,74.57c-2.11-.76-5.88,1.51-6.19-1.86-.24-2.67,3.7-1.7,5.59-2.75a19.18,19.18,0,0,1,2.33-.74c1.23-.48,2.3-.43,2.85.92.64,1.54-.18,2.51-1.55,3.06-1,.4-2.35.07-3,1.33Z"/><path class="cls-6" d="M143.4,64.55c-1.26-.33-3.16,1.43-3.74-1-.42-1.73,1.21-2.12,2.34-2.75a4.74,4.74,0,0,1,1.36-.61c2.2-.44,5.53-1.89,6.26.41.84,2.63-2.83,2.12-4.58,2.91a13.78,13.78,0,0,0-1.63,1Z"/><path class="cls-6" d="M152.41,74.53l6.07.51c-2.44,2.72-5,5-7.61,3.75s1.88-2.4,1.5-4.22Z"/><path class="cls-5" d="M174.39,69.55c-8.25-.94-11-7-12.85-13.85,1.08-.13,2.3.24,2.54,1.13C165.65,62.62,171,65.32,174.39,69.55Z"/><path class="cls-13" d="M237.47,70.4a1.07,1.07,0,0,1-.9-1.26Z"/><path class="cls-3" d="M242.37,228.41c-3.47.58-5.09-.69-5.41-4.38-.24-2.84-.7-6-4.06-7.37-1.17-.49-2.1-1.83-.85-2.73,3.78-2.72,2-5.88,1-8.93-.6-1.77-.74-3.23,1.72-4.63l-6.4-.93-.51-1.9c1.11-.21,2.53-.26,2.17-1.91s-1.77-1-2.84-1.17c-.24-3.37-2.49-6.44-1.51-10,3.82.59,5.26-1.15,4.72-4.83h3c-.22,4,2,5.32,5.51,4.41a26,26,0,0,1,6.25-.58l.21,15c-4.1,2.29-4,4.07.61,10q.28,3.34.55,6.7v1.58a.57.57,0,0,1-.09.7c-3.46,1.27-1.64,4.83-3,7C242,225.48,242.47,227,242.37,228.41Zm-3.11-19.16c.41-.55.85-.88.85-1.22s-.42-.71-.65-1.07c-.3.3-.8.56-.85.9S238.94,208.61,239.26,209.25Z"/><path class="cls-6" d="M253.08,227.45c-.43-2.6-1.71-4.74-2.66-7-1.6-3.87-.37-6.18,3.64-5.73,4.78.53,9.57.54,14.32,1,3.23.33,4.35,2,3.52,5.5-2,8.54-2.33,8.74-10,8.59-2.24,0-2.47-.61-2.6-2.3a7.8,7.8,0,0,0-1.63-4.61c-1.9.7-1.17,2.09-.9,3.27s1.11,2.47-.6,3.84c-1.34-2.12-.39-5-2.6-6.94Z"/><path class="cls-5" d="M243.36,224.42c1.39-2.17-.43-5.73,3-7,1.3,1.13,2.28,2.35,1.33,4.19a1.73,1.73,0,0,0,.82,1.87c.13.61.25,1.22.38,1.83C247,225.73,245.22,224.67,243.36,224.42Z"/><path class="cls-3" d="M243.36,224.42c1.86.25,3.59,1.31,5.56.89-.23,1.08-.45,2.16-.67,3.24l.08-.12h-6C242.47,227,242,225.48,243.36,224.42Z"/><path class="cls-2" d="M246.48,216.72v-1.58a4.08,4.08,0,0,0,.91.18A1.1,1.1,0,0,1,246.48,216.72Z"/><path class="cls-4" d="M248.54,223.48a1.73,1.73,0,0,1-.82-1.87A1.61,1.61,0,0,1,248.54,223.48Z"/><path class="cls-6" d="M234.17,83.44c-2.41.75,2.52,4.68-1.85,4.42-2.37-.14-3.41-1.73-2.76-4.15.26-.94.61-1.86.92-2.79C233.38,79.31,234.51,80.29,234.17,83.44Z"/><path class="cls-1" d="M103.5,41.26l1,.19C104,42.18,103.68,42,103.5,41.26Z"/><path class="cls-2" d="M245.11,183.47a26,26,0,0,0-6.25.58c-3.51.91-5.73-.37-5.51-4.41,2.66-.06,5.32-.21,8-.15C243.81,179.54,245.54,180.53,245.11,183.47Z"/><path class="cls-2" d="M230.38,179.64c.54,3.68-.9,5.42-4.72,4.83C224.4,180.1,226.15,178.66,230.38,179.64Z"/><path class="cls-2" d="M245.93,208.44c-4.6-5.93-4.71-7.71-.61-10C245.52,201.77,245.73,205.11,245.93,208.44Z"/><path class="cls-2" d="M227.17,194.46c1.07.12,2.51-.34,2.84,1.17s-1.06,1.7-2.17,1.91A4,4,0,0,1,227.17,194.46Z"/><path class="cls-14" d="M192.44,312.44c0-.44,0-.87.07-1.31C193,311.6,193,312,192.44,312.44Z"/><path class="cls-11" d="M270.38,248.35a1.87,1.87,0,0,1,1.38,1.6C270.65,250,270.45,249.23,270.38,248.35Z"/><path class="cls-11" d="M271.85,250.08l.66,1.27A.91.91,0,0,1,271.85,250.08Z"/><path class="cls-11" d="M274,253.91l.19,1.52A1.07,1.07,0,0,1,274,253.91Z"/><path class="cls-10" d="M245.69,228.42l2.64,0c.23,3-1.77,4.23-4,5.32C242.5,231.38,245.34,230.22,245.69,228.42Z"/><path class="cls-2" d="M239.26,209.25c-.32-.64-.7-1.05-.65-1.39s.55-.6.85-.9c.23.36.65.72.65,1.07S239.67,208.7,239.26,209.25Z"/><path class="cls-12" d="M177,109.09v-2.18c6.59-.87,9.27,1.6,8.73,8.08-1,11.39-.94,11.4,10.69,13.53a10.31,10.31,0,0,1,1.94.77c0,.87,0,1.74.08,2.6-3.83.55-7.37-.56-10.8-2-6.14-2.61-7.54-5.59-5.89-12.19C183.37,111.36,182.87,110.46,177,109.09Z"/><circle class="cls-11" cx="261.25" cy="258.16" r="16.56"/><path class="cls-15" d="M262.84,246.66a15.25,15.25,0,0,1,6.13.86c2.53,1,3.44,2.77,2.68,5.37a10.43,10.43,0,0,1-4.1,5.41,24.62,24.62,0,0,1-8,4,2.29,2.29,0,0,0-1.83,1.83c-.32,1.37-.22,3.07-1.28,4s-2.72.55-4.12.75c-2.67.38-2.69.36-1.89-2.24,1.84-6,3.72-12.06,5.54-18.1a2,2,0,0,1,1.89-1.66A47.37,47.37,0,0,1,262.84,246.66Zm1.83,7.21c0-.8-.68-1-1.3-1.1-.92-.15-2-.66-2.59.58a18.85,18.85,0,0,0-.8,2.37c-.21.67.07,1,.75.72a11.87,11.87,0,0,0,3.32-1.56A1.37,1.37,0,0,0,264.67,253.87Z"/><path class="cls-12" d="M229.75,232.59v-1.38c4.19-.56,5.89,1,5.55,5.13-.61,7.23-.6,7.24,6.8,8.59a6.44,6.44,0,0,1,1.23.49c0,.55,0,1.1,0,1.65a12.84,12.84,0,0,1-6.87-1.28c-3.9-1.66-4.79-3.55-3.74-7.74C233.77,234,233.45,233.46,229.75,232.59Z"/><path class="cls-6" d="M288.92,245.57c-.9,10.22.93,20.48-.58,30.69-2.76,4.82-7.73,2.87-11.75,3.82-11.25-.36-22.51-.66-33.77-.19-9.61.41-11.32-1.19-11.29-10.69a4,4,0,0,0,0-.49c-.33-8.77.59-17.55-.42-26.3a7.4,7.4,0,0,0,1.82-4.59c3.25-.37,6.59-.34,9.56-2l2,.27c4.8,1.56,9.73.51,14.6.68a73.75,73.75,0,0,0,17.94-.16l2.33.33a5.9,5.9,0,0,0,4.08,0l1.91.31Q287.14,241.42,288.92,245.57Zm-14.09,18.78c.39-.29,1-.51,1.14-.88,3.36-11.42-6-24.11-18.25-20.63-12.25,4.23-16.57,14-10.36,23.53h0a5,5,0,0,0,3.88,4.13l2.57,1.59c5.56,2.85,10.93,2.27,15.58-1.69l1.09-.89C272.94,268.65,273.23,265.94,274.83,264.35Z"/></g></g></svg>