<svg xmlns="http://www.w3.org/2000/svg" viewBox="0 0 121.66 159.89"><defs><style>.cls-1{fill:#3b4977;}</style></defs><g id="Capa_2" data-name="Capa 2"><g id="Capa_1-2" data-name="Capa 1"><path class="cls-1" d="M25.5,155H74.27c9.83,0,19.66-.09,29.49,0,4.13,0,8-.28,11-3.58,1-1.07,2.22-1.64,3.44-.32s.73,2.5-.18,3.6a13.82,13.82,0,0,1-11,5.1c-30.66.05-61.32.14-92,0C5.82,159.71.25,153.53.1,143.87c-.17-10.5,0-21,0-31.49,0-22.5.09-45,0-67.5A12.77,12.77,0,0,1,4.56,34.42C15.83,24.28,27.13,14.14,38,3.53,43.48-1.9,49.78.71,55.83.19c.94-.08,1.35.85,1.45,1.72a1.85,1.85,0,0,1-1.13,2,10.13,10.13,0,0,1-2.91.54c-7.56.53-7.56.52-7.56,8.37v14c0,12.26-3,15.2-15.45,15.22-6.84,0-13.67.17-20.5-.06-3.56-.12-5,.75-4.95,4.67.15,32.32.06,64.65.11,97,0,6.88,4.17,11.44,10,11.3,5.34-.12,8.7-4.37,8.8-11.2.05-3.83,0-7.66,0-11.5.08-7.78,3.14-10.88,11-10.9,21.5,0,43-.15,64.49.09,4.58,0,5.83-1.21,5.81-5.81q-.28-52.74,0-105.49c0-4.81-1.61-5.85-6-5.73-9.83.27-19.66.08-29.5.08-1.16,0-2.33,0-3.49-.06-1.52-.11-3.2-.29-3.22-2.32,0-2.21,1.75-2,3.24-2.06,7,0,14,0,21,0,5.33,0,10.66.11,16,0,4.73-.14,6.66,2.26,6.71,6.67,0,1.34,0,2.67,0,4q0,52.5-.06,105c0,3.52,0,6,4.65,6.07a6.78,6.78,0,0,1,6.31,5c1.71,5.52.85,11.24.65,16.87a2.1,2.1,0,0,1-2.35,2.1c-1.65-.16-2.17-1.36-2.18-2.83,0-3.67-.1-7.34,0-11,.07-4-1.75-5.73-5.76-5.72q-38.23.09-76.49,0c-4.27,0-5.89,1.79-6,6C28.21,139.52,30,147.16,25.5,155ZM10.08,36l.57,1.21c8.13,0,16.27,0,24.41,0,2.78,0,5.3-1.53,5.42-4.24.34-8,.12-16,.12-25.11Z"/><path class="cls-1" d="M54.46,51.22c-12,0-23.95,0-35.93,0-1.87,0-4.64.6-4.53-2.36.1-2.68,2.73-2.4,4.7-2.4q36.18,0,72.36,0c1.94,0,4.59-.27,4.51,2.54s-2.85,2.19-4.68,2.2C78.74,51.26,66.6,51.22,54.46,51.22Z"/><path class="cls-1" d="M54.83,96.73H19.91a25,25,0,0,1-4-.22,2.17,2.17,0,0,1-.07-4.32,29.31,29.31,0,0,1,4-.18H89.69c.66,0,1.33,0,2,0,1.79.12,4.1-.16,3.94,2.53-.14,2.22-2.25,2.15-3.88,2.15-12.3,0-24.61,0-36.91,0Z"/><path class="cls-1" d="M54.27,81.51c-11.84,0-23.67,0-35.5,0-1.85,0-4.65.66-4.74-2.19s2.67-2.4,4.56-2.41q36.24,0,72.49,0c1.86,0,4.66-.51,4.48,2.47s-3,2.11-4.8,2.12C78.6,81.54,66.43,81.51,54.27,81.51Z"/><path class="cls-1" d="M66.27,107.1c8.33,0,16.67,0,25,0,1.76,0,4.21-.39,4.32,2.15.14,3-2.5,2.61-4.41,2.61q-24.75.08-49.5,0c-1.87,0-4.16,0-4.13-2.47s2.39-2.32,4.22-2.33Q54,107.07,66.27,107.1Z"/><path class="cls-1" d="M42.93,66.33c-8.3,0-16.61,0-24.92,0-1.75,0-4.12.31-4-2.4.08-2.17,2.15-2.22,3.82-2.22q25.16,0,50.33,0c1.64,0,3.7,0,3.74,2.27.06,2.79-2.33,2.33-4,2.34C59.54,66.36,51.24,66.33,42.93,66.33Z"/><path class="cls-1" d="M74.87,36.14c-5.49,0-11,0-16.47,0-1.66,0-3.65.08-3.7-2.26s1.78-2.55,3.53-2.56q17,0,33.93,0c1.76,0,3.58.4,3.46,2.62s-2.14,2.18-3.79,2.19C86.18,36.17,80.52,36.15,74.87,36.14Z"/><path class="cls-1" d="M74.9,21.07c-5.32,0-10.65,0-16,0-1.77,0-4.09.31-4.2-2.3s2.1-2.56,4-2.56h33c1.87,0,4.08,0,4,2.56s-2.44,2.28-4.23,2.3C85.89,21.1,80.4,21.07,74.9,21.07Z"/><path class="cls-1" d="M23,107.14c2.15,0,4.3,0,6.45,0,1.48,0,2.63.69,2.68,2.3A2.14,2.14,0,0,1,30,111.73q-6.93.15-13.86,0a2.21,2.21,0,0,1-2.24-2.24c0-1.58,1.22-2.27,2.69-2.31,2.15-.06,4.3,0,6.44,0Z"/><path class="cls-1" d="M86.56,66.23c-2.31,0-4.62.06-6.93,0a2.17,2.17,0,1,1-.08-4.33q6.92-.15,13.84,0A2.11,2.11,0,0,1,95.66,64c0,1.76-1.28,2.18-2.66,2.24-2.14.09-4.29,0-6.44,0Z"/></g></g></svg>