<svg xmlns="http://www.w3.org/2000/svg" viewBox="0 0 101.76 160.03"><defs><style>.cls-1{fill:#3b4977;}</style></defs><g id="Capa_2" data-name="Capa 2"><g id="Capa_1-2" data-name="Capa 1"><path class="cls-1" d="M44,160c-9.83,0-19.66.07-29.49,0S-1.21,152.8.21,143.25Q5.07,110.39,9.9,77.53c1.37-9.32,6-13.21,15.48-13.47,1.95,0,5.17,1.35,5.58-1.49.48-3.31,2.14-7.39-1.43-10.09-1.85-1.41-1.75-3-1.77-4.84,0-3.33.1-6.67-.06-10-.1-1.9,1.09-4.55-2.48-4.93-3.18-.34-4.81.73-5.7,4C18.08,42,16.2,47.14,14.33,52.31,12.65,57,8.91,59.47,4.89,58.79,1.82,58.27.06,57,1.35,53.32,4.7,43.74,7.87,34.09,11,24.43c.85-2.6,2.32-3.69,5.11-3.64,7.16.14,14.33.07,21.49,0,1.25,0,3,.61,3.59-.93.76-2.12-1.51-1.58-2.47-2.17A3.26,3.26,0,0,1,37,15.4c-.47-3.35-1.72-5.64-5.59-6.3-2-.33-2.93-2.68-2.5-4.88S30.78.15,33.24.1Q44-.09,54.73.1C57.2.14,58.67,1.89,59,4.25c.42,2.65-.87,5.05-3.39,5.3-3.4.33-3.84,2.47-4.45,4.91-.27,1.11-.44,2.29-1.54,3s-3.24.33-2.75,2.18,2.53,1,3.93,1.14c1.66.11,3.34,0,5,.06a12.81,12.81,0,0,1,3.24.59c-.45,6.06,6.79,4.46,8.25,8.35.91,2.42-1.16,5.95,1.24,7.49,2.61,1.69,6.16.47,9.3.6,2.33.1,4.66,0,7,0,.85,0,1.8-.19,1.76-1.26s-1-1.22-1.84-1.23c-2.83,0-5.66,0-8.49-.08-1.64-.06-3.73.05-3.62-2.34s2.18-2,3.81-2.2c4.12-.49,8.13.54,12.39-2,4.95-2.91,13.56,4.29,12.85,9.84-.21,1.67-.79,3.11-2.41,3.39-4.4.77-7.91,3.22-13.51,1.46s-13.55-3.79-19.45,2.09c-.58.58-1.87.46-2.84.64a20,20,0,0,0-2.32.43c.22,3.94-4.26,5.56-4.48,9.26-.46,7.93-.49,7.93,7.26,8.21S76.59,68.3,77.76,75.94q5.2,33.81,10,67.69c1.34,9.47-4.73,16.27-14.26,16.35C63.7,160.07,53.87,160,44,160ZM44,155.2c9.82,0,19.64.09,29.46,0,7-.08,10.32-4,9.65-10.93-.29-3-.84-5.93-1.28-8.89-2.88-19.42-5.72-38.84-8.66-58.25-.82-5.4-3.47-7.75-8.44-8.16-3.93-.32-8.74,1.68-11.58-1-3.06-2.94-.74-7.93-1.25-12-.15-1.25.32-3-1.58-3.11-4.15-.17-8.31-.1-12.47,0a1.6,1.6,0,0,0-1.72,1.47c-.16,3-1,6.21.35,8.85,1.07,2.13,4,.79,6,1,1.77.21,4.17-.23,4.23,2.31.06,3-2.57,2.47-4.47,2.49-6.16,0-12.32-.06-18.48.06-5.22.1-8.13,2.56-8.89,7.61C11.5,99,8.13,121.33,4.92,143.72,3.86,151.11,7.49,155.11,15,155.18,24.67,155.28,34.32,155.2,44,155.2Zm.37-129.75c-2.49,0-5,.16-7.47,0-3.51-.29-4.71,1.19-4.55,4.61a133.89,133.89,0,0,1,0,13.44c-.2,3.62,1.34,4.6,4.69,4.45,4.64-.22,9.3-.11,13.94,0,2.67.05,5,.11,4.82-3.71-.1-1.87,1.54-2.56,3.13-2.44C62.49,42,63,40,62.85,37.1s.35-5.84-4.14-5.43c-1.56.14-3.09-.7-3-2.6.2-3.39-1.78-3.77-4.42-3.64C49,25.53,46.67,25.45,44.35,25.45Zm-17,1.31C20.86,23.35,15.85,25,13.72,31.31c-1,3-2.06,5.95-3,9-1.29,4.35-3.43,8.47-3.94,13.24,2.75-.45,2.94-2.52,3.51-4.15C12,44.67,13.79,40,15,35.21c1.28-5.18,3.51-8.42,9.47-7.31C25.45,28.08,26.85,28.32,27.34,26.76ZM39,5.18c2.08,2.72-.28,8.06,5.06,8,5.13,0,3-5.34,5.21-8.07A33.35,33.35,0,0,0,39,5.18Zm57.8,31.47c-.27-2-2.1-1.9-3.41-2.24-1.5-.38-1.48,1-1.51,1.91,0,1.35-.11,2.88,2,2.55C95.12,38.66,96.47,38.35,96.75,36.65Z"/><path class="cls-1" d="M14.66,115.51a29.36,29.36,0,0,1,58.72-.44,29.36,29.36,0,1,1-58.72.44ZM44.1,90.7a24,24,0,0,0-18.23,7.86C24.71,99.77,24,101,26,102.13c1.34.78,2.42,1.11,3-.91.37-1.38,1.23-2.46,2.9-2,1.3.4,1.55,1.57,1.71,2.78s-.47,3,1,3.55c1.69.66,2-1.3,2.93-2.13,3.93-3.68,9-3.71,12.94-.06.91.85,1.29,2.77,2.92,2.25s1.11-2.21,1.19-3.5.36-2.84,2-2.94c2-.11,2.39,1.48,2.48,3.06.2,3.5-.22,6.82-4.15,8.14-3.08,1-5.84,1-7.36-2.77A3.58,3.58,0,0,0,43,105.52a3.8,3.8,0,0,0-3,3c-.41,2.25,1.67,2.64,3,3.43,6.59,3.88,13.34,7.5,19.81,11.57,3.64,2.29,4.44.51,5.18-2.54A24.59,24.59,0,0,0,44.1,90.7ZM33.16,111.8C30,109.94,27,108.23,24,106.48c-2-1.16-3-.55-3.61,1.56a24.5,24.5,0,0,0-.67,11.37c1.7,9.73,7.46,16.31,16.73,19.33,9.54,3.12,18.06.69,25.21-6.33,1.08-1.06,2.9-2.22.45-3.9-1.92-1.31-2.88-1.07-3.36,1.32A1.9,1.9,0,0,1,56,131.16c-1.64-.6-1.46-2-1.28-3.36.16-1.2,2.38-2.29,0-3.61C50,121.56,45.3,118.8,40.41,116c-1.29,7.5-.71,8.32,6,8.87,1.27.1,2.38.3,2.64,1.7s-.57,2.18-1.75,2.68c-3.65,1.54-6.78.61-9.64-1.93-.94-.83-1.26-2.73-2.9-2.35s-1.06,2.18-1.2,3.4C33.35,130,33,131.48,31,131.3s-2-1.81-2.2-3.37c-.59-4.67,2.39-7.1,6-9.06-1.82-2.15-5.44-.11-6-3.26C28.31,112.77,31.53,113.45,33.16,111.8Z"/><path class="cls-1" d="M59.31,115.49c-.54,1.81-1.91,2.18-3.51,2.09s-2.6-.86-2.38-2.5c.26-1.89,1.75-2.25,3.36-2.08A2.48,2.48,0,0,1,59.31,115.49Z"/></g></g></svg>