<svg xmlns="http://www.w3.org/2000/svg" xmlns:xlink="http://www.w3.org/1999/xlink" viewBox="0 0 587.88 704.88"><defs><style>.cls-1{fill:url(#linear-gradient);}.cls-2{fill:#fff;}.cls-3{fill:url(#linear-gradient-2);}.cls-4{fill:url(#_6);}.cls-5{fill:url(#linear-gradient-3);}.cls-6{fill:url(#linear-gradient-4);}.cls-7{fill:url(#linear-gradient-5);}.cls-8{fill:url(#linear-gradient-6);}.cls-9{fill:url(#linear-gradient-7);}.cls-10{fill:url(#linear-gradient-8);}.cls-11{fill:url(#linear-gradient-9);}.cls-12{fill:url(#linear-gradient-10);}.cls-13{fill:url(#linear-gradient-11);}.cls-14{fill:url(#linear-gradient-12);}.cls-15{fill:url(#linear-gradient-13);}.cls-16{fill:url(#linear-gradient-14);}.cls-17{fill:url(#linear-gradient-15);}.cls-18{fill:url(#linear-gradient-16);}.cls-19{fill:url(#linear-gradient-17);}.cls-20{fill:url(#linear-gradient-18);}.cls-21{fill:url(#linear-gradient-19);}.cls-22{fill:url(#linear-gradient-20);}.cls-23{fill:url(#linear-gradient-21);}.cls-24{fill:url(#linear-gradient-22);}</style><linearGradient id="linear-gradient" x1="179.14" y1="389.46" x2="741.72" y2="3.09" gradientUnits="userSpaceOnUse"><stop offset="0" stop-color="#6547cb"/><stop offset="1" stop-color="#24486d"/></linearGradient><linearGradient id="linear-gradient-2" x1="111.94" y1="295.62" x2="464.45" y2="295.62" gradientTransform="translate(293.44 -117.2) rotate(45)" xlink:href="#linear-gradient"/><linearGradient id="_6" x1="367.06" y1="88.15" x2="224.1" y2="464.24" gradientTransform="translate(293.44 -117.2) rotate(45)" gradientUnits="userSpaceOnUse"><stop offset="0" stop-color="#fdf53f"/><stop offset="0.62" stop-color="#e78357"/><stop offset="1" stop-color="#d93c65"/></linearGradient><linearGradient id="linear-gradient-3" x1="441.19" y1="277.39" x2="447.07" y2="277.39" xlink:href="#linear-gradient"/><linearGradient id="linear-gradient-4" x1="258.02" y1="181.58" x2="430.5" y2="181.58" xlink:href="#linear-gradient"/><linearGradient id="linear-gradient-5" x1="140.26" y1="299.33" x2="428.7" y2="299.33" gradientTransform="translate(294.98 -113.49) rotate(45)" xlink:href="#linear-gradient"/><linearGradient id="linear-gradient-6" x1="67.32" y1="116.33" x2="391.81" y2="455.82" gradientUnits="userSpaceOnUse"><stop offset="0" stop-color="#97654c"/><stop offset="1" stop-color="#821500"/></linearGradient><linearGradient id="linear-gradient-7" x1="12.16" y1="169.04" x2="336.65" y2="508.54" xlink:href="#linear-gradient-6"/><linearGradient id="linear-gradient-8" x1="67.99" y1="115.68" x2="392.48" y2="455.18" xlink:href="#linear-gradient-6"/><linearGradient id="linear-gradient-9" x1="56.45" y1="126.71" x2="380.94" y2="466.21" xlink:href="#linear-gradient-6"/><linearGradient id="linear-gradient-10" x1="-18.02" y1="197.88" x2="306.47" y2="537.38" xlink:href="#linear-gradient-6"/><linearGradient id="linear-gradient-11" x1="-355.3" y1="789.54" x2="-30.82" y2="1129.02" gradientTransform="translate(416.82 -667.99)" xlink:href="#linear-gradient-6"/><linearGradient id="linear-gradient-12" x1="240.76" y1="-407.75" x2="565.25" y2="-68.25" gradientTransform="translate(-227.87 479.27) rotate(9.03)" xlink:href="#linear-gradient-6"/><linearGradient id="linear-gradient-13" x1="-160.19" y1="480.74" x2="164.29" y2="820.24" gradientTransform="translate(95.74 -284.52) rotate(-5.01)" xlink:href="#linear-gradient-6"/><linearGradient id="linear-gradient-14" x1="-713.5" y1="1223.6" x2="-389" y2="1563.11" gradientTransform="translate(211.45 -1104.59) rotate(-18.64)" xlink:href="#linear-gradient-6"/><linearGradient id="linear-gradient-15" x1="-55.21" y1="287.55" x2="269.28" y2="627.06" gradientTransform="translate(35.19 -92.98) rotate(-1.75)" xlink:href="#linear-gradient-6"/><linearGradient id="linear-gradient-16" x1="166.54" y1="-245.35" x2="491.03" y2="94.15" gradientTransform="translate(-162.44 382.72) rotate(6.69)" xlink:href="#linear-gradient-6"/><linearGradient id="linear-gradient-17" x1="-177.02" y1="502.3" x2="147.48" y2="841.81" gradientTransform="matrix(1, -0.09, 0.09, 1, 97.67, -294.86)" xlink:href="#linear-gradient-6"/><linearGradient id="linear-gradient-18" x1="-662.73" y1="1170.16" x2="-338.23" y2="1509.67" gradientTransform="translate(208.78 -1050.84) rotate(-17.79)" xlink:href="#linear-gradient-6"/><linearGradient id="linear-gradient-19" x1="-267.9" y1="647.49" x2="56.59" y2="986.99" gradientTransform="translate(140.74 -449.34) rotate(-7.48)" xlink:href="#linear-gradient-6"/><linearGradient id="linear-gradient-20" x1="-53.73" y1="254.78" x2="270.77" y2="594.29" gradientTransform="matrix(1, -0.01, 0.01, 1, 27.82, -53.37)" xlink:href="#linear-gradient-6"/><linearGradient id="linear-gradient-21" x1="5.94" y1="174.99" x2="330.43" y2="514.49" xlink:href="#linear-gradient-6"/><linearGradient id="linear-gradient-22" x1="364.16" y1="87.05" x2="221.2" y2="463.15" gradientUnits="userSpaceOnUse"><stop offset="0" stop-color="#fdf53f"/><stop offset="1" stop-color="#d93c65"/></linearGradient></defs><g id="Capa_2" data-name="Capa 2"><g id="Capa_1-2" data-name="Capa 1"><path class="cls-1" d="M6.42,109.16a20.28,20.28,0,0,1,15.67-5.4C83.65,109.3,198.51,79.65,273.57,2.84,278.78-2.49,288.28.52,294.26,5,377.74,67.38,516.13,80.3,564.17,83a20.26,20.26,0,0,1,19,18.15c43.69,421.94-231,574.84-288,601.83a20.35,20.35,0,0,1-19.42-1.12C-8.21,524.93,3.93,294.89,0,124.45A20.26,20.26,0,0,1,6.42,109.16Z"/><path class="cls-2" d="M287.49,671.73a6.19,6.19,0,0,1-3.34-1C175.39,601.23,104.5,518.11,67.45,416.67,34.34,326.05,32.72,233.73,31.29,152.28c-.06-3.64-.13-7.26-.19-10.86A6.09,6.09,0,0,1,32.85,137a6.17,6.17,0,0,1,4.44-1.86h0c35.81,0,78.14-8.31,119.26-23.41,47.09-17.3,90-42.54,124-73a6.17,6.17,0,0,1,7.53-.54c35,23.25,115.46,63.86,260.23,74.53a6.16,6.16,0,0,1,5.69,5.62c14.42,164.5-19.79,303.59-101.67,413.41-61.15,82-133.66,124.74-162,139.3h0A6.16,6.16,0,0,1,287.49,671.73ZM37.35,136.8A4.6,4.6,0,0,0,34,138.16a4.48,4.48,0,0,0-1.28,3.23c.06,3.6.13,7.22.19,10.87C34.37,233.57,36,325.74,69,416.11,105.92,517.2,176.59,600,285,669.36a4.52,4.52,0,0,0,4.51.22h0C317.78,655.07,390,612.5,451,530.76,532.6,421.28,566.7,282.57,552.32,118.49a4.5,4.5,0,0,0-4.17-4.12c-29.35-2.16-74.38-7.14-122.22-18.55C370,82.48,323.28,63.55,287.12,39.56a4.51,4.51,0,0,0-5.51.4c-34.16,30.61-77.21,56-124.5,73.33C115.82,128.45,73.28,136.8,37.35,136.8Z"/><circle class="cls-3" cx="288.19" cy="295.62" r="176.26" transform="translate(-124.62 290.37) rotate(-45)"/><circle class="cls-4" cx="288.19" cy="295.62" r="170.4" transform="translate(-124.62 290.37) rotate(-45)"/><path class="cls-5" d="M445.27,289.07h.1a1.8,1.8,0,0,0,1.7-1.89,160.58,160.58,0,0,0-2.31-20,1.8,1.8,0,1,0-3.54.64,159.06,159.06,0,0,1,2.26,19.53A1.79,1.79,0,0,0,445.27,289.07Z"/><path class="cls-6" d="M428.7,226.64a1.81,1.81,0,0,0,1.61-2.61,158.44,158.44,0,0,0-142.12-87.51,160.06,160.06,0,0,0-28.7,2.59,1.8,1.8,0,0,0,.65,3.54,156.49,156.49,0,0,1,28.05-2.53,154.83,154.83,0,0,1,138.9,85.53A1.82,1.82,0,0,0,428.7,226.64Z"/><circle class="cls-7" cx="284.48" cy="299.33" r="144.22" transform="translate(-128.34 288.83) rotate(-45)"/><path class="cls-8" d="M408.33,355.79c-11.39-56.33-2.51-154-185.39-152.16-27.06-2.72-54.52.74-81.58,4.21-41.47,5.32-68.83,39.28-98,65.57A3.35,3.35,0,0,0,44.3,279c12.55,5.49,27.1,7.93,43.51,7.53l-15.24,4.32a2.51,2.51,0,0,0,.48,4.91c20.23,1.68,53.76-5.57,88.81-11.51,38,57.83,80.52,112.46,114,127C338.46,430.58,409.08,412.72,408.33,355.79Z"/><path class="cls-9" d="M382.82,390.5c6.85,36.27,6,95.9-36.24,111.27-12.36,4.49-26.12,3.3-38.88.08s-24.95-8.36-37.66-11.77c-15.3-4.11-31.45-4.59-46.7,0-14.08,4.28-26.58,12.49-37.44,22.29a174.37,174.37,0,0,0-13.1,13.26c-2.14,2.39-4.22,4.84-6.26,7.32-.74.9-5.91,6.37-5.56,7.06.53,1,3.43-2.76,4-3.31q2.31-2.41,4.72-4.74,4.82-4.62,10-8.76a129.63,129.63,0,0,1,22.86-14.42q1.62-.81,3.27-1.56c28.38-13,54-3.58,81.75,7.14,36.51,14.11,74,18.25,99.38-17.25,11.21-15.68,17-34.56,21.27-53.36,4.64-20.5,6.2-52.8.11-73.34-3.54-11.92-5.21,2.33-13.23,8.48C393,380.55,382.24,387.2,382.82,390.5Z"/><path class="cls-10" d="M137.49,212.09c2.42-43.13,42.78-24.15,19.67,0Z"/><path class="cls-11" d="M121.62,218C133,181,159.57,193.8,141.29,218Z"/><path class="cls-12" d="M58,280.75a26.19,26.19,0,0,0,7.53,9.86.52.52,0,0,0,.84-.5c-.57-3.25-.85-6.45.25-9.36Z"/><ellipse class="cls-13" cx="308.85" cy="380.4" rx="41.75" ry="43.99" transform="translate(-70.68 70.48) rotate(-11.69)"/><path class="cls-14" d="M270.69,399.89c9.72,5.93-.18,9.91,36.5,28.41a2.14,2.14,0,0,1-.85,4.06c-21.75,1.15-43.47,2.3-53.81,7.72-10.34,3.88-4.48,15,15.25,13.95,22,.3,46.48-11.89,69.31-17.51a4.29,4.29,0,0,0,2.86-6c-4.53-9.47-5.95-13.79-4.54-19.82Z"/><path class="cls-15" d="M259.22,450.52a13.78,13.78,0,0,0-5.94,6.45.84.84,0,0,0,1.21,1.06c3.82-2.43,9.37-4.31,12.47-4Z"/><path class="cls-16" d="M251.74,448.53a13.73,13.73,0,0,0-4.25,7.68.84.84,0,0,0,1.43.74c3.13-3.26,6.26-5.74,9.35-6.14Z"/><path class="cls-17" d="M248.3,445.65a12.81,12.81,0,0,0-5.84,5.67.78.78,0,0,0,1.07,1c3.66-2,5.35-4.31,8.21-3.83Z"/><path class="cls-18" d="M249.91,441.56a11.88,11.88,0,0,0-6.19,4.45.72.72,0,0,0,.84,1.11c3.68-1.39,5.56-3.26,8.14-2.42Z"/><path class="cls-19" d="M154.61,381.66c-2.47,1.47-4.39,3.17-5.18,4.95a.64.64,0,0,0,.94.79c2.56-1.64,6.24-3.56,8.7-3.8a.16.16,0,0,0,0-.32Z"/><path class="cls-20" d="M151.35,379.17a9.13,9.13,0,0,0-3.59,5.67.64.64,0,0,0,1.08.58c2.43-2.45,3.51-3.82,5.79-4.42Z"/><path class="cls-21" d="M149.77,376.62a9.8,9.8,0,0,0-4,4.75.59.59,0,0,0,.89.71c2.63-1.83,3.74-3.68,5.95-3.53Z"/><path class="cls-22" d="M148.88,373.84a9.14,9.14,0,0,0-4.25,4,.56.56,0,0,0,.75.76c2.64-1.41,3.88-3,5.92-2.62Z"/><path class="cls-23" d="M164.28,287.87c9.22,28.32,18.88,53.14,23.88,66,.93,2.36-1.09,4.92-3.55,5.54-16.11,4-29,8.09-36.26,14.8-.42,3.23,2.89,5.88,7.73,9a4,4,0,0,0,4.79-.32c7.59-6.58,25.68-10.4,44.76-16.28a5,5,0,0,0,3.38-3.44c1.47-5.28,1-11.47-1-18.33Z"/><polygon class="cls-24" points="357.27 432.76 375.64 420.17 207.44 171.92 188.32 186.34 357.27 432.76"/></g></g></svg>