<?xml version="1.0" encoding="utf-8"?>
<!-- Generator: Adobe Illustrator 25.2.0, SVG Export Plug-In . SVG Version: 6.00 Build 0)  -->
<svg version="1.1" id="Capa_1" xmlns="http://www.w3.org/2000/svg" xmlns:xlink="http://www.w3.org/1999/xlink" x="0px" y="0px"
	 viewBox="0 0 587.9 704.9" style="enable-background:new 0 0 587.9 704.9;" xml:space="preserve">
<style type="text/css">
	.st0{opacity:0.7;fill:url(#SVGID_1_);}
	.st1{fill:#FFFFFF;}
	.st2{opacity:0.7;fill:url(#SVGID_2_);}
	.st3{fill:url(#SVGID_3_);}
	.st4{fill:url(#SVGID_4_);}
	.st5{fill:url(#SVGID_5_);}
	.st6{opacity:0.7;fill:url(#SVGID_6_);}
	.st7{opacity:0.7;fill:url(#SVGID_7_);}
	.st8{opacity:0.7;fill:url(#SVGID_8_);}
	.st9{opacity:0.7;fill:url(#SVGID_9_);}
	.st10{fill:url(#SVGID_10_);}
	.st11{opacity:0.7;fill:url(#SVGID_11_);}
	.st12{opacity:0.7;fill:url(#SVGID_12_);}
	.st13{opacity:0.7;fill:url(#SVGID_13_);}
	.st14{fill:url(#SVGID_14_);}
	.st15{fill:url(#SVGID_15_);}
	.st16{fill:url(#SVGID_16_);}
	.st17{fill:url(#SVGID_17_);}
	.st18{fill:url(#SVGID_18_);}
	.st19{fill:url(#SVGID_19_);}
	.st20{fill:url(#SVGID_20_);}
	.st21{fill:url(#SVGID_21_);}
	.st22{opacity:0.7;fill:url(#SVGID_22_);}
	.st23{fill:url(#SVGID_23_);}
</style>
<g id="Capa_2_1_">
	<g id="Capa_1-2">
		
			<linearGradient id="SVGID_1_" gradientUnits="userSpaceOnUse" x1="179.1525" y1="316.4118" x2="741.7325" y2="702.7819" gradientTransform="matrix(1 0 0 -1 0 705.89)">
			<stop  offset="0" style="stop-color:#6547CB"/>
			<stop  offset="1" style="stop-color:#24486D"/>
		</linearGradient>
		<path class="st0" d="M6.4,109.2c4.2-3.9,9.9-5.9,15.7-5.4c61.6,5.5,176.4-24.1,251.5-100.9c5.2-5.3,14.7-2.3,20.7,2.2
			c83.5,62.4,221.9,75.3,269.9,78c9.9,0.6,18,8.3,19,18.2c43.7,421.9-231,574.8-288,601.8c-6.2,2.9-13.6,2.5-19.4-1.1
			C-8.2,524.9,3.9,294.9,0,124.4C-0.1,118.7,2.2,113.1,6.4,109.2z"/>
		<path class="st1" d="M287.5,671.7c-1.2,0-2.3-0.4-3.3-1C175.4,601.2,104.5,518.1,67.4,416.7C34.3,326,32.7,233.7,31.3,152.3
			c-0.1-3.6-0.1-7.3-0.2-10.9c0-1.6,0.6-3.2,1.7-4.4c1.2-1.2,2.8-1.9,4.4-1.9l0,0c35.8,0,78.1-8.3,119.3-23.4
			c47.1-17.3,90-42.5,124-73c2.1-1.9,5.2-2.1,7.5-0.5c35,23.2,115.5,63.9,260.2,74.5c3,0.2,5.4,2.6,5.7,5.6
			c14.4,164.5-19.8,303.6-101.7,413.4c-61.1,82-133.7,124.7-162,139.3l0,0C289.5,671.5,288.5,671.7,287.5,671.7z M37.3,136.8
			c-1.3,0-2.5,0.5-3.3,1.4c-0.8,0.9-1.3,2-1.3,3.2c0.1,3.6,0.1,7.2,0.2,10.9C34.4,233.6,36,325.7,69,416.1
			C105.9,517.2,176.6,600,285,669.4c1.4,0.9,3.1,1,4.5,0.2l0,0C317.8,655.1,390,612.5,451,530.8c81.6-109.5,115.7-248.2,101.3-412.3
			c-0.2-2.2-2-4-4.2-4.1c-29.3-2.2-74.4-7.1-122.2-18.6C370,82.5,323.3,63.5,287.1,39.6c-1.7-1.1-4-1-5.5,0.4
			c-34.2,30.6-77.2,56-124.5,73.3C115.8,128.4,73.3,136.8,37.3,136.8z"/>
		
			<linearGradient id="SVGID_2_" gradientUnits="userSpaceOnUse" x1="111.9355" y1="410.2699" x2="464.4555" y2="410.2699" gradientTransform="matrix(1 0 0 -1 4.981212e-04 705.8937)">
			<stop  offset="0" style="stop-color:#6547CB"/>
			<stop  offset="1" style="stop-color:#24486D"/>
		</linearGradient>
		<circle class="st2" cx="288.2" cy="295.6" r="176.3"/>
		
			<linearGradient id="SVGID_3_" gradientUnits="userSpaceOnUse" x1="367.0595" y1="617.7402" x2="224.0995" y2="241.6502" gradientTransform="matrix(1 0 0 -1 4.981212e-04 705.8937)">
			<stop  offset="0" style="stop-color:#FDF53F"/>
			<stop  offset="0.62" style="stop-color:#E78357"/>
			<stop  offset="1" style="stop-color:#D93C65"/>
		</linearGradient>
		<circle class="st3" cx="288.2" cy="295.6" r="170.4"/>
		
			<linearGradient id="SVGID_4_" gradientUnits="userSpaceOnUse" x1="441.19" y1="428.5388" x2="447.07" y2="428.5388" gradientTransform="matrix(1 0 0 -1 0 705.89)">
			<stop  offset="0" style="stop-color:#6547CB"/>
			<stop  offset="1" style="stop-color:#24486D"/>
		</linearGradient>
		<path class="st4" d="M445.3,289.1h0.1c1-0.1,1.8-0.9,1.7-1.9c-0.4-6.7-1.1-13.4-2.3-20c-0.1-1-1.1-1.7-2-1.5c-1,0.1-1.7,1.1-1.5,2
			c0,0,0,0.1,0,0.1c1.2,6.5,1.9,13,2.3,19.5C443.5,288.3,444.3,289.1,445.3,289.1z"/>
		
			<linearGradient id="SVGID_5_" gradientUnits="userSpaceOnUse" x1="258.0526" y1="524.3103" x2="430.4964" y2="524.3103" gradientTransform="matrix(1 0 0 -1 0 705.89)">
			<stop  offset="0" style="stop-color:#6547CB"/>
			<stop  offset="1" style="stop-color:#24486D"/>
		</linearGradient>
		<path class="st5" d="M428.7,226.6c1,0,1.8-0.8,1.8-1.8c0-0.3-0.1-0.5-0.2-0.8c-26.9-53.8-82-87.7-142.1-87.5
			c-9.6,0-19.2,0.9-28.7,2.6c-1,0.2-1.6,1.2-1.4,2.1c0.2,0.9,1.1,1.6,2.1,1.4c9.3-1.7,18.6-2.5,28-2.5c58.8-0.2,112.6,33,138.9,85.5
			C427.4,226.3,428,226.6,428.7,226.6z"/>
		
			<linearGradient id="SVGID_6_" gradientUnits="userSpaceOnUse" x1="140.2632" y1="406.5576" x2="428.7032" y2="406.5576" gradientTransform="matrix(1 0 0 -1 -7.179538e-03 705.8881)">
			<stop  offset="0" style="stop-color:#6547CB"/>
			<stop  offset="1" style="stop-color:#24486D"/>
		</linearGradient>
		<circle class="st6" cx="284.5" cy="299.3" r="144.2"/>
		
			<linearGradient id="SVGID_7_" gradientUnits="userSpaceOnUse" x1="67.3006" y1="589.5414" x2="391.7906" y2="250.0515" gradientTransform="matrix(1 0 0 -1 0 705.89)">
			<stop  offset="0" style="stop-color:#97654C"/>
			<stop  offset="1" style="stop-color:#821500"/>
		</linearGradient>
		<path class="st7" d="M408.3,355.8c-11.4-56.3-2.5-154-185.4-152.2c-27.1-2.7-54.5,0.7-81.6,4.2c-41.5,5.3-68.8,39.3-98,65.6
			c-1.4,1.2-1.5,3.3-0.3,4.7c0.3,0.4,0.7,0.7,1.2,0.9c12.5,5.5,27.1,7.9,43.5,7.5l-15.2,4.3c-1.3,0.4-2.1,1.8-1.7,3.1
			c0.3,1,1.2,1.7,2.2,1.8c20.2,1.7,53.8-5.6,88.8-11.5c38,57.8,80.5,112.5,114,127C338.5,430.6,409.1,412.7,408.3,355.8z"/>
		
			<linearGradient id="SVGID_8_" gradientUnits="userSpaceOnUse" x1="12.1816" y1="536.8706" x2="336.6716" y2="197.3706" gradientTransform="matrix(1 0 0 -1 0 705.89)">
			<stop  offset="0" style="stop-color:#97654C"/>
			<stop  offset="1" style="stop-color:#821500"/>
		</linearGradient>
		<path class="st8" d="M382.8,390.5c6.9,36.3,6,95.9-36.2,111.3c-12.4,4.5-26.1,3.3-38.9,0.1s-25-8.4-37.7-11.8
			c-15.3-4.1-31.4-4.6-46.7,0c-14.1,4.3-26.6,12.5-37.4,22.3c-4.6,4.2-9,8.6-13.1,13.3c-2.1,2.4-4.2,4.8-6.3,7.3
			c-0.7,0.9-5.9,6.4-5.6,7.1c0.5,1,3.4-2.8,4-3.3c1.5-1.6,3.1-3.2,4.7-4.7c3.2-3.1,6.5-6,10-8.8c7.1-5.6,14.8-10.4,22.9-14.4
			c1.1-0.5,2.2-1.1,3.3-1.6c28.4-13,54-3.6,81.8,7.1c36.5,14.1,74,18.2,99.4-17.2c11.2-15.7,17-34.6,21.3-53.4
			c4.6-20.5,6.2-52.8,0.1-73.3c-3.5-11.9-5.2,2.3-13.2,8.5C393,380.5,382.2,387.2,382.8,390.5z"/>
		
			<linearGradient id="SVGID_9_" gradientUnits="userSpaceOnUse" x1="67.9877" y1="590.2078" x2="392.4777" y2="250.7078" gradientTransform="matrix(1 0 0 -1 0 705.89)">
			<stop  offset="0" style="stop-color:#97654C"/>
			<stop  offset="1" style="stop-color:#821500"/>
		</linearGradient>
		<path class="st9" d="M137.5,212.1c2.4-43.1,42.8-24.1,19.7,0H137.5z"/>
		
			<linearGradient id="SVGID_10_" gradientUnits="userSpaceOnUse" x1="56.4329" y1="579.1637" x2="380.9229" y2="239.6637" gradientTransform="matrix(1 0 0 -1 0 705.89)">
			<stop  offset="0" style="stop-color:#97654C"/>
			<stop  offset="1" style="stop-color:#821500"/>
		</linearGradient>
		<path class="st10" d="M121.6,218c11.4-37,38-24.2,19.7,0H121.6z"/>
		
			<linearGradient id="SVGID_11_" gradientUnits="userSpaceOnUse" x1="-18.0057" y1="508.0237" x2="306.4843" y2="168.5237" gradientTransform="matrix(1 0 0 -1 0 705.89)">
			<stop  offset="0" style="stop-color:#97654C"/>
			<stop  offset="1" style="stop-color:#821500"/>
		</linearGradient>
		<path class="st11" d="M58,280.8c1.7,3.8,4.3,7.2,7.5,9.9c0.2,0.2,0.5,0.1,0.7-0.1c0.1-0.1,0.1-0.3,0.1-0.4
			c-0.6-3.2-0.8-6.5,0.2-9.4H58z"/>
		
			<linearGradient id="SVGID_12_" gradientUnits="userSpaceOnUse" x1="-369.1833" y1="-82.8886" x2="-44.7033" y2="-422.3687" gradientTransform="matrix(0.9793 -0.2026 -0.2026 -0.9793 358.8893 21.121)">
			<stop  offset="0" style="stop-color:#97654C"/>
			<stop  offset="1" style="stop-color:#821500"/>
		</linearGradient>
		<path class="st12" d="M299.9,337.3c22.6-4.7,44.9,10.8,49.8,34.6c4.9,23.8-9.4,46.9-32,51.5s-44.9-10.8-49.8-34.6
			C263,365.1,277.3,342,299.9,337.3z"/>
		
			<linearGradient id="SVGID_13_" gradientUnits="userSpaceOnUse" x1="251.3975" y1="1114.9554" x2="575.8875" y2="775.4555" gradientTransform="matrix(0.9876 0.157 0.157 -0.9876 -349.3705 1176.0394)">
			<stop  offset="0" style="stop-color:#97654C"/>
			<stop  offset="1" style="stop-color:#821500"/>
		</linearGradient>
		<path class="st13" d="M270.7,399.9c9.7,5.9-0.2,9.9,36.5,28.4c1.1,0.5,1.5,1.8,1,2.9c-0.3,0.7-1,1.2-1.8,1.2
			c-21.8,1.1-43.5,2.3-53.8,7.7c-10.3,3.9-4.5,15,15.2,14c22,0.3,46.5-11.9,69.3-17.5c2.3-0.6,3.7-2.9,3.1-5.2
			c-0.1-0.3-0.2-0.6-0.3-0.8c-4.5-9.5-6-13.8-4.5-19.8L270.7,399.9z"/>
		
			<linearGradient id="SVGID_14_" gradientUnits="userSpaceOnUse" x1="-166.1" y1="225.186" x2="158.38" y2="-114.314" gradientTransform="matrix(0.9962 -8.732961e-02 -8.732961e-02 -0.9962 163.312 418.1513)">
			<stop  offset="0" style="stop-color:#97654C"/>
			<stop  offset="1" style="stop-color:#821500"/>
		</linearGradient>
		<path class="st14" d="M259.2,450.5c-2.6,1.4-4.7,3.7-5.9,6.5c-0.2,0.4,0,0.9,0.4,1.1c0.3,0.1,0.6,0.1,0.8-0.1
			c3.8-2.4,9.4-4.3,12.5-4L259.2,450.5z"/>
		
			<linearGradient id="SVGID_15_" gradientUnits="userSpaceOnUse" x1="-735.3439" y1="-515.0564" x2="-410.8439" y2="-854.5664" gradientTransform="matrix(0.9475 -0.3196 -0.3196 -0.9475 458.644 -440.2528)">
			<stop  offset="0" style="stop-color:#97654C"/>
			<stop  offset="1" style="stop-color:#821500"/>
		</linearGradient>
		<path class="st15" d="M251.7,448.5c-2.2,2-3.7,4.7-4.2,7.7c-0.1,0.5,0.2,0.9,0.7,1c0.3,0.1,0.6,0,0.8-0.2c3.1-3.3,6.3-5.7,9.3-6.1
			L251.7,448.5z"/>
		
			<linearGradient id="SVGID_16_" gradientUnits="userSpaceOnUse" x1="-57.2256" y1="418.3398" x2="267.2644" y2="78.8298" gradientTransform="matrix(0.9995 -3.053851e-02 -3.053851e-02 -0.9995 58.822 612.4574)">
			<stop  offset="0" style="stop-color:#97654C"/>
			<stop  offset="1" style="stop-color:#821500"/>
		</linearGradient>
		<path class="st16" d="M248.3,445.6c-2.5,1.2-4.6,3.2-5.8,5.7c-0.2,0.4,0,0.9,0.4,1c0.2,0.1,0.5,0.1,0.7,0c3.7-2,5.4-4.3,8.2-3.8
			L248.3,445.6z"/>
		
			<linearGradient id="SVGID_17_" gradientUnits="userSpaceOnUse" x1="174.4439" y1="952.0549" x2="498.9339" y2="612.5549" gradientTransform="matrix(0.9932 0.1165 0.1165 -0.9932 -252.6166 1083.6901)">
			<stop  offset="0" style="stop-color:#97654C"/>
			<stop  offset="1" style="stop-color:#821500"/>
		</linearGradient>
		<path class="st17" d="M249.9,441.6c-2.5,0.8-4.7,2.3-6.2,4.5c-0.2,0.3-0.2,0.8,0.1,1c0.2,0.2,0.5,0.2,0.7,0.1
			c3.7-1.4,5.6-3.3,8.1-2.4L249.9,441.6z"/>
		
			<linearGradient id="SVGID_18_" gradientUnits="userSpaceOnUse" x1="-181.5948" y1="205.3215" x2="142.9052" y2="-134.1886" gradientTransform="matrix(1 -9.000000e-02 -9.000000e-02 -1 167.3201 410.76)">
			<stop  offset="0" style="stop-color:#97654C"/>
			<stop  offset="1" style="stop-color:#821500"/>
		</linearGradient>
		<path class="st18" d="M154.6,381.7c-2.5,1.5-4.4,3.2-5.2,5c-0.1,0.3,0,0.7,0.3,0.8c0.2,0.1,0.4,0.1,0.6-0.1
			c2.6-1.6,6.2-3.6,8.7-3.8c0.1,0,0.2-0.1,0.2-0.2s-0.1-0.2-0.2-0.2L154.6,381.7z"/>
		
			<linearGradient id="SVGID_19_" gradientUnits="userSpaceOnUse" x1="-683.672" y1="-461.9566" x2="-359.172" y2="-801.4666" gradientTransform="matrix(0.9522 -0.3055 -0.3055 -0.9522 445.0825 -382.8719)">
			<stop  offset="0" style="stop-color:#97654C"/>
			<stop  offset="1" style="stop-color:#821500"/>
		</linearGradient>
		<path class="st19" d="M151.4,379.2c-1.9,1.4-3.2,3.4-3.6,5.7c-0.1,0.3,0.2,0.7,0.5,0.8c0.2,0,0.4,0,0.6-0.2
			c2.4-2.5,3.5-3.8,5.8-4.4L151.4,379.2z"/>
		
			<linearGradient id="SVGID_20_" gradientUnits="userSpaceOnUse" x1="-276.8079" y1="58.5593" x2="47.6821" y2="-280.9407" gradientTransform="matrix(0.9915 -0.1302 -0.1302 -0.9915 241.4596 249.5739)">
			<stop  offset="0" style="stop-color:#97654C"/>
			<stop  offset="1" style="stop-color:#821500"/>
		</linearGradient>
		<path class="st20" d="M149.8,376.6c-1.8,1.1-3.2,2.8-4,4.8c-0.1,0.3,0,0.6,0.3,0.8c0.2,0.1,0.4,0.1,0.6-0.1
			c2.6-1.8,3.7-3.7,5.9-3.5L149.8,376.6z"/>
		
			<linearGradient id="SVGID_21_" gradientUnits="userSpaceOnUse" x1="-54.1781" y1="451.3087" x2="270.3219" y2="111.7987" gradientTransform="matrix(1 -1.000000e-02 -1.000000e-02 -1 35.5589 652.49)">
			<stop  offset="0" style="stop-color:#97654C"/>
			<stop  offset="1" style="stop-color:#821500"/>
		</linearGradient>
		<path class="st21" d="M148.9,373.8c-1.8,0.8-3.3,2.2-4.2,4c-0.1,0.3,0,0.6,0.2,0.8c0.2,0.1,0.4,0.1,0.5,0c2.6-1.4,3.9-3,5.9-2.6
			L148.9,373.8z"/>
		
			<linearGradient id="SVGID_22_" gradientUnits="userSpaceOnUse" x1="5.9401" y1="530.9001" x2="330.4301" y2="191.4001" gradientTransform="matrix(1 0 0 -1 0 705.89)">
			<stop  offset="0" style="stop-color:#97654C"/>
			<stop  offset="1" style="stop-color:#821500"/>
		</linearGradient>
		<path class="st22" d="M164.3,287.9c9.2,28.3,18.9,53.1,23.9,66c0.9,2.4-1.1,4.9-3.6,5.5c-16.1,4-29,8.1-36.3,14.8
			c-0.4,3.2,2.9,5.9,7.7,9c1.5,1,3.4,0.8,4.8-0.3c7.6-6.6,25.7-10.4,44.8-16.3c1.6-0.5,2.9-1.8,3.4-3.4c1.5-5.3,1-11.5-1-18.3
			L164.3,287.9z"/>
		
			<linearGradient id="SVGID_23_" gradientUnits="userSpaceOnUse" x1="364.1618" y1="618.8393" x2="221.2018" y2="242.7393" gradientTransform="matrix(1 0 0 -1 0 705.89)">
			<stop  offset="0" style="stop-color:#FDF53F"/>
			<stop  offset="1" style="stop-color:#D93C65"/>
		</linearGradient>
		<polygon class="st23" points="357.3,432.8 375.6,420.2 207.4,171.9 188.3,186.3 		"/>
	</g>
</g>
</svg>
