<?xml version="1.0" encoding="utf-8"?>
<!-- Generator: Adobe Illustrator 25.2.0, SVG Export Plug-In . SVG Version: 6.00 Build 0)  -->
<svg version="1.1" id="Capa_1" xmlns="http://www.w3.org/2000/svg" xmlns:xlink="http://www.w3.org/1999/xlink" x="0px" y="0px"
	 viewBox="0 0 141 150.9" style="enable-background:new 0 0 141 150.9;" xml:space="preserve">
<style type="text/css">
	.st0{fill:#10AD53;}
</style>
<path class="st0" d="M120.8,27.8C108.2,15.2,91.3,8.2,73.5,8.2c-36.9,0-66.9,30-66.9,66.9c0,11.8,3.1,23.3,8.9,33.4L6,143.2
	l35.5-9.3c9.8,5.3,20.8,8.1,32,8.1h0c36.9,0,67.5-30,67.5-66.9C141,57.3,133.4,40.5,120.8,27.8L120.8,27.8z M73.5,130.8
	c-10,0-19.8-2.7-28.3-7.7l-2-1.2l-21,5.5l5.6-20.5l-1.3-2.1c-5.6-8.9-8.5-19.1-8.5-29.6c0-30.6,25-55.6,55.6-55.6
	c14.9,0,28.8,5.8,39.3,16.3s16.9,24.5,16.9,39.3C129.7,105.8,104.1,130.8,73.5,130.8L73.5,130.8z M104,89.1
	c-1.7-0.8-9.9-4.9-11.4-5.4c-1.5-0.6-2.7-0.8-3.8,0.8c-1.1,1.7-4.3,5.4-5.3,6.6c-1,1.1-2,1.3-3.6,0.4c-9.8-4.9-16.3-8.8-22.8-19.9
	c-1.7-3,1.7-2.7,4.9-9.1c0.5-1.1,0.3-2.1-0.2-2.9c-0.4-0.8-3.8-9.1-5.2-12.4c-1.4-3.3-2.7-2.8-3.8-2.9c-1-0.1-2.1-0.1-3.2-0.1
	c-1.1,0-2.9,0.4-4.5,2.1c-1.5,1.7-5.8,5.7-5.8,14c0,8.2,6,16.2,6.8,17.3c0.8,1.1,11.8,18,28.6,25.3c10.6,4.6,14.8,5,20.1,4.2
	c3.2-0.5,9.9-4,11.3-8c1.4-3.9,1.4-7.3,1-8C106.7,90.4,105.6,90,104,89.1z"/>
</svg>
