<?xml version="1.0" encoding="utf-8"?>
<!-- Generator: Adobe Illustrator 24.2.0, SVG Export Plug-In . SVG Version: 6.00 Build 0)  -->
<svg version="1.1" id="Capa_1" xmlns="http://www.w3.org/2000/svg" xmlns:xlink="http://www.w3.org/1999/xlink" x="0px" y="0px"
	 viewBox="0 0 500 500" style="enable-background:new 0 0 500 500;" xml:space="preserve">
<style type="text/css">
	.st0{fill:#F5F5F5;}
	.st1{fill:#FFFFFF;}
	.st2{opacity:0.2;fill:#1A237E;enable-background:new    ;}
	.st3{fill:#1A237E;}
	.st4{opacity:0.8;fill:#FFFFFF;enable-background:new    ;}
	.st5{opacity:0.6;fill:#FFFFFF;enable-background:new    ;}
	.st6{fill:#263238;}
	.st7{fill:#A02724;}
	.st8{fill:#B55B52;}
	.st9{opacity:0.5;fill:#FFFFFF;enable-background:new    ;}
	.st10{opacity:0.7;fill:#FFFFFF;enable-background:new    ;}
	.st11{opacity:0.5;}
	.st12{opacity:0.1;enable-background:new    ;}
	.st13{opacity:0.2;fill:#FFFFFF;enable-background:new    ;}
</style>
<g id="freepik--Shadow--inject-1">
	<ellipse id="freepik--path--inject-1" class="st0" cx="250" cy="416.2" rx="193.9" ry="11.3"/>
</g>
<path class="st1" d="M281.4,134.9c13.5-11.5,3-28.5,22.8-42.5s61.3-8.4,67,15.5s42.8,32.5,52.2,68.1s-20.6,58.4-4.8,80.9
	s25.1,55.1-17.4,68s-88-8.5-86.4-57.6s-24.9-43.7-37.8-74C263.9,162.3,306,144.5,281.4,134.9z"/>
<path class="st2" d="M281.4,134.9c13.5-11.5,3-28.5,22.8-42.5s61.3-8.4,67,15.5s42.8,32.5,52.2,68.1s-20.6,58.4-4.8,80.9
	s25.1,55.1-17.4,68s-88-8.5-86.4-57.6s-24.9-43.7-37.8-74C263.9,162.3,306,144.5,281.4,134.9z"/>
<path class="st3" d="M155.6,106.3h-10.7c-2.5,0-4.7,2.6-4.7,6s2,6.4,4.6,6.4c1.1,0,2.1-0.5,2.9-1.4c0.6-0.8,1.5-1.2,2.5-1.3h0.4
	c0.9,0.1,1.7,0.5,2.3,1.2c0.9,1.2,2.5,1.7,3.9,1.3c1.7-0.5,3.1-2.4,3.4-4.7C160.6,109.8,158.4,106.3,155.6,106.3z"/>
<path class="st4" d="M153.1,106.8h-9.8c-2.3,0-4.3,2.4-4.3,5.5s1.8,5.9,4.2,5.9c1,0,2-0.5,2.6-1.3c0.6-0.7,1.4-1.1,2.3-1.2h0.4
	c0.8,0,1.6,0.5,2.1,1.1c0.9,1.1,2.3,1.6,3.6,1.2c1.8-0.7,2.9-2.4,3.1-4.3C157.7,110.1,155.7,106.8,153.1,106.8z"/>
<path class="st3" d="M126.3,150.9l-1.4,1.8l-1.5,1.9c-1,1.3-2,2.6-3,3.9c-2,2.6-3.8,5.3-5.6,7.9c-0.9,1.3-1.7,2.7-2.5,4
	c-0.8,1.3-1.6,2.7-2.2,4c-1.3,2.5-2.4,5.1-3.1,7.8c-0.1,0.3,0,0.1,0,0.1c0,0,0-0.1,0-0.1c0,0-0.1,0-0.1,0.1c0,0.3,0,0.6,0.1,0.9
	c0.3,1.1,0.8,2.2,1.4,3.1c1.6,2.6,3.5,5,5.5,7.2c4.5,4.9,9.2,9.6,14.1,14l0.1,0.1c1.7,1.6,1.8,4.3,0.3,6c-1.3,1.4-3.3,1.8-5,0.9
	c-6.5-3.3-12.6-7.2-18.3-11.8c-3-2.4-5.8-5.2-8.3-8.2c-1.4-1.8-2.7-3.8-3.6-5.9c-0.6-1.3-1-2.7-1.3-4.1c-0.2-0.8-0.2-1.7-0.3-2.5
	c0-0.4,0-0.9,0-1.4s0.1-1,0.2-1.2c0.7-4.1,1.8-8,3.5-11.8c1.5-3.5,3.2-6.9,5.2-10.1c1.9-3.2,3.9-6.3,6.1-9.2
	c1.1-1.5,2.2-2.9,3.3-4.4c0.6-0.7,1.2-1.4,1.8-2.1s1.2-1.4,1.9-2.2c3.2-3.4,8.6-3.6,12-0.3c3.2,3,3.5,7.9,0.9,11.3L126.3,150.9z"/>
<path class="st5" d="M126.3,150.9l-1.4,1.8l-1.5,1.9c-1,1.3-2,2.6-3,3.9c-2,2.6-3.8,5.3-5.6,7.9c-0.9,1.3-1.7,2.7-2.5,4
	c-0.8,1.3-1.6,2.7-2.2,4c-1.3,2.5-2.4,5.1-3.1,7.8c-0.1,0.3,0,0.1,0,0.1c0,0,0-0.1,0-0.1c0,0-0.1,0-0.1,0.1c0,0.3,0,0.6,0.1,0.9
	c0.3,1.1,0.8,2.2,1.4,3.1c1.6,2.6,3.5,5,5.5,7.2c4.5,4.9,9.2,9.6,14.1,14l0.1,0.1c1.7,1.6,1.8,4.3,0.3,6c-1.3,1.4-3.3,1.8-5,0.9
	c-6.5-3.3-12.6-7.2-18.3-11.8c-3-2.4-5.8-5.2-8.3-8.2c-1.4-1.8-2.7-3.8-3.6-5.9c-0.6-1.3-1-2.7-1.3-4.1c-0.2-0.8-0.2-1.7-0.3-2.5
	c0-0.4,0-0.9,0-1.4s0.1-1,0.2-1.2c0.7-4.1,1.8-8,3.5-11.8c1.5-3.5,3.2-6.9,5.2-10.1c1.9-3.2,3.9-6.3,6.1-9.2
	c1.1-1.5,2.2-2.9,3.3-4.4c0.6-0.7,1.2-1.4,1.8-2.1s1.2-1.4,1.9-2.2c3.2-3.4,8.6-3.6,12-0.3c3.2,3,3.5,7.9,0.9,11.3L126.3,150.9z"/>
<path class="st6" d="M131.6,210.2c-1.7-1.4-8.3-6.7-11.9-10.6c-4,0.5-9.5,4.9-11.5,7.3c5.2,4,13,9,16.7,8.8S134.9,213,131.6,210.2z"
	/>
<path class="st6" d="M128.9,209.2l4.6,1.6c1.7,0.6,3.2,1.7,4.2,3.2l2.8,4.1c0.6,0.9,0.4,2.2-0.5,2.9c-0.1,0.1-0.2,0.1-0.3,0.2
	l-4.6,2.1c-0.7,0.3-1.5,0.2-2.1-0.3l-4-3.1c0,0-3.8-2.7-5.2-6c-0.4-1-0.1-2.1,0.8-2.7l2.3-1.7C127.4,209,128.2,208.9,128.9,209.2z"
	/>
<path class="st6" d="M152.4,111.8c0,0.7,0.3,1.3,0.8,1.3s0.8-0.6,0.9-1.3s-0.4-1.3-0.8-1.3S152.4,111.1,152.4,111.8z"/>
<path class="st7" d="M151.7,113c0.8,2.1,1.9,4.2,3.2,6c-1.3,1.1-3.4,0.6-3.4,0.6L151.7,113z"/>
<path class="st6" d="M149.9,107.8c0.1,0,0.2,0,0.3-0.1c0.8-0.6,1.9-0.8,2.9-0.5c0.2,0.1,0.4,0,0.5-0.2c0.1-0.2,0-0.4-0.2-0.5
	c-1.3-0.4-2.6-0.2-3.7,0.6c-0.2,0.1-0.2,0.4-0.1,0.6C149.7,107.7,149.8,107.8,149.9,107.8z"/>
<path class="st8" d="M132.1,114.4c0.4,6.4-0.1,19.5-5,23.1c0,0,1.2,5.3,12.9,6.7c12.9,1.6,6.9-5.6,6.9-5.6c-6.8-2.6-6-7.8-4.1-12.5
	L132.1,114.4z"/>
<path class="st6" d="M164.7,403.3h-9.5c-0.4,0-0.7,0.4-0.7,0.8l-1.7,10.1c-0.2,1.1,0.4,2.1,1.3,2c3.4-0.1,8.4-0.3,12.6-0.3
	c5,0,4.4,0.4,10.3,0.4c3.6,0,4.6-4.7,3.1-5.2c-6.8-2-7.4-2.2-13.3-6.9C166.2,403.6,165.5,403.3,164.7,403.3z"/>
<path class="st3" d="M119.9,135.8c13-1.5,26.1-1.2,39,1c4.1,0.8,7.4,4.1,8.1,8.2c3.9,22.2-0.1,53.5-3.6,75.1l-49.9-1.1
	c-0.3-6.5,2.6-40.2-2.1-71.7C110.5,141.8,114.3,136.7,119.9,135.8C119.9,135.8,119.9,135.8,119.9,135.8z"/>
<path class="st9" d="M119.9,135.8c13-1.5,26.1-1.2,39,1c4.1,0.8,7.4,4.1,8.1,8.2c3.9,22.2-0.1,53.5-3.6,75.1l-49.9-1.1
	c-0.3-6.5,2.6-40.2-2.1-71.7C110.5,141.8,114.3,136.7,119.9,135.8C119.9,135.8,119.9,135.8,119.9,135.8z"/>
<path class="st3" d="M166.5,141.5l5.6,9.8c1.9,3.2,3.8,6.4,5.7,9.4c1.8,2.9,3.9,5.7,6.1,8.3c2,2.3,4.2,4.4,6.8,6.1l-3.3-0.9
	c2.2,0.3,4.4,0.6,6.5,0.9s4.4,0.7,6.5,1.1c4.4,0.8,8.7,1.7,13,2.9l0,0c2.3,0.6,3.6,3,3,5.3c-0.5,1.6-1.8,2.8-3.5,3.1
	c-4.5,0.7-8.9,1.1-13.3,1.4c-2.2,0.1-4.4,0.3-6.6,0.4s-4.4,0.2-6.6,0.2c-0.9,0-1.8-0.2-2.6-0.6l-0.6-0.3c-4.1-2.2-7.9-5-11.1-8.4
	c-3-3.1-5.7-6.4-8.2-9.9c-2.4-3.4-4.5-6.8-6.6-10.2s-3.9-6.9-5.7-10.3c-2.2-4.2-0.6-9.3,3.6-11.5C159.2,136,164.2,137.5,166.5,141.5
	L166.5,141.5z"/>
<path class="st10" d="M166.5,141.5l5.6,9.8c1.9,3.2,3.8,6.4,5.7,9.4c1.8,2.9,3.9,5.7,6.1,8.3c2,2.3,4.2,4.4,6.8,6.1l-3.3-0.9
	c2.2,0.3,4.4,0.6,6.5,0.9s4.4,0.7,6.5,1.1c4.4,0.8,8.7,1.7,13,2.9l0,0c2.3,0.6,3.6,3,3,5.3c-0.5,1.6-1.8,2.8-3.5,3.1
	c-4.5,0.7-8.9,1.1-13.3,1.4c-2.2,0.1-4.4,0.3-6.6,0.4s-4.4,0.2-6.6,0.2c-0.9,0-1.8-0.2-2.6-0.6l-0.6-0.3c-4.1-2.2-7.9-5-11.1-8.4
	c-3-3.1-5.7-6.4-8.2-9.9c-2.4-3.4-4.5-6.8-6.6-10.2s-3.9-6.9-5.7-10.3c-2.2-4.2-0.6-9.3,3.6-11.5C159.2,136,164.2,137.5,166.5,141.5
	L166.5,141.5z"/>
<path class="st3" d="M157.2,126.5c-0.2,3.8-3.7,7-6.1,6.8s-4.2-3.3-4-7.1c0.2-3.8,2.3-6.8,4.7-6.7S157.4,122.7,157.2,126.5z"/>
<path class="st8" d="M129.1,109.8c0.4,8.6,0.1,13.7,4.4,18.2c6.4,6.8,17.1,3.1,19.3-5.5c2-7.7,1.1-20.4-7.2-24
	c-5.9-2.6-12.9,0.1-15.5,6.1C129.4,106.2,129,108,129.1,109.8z"/>
<path class="st3" d="M143,220.2c0,0-3.9,52-8.9,78c-3.4,17.7-6.4,64.7-14.3,84c-1.4,3.5-4,6.7-7.7,6.7l-18.7-0.8
	c-3.8-0.9-3.5-4-3.3-7.9c0.8-15.3,9.8-65.5,14.5-86c1.3-23.6,3.4-56.7,9-75.1L143,220.2z"/>
<g class="st11">
	<path class="st1" d="M143,220.2c0,0-3.9,52-8.9,78c-3.4,17.7-6.4,64.7-14.3,84c-1.4,3.5-4,6.7-7.7,6.7l-18.7-0.8
		c-3.8-0.9-3.5-4-3.3-7.9c0.8-15.3,9.8-65.5,14.5-86c1.3-23.6,3.4-56.7,9-75.1L143,220.2z"/>
</g>
<path class="st2" d="M135.5,249.7c-9,6.4-8.6,31.3-1.1,46.4c2.4-13.1,4.5-31.8,6-47.3C138.7,248.4,137,248.8,135.5,249.7z"/>
<path class="st3" d="M163.5,221c0,0,8.5,49.8,9.8,76.2c1.1,23,2.8,70.3,2.1,85c-0.2,3.8-3.3,6.7-7.1,6.7H155c-3.9,0-7-3.1-7.1-7
	c-0.1-15.3-3.7-64.3-8-84.9c-6.1-29.2-13.2-51.1-12.7-76.8L163.5,221z"/>
<g class="st11">
	<path class="st1" d="M163.5,221c0,0,8.5,49.8,9.8,76.2c1.1,23,2.8,70.3,2.1,85c-0.2,3.8-3.3,6.7-7.1,6.7H155c-3.9,0-7-3.1-7.1-7
		c-0.1-15.3-3.7-64.3-8-84.9c-6.1-29.2-13.2-51.1-12.7-76.8L163.5,221z"/>
</g>
<path class="st6" d="M152.7,385.1c0,0,13.2-1.6,18.3,0.4c-1,3.2-3.2,21.3-0.4,23.8l-16.3-1.5C155.6,400,152.7,385.1,152.7,385.1z"/>
<path class="st6" d="M101.2,403.3h-9.5c-0.4,0-0.7,0.4-0.7,0.8l-1.7,10.1c-0.2,1.1,0.4,2.1,1.3,2c3.4-0.1,8.3-0.3,12.6-0.3
	c5,0,4.4,0.4,10.3,0.4c3.6,0,4.6-4.7,3.1-5.2c-6.8-2-7.4-2.2-13.3-6.9C102.7,403.6,102,403.3,101.2,403.3z"/>
<path class="st6" d="M93.5,385.1c0,0,13.5-1.6,18.3,0.4c-1.6,3.2-7.2,21.3-4.9,23.8l-16-4.6C92.3,394.6,93.5,385.1,93.5,385.1z"/>
<path class="st3" d="M156.8,137c-3.8-1.5-3.3-8.6-2.2-12.3c1.1-3.7-4,1.1-7.4-6.5c-2-4.6-1.4-8.6,0.5-11.4c1.3-1.9,5.3-1,4.4-6.2
	s-7.2-9.3-16.4-8.1c-14.1,1.8-13.7,15.3-10.8,23.1c5.2,13.8-0.9,17-7.7,20.9C124.1,141,139.9,143.1,156.8,137z"/>
<path class="st9" d="M156.8,137c-3.8-1.5-3.3-8.6-2.2-12.3c1.1-3.7-4,1.1-7.4-6.5c-2-4.6-1.4-8.6,0.5-11.4c1.3-1.9,5.3-1,4.4-6.2
	s-7.2-9.3-16.4-8.1c-14.1,1.8-13.7,15.3-10.8,23.1c5.2,13.8-0.9,17-7.7,20.9C124.1,141,139.9,143.1,156.8,137z"/>
<path class="st6" d="M164.1,218.1c0.5,1.7,0.7,3.6,0.4,5.4c0,0.3-0.2,0.5-0.5,0.5c-3.7,0.3-30,2.5-51.5-2.4
	c-0.2-0.1-0.4-0.2-0.4-0.4c-0.5-2.1-0.2-4.2,0.8-6.1c0.1-0.2,0.4-0.3,0.6-0.3c3,0.6,22.3,4.4,50.1,3
	C163.8,217.8,164,217.9,164.1,218.1z"/>
<path class="st6" d="M158,109.8h-35.2c-0.6,1.4,0.8,3.5,0.8,3.5h35.2C158.7,113.3,159.2,111,158,109.8z"/>
<path class="st6" d="M142.2,149c-0.1,0-0.3,0-0.4-0.1c-0.8-0.2-1.2-1.1-1-1.8c1.6-5.9,9.3-12.4,17-12.4c0.8,0,1.5,0.7,1.5,1.5
	s-0.7,1.5-1.5,1.5c-6.3,0-12.8,5.5-14.1,10.2C143.5,148.6,142.9,149,142.2,149z"/>
<path class="st6" d="M163.6,219.3h-0.3c-12.8-2.4-23.5-13.5-24.9-25.8c-0.1-0.8,0.5-1.6,1.3-1.7s1.6,0.5,1.7,1.3
	c1.2,10.9,11.1,21.1,22.4,23.2c0.8,0.1,1.4,0.8,1.4,1.6C165.1,218.8,164.4,219.4,163.6,219.3L163.6,219.3L163.6,219.3z"/>
<path class="st6" d="M108.8,155c-0.7,0-1.3-0.5-1.5-1.2c-1.3-6,2.3-15.3,9.2-19c0.7-0.4,1.6-0.1,2,0.6s0.1,1.6-0.6,2l0,0
	c-5.6,3-8.7,10.9-7.6,15.7c0.2,0.8-0.3,1.6-1.1,1.8c0,0,0,0,0,0C109,155,108.9,155,108.8,155z"/>
<path class="st3" d="M109.4,136.8h23.3c6.6,0,12,5.4,12,12v76.4c0,6.6-5.4,12-12,12h-23.3c-6.6,0-12-5.4-12-12v-76.4
	C97.4,142.2,102.8,136.8,109.4,136.8z"/>
<path class="st12" d="M106.1,148.1h18.9c5.3,0,9.6,4.3,9.6,9.6v60.8c0,5.3-4.3,9.6-9.6,9.6h-18.9c-5.3,0-9.6-4.3-9.6-9.6v-60.8
	C96.5,152.4,100.8,148.1,106.1,148.1z"/>
<path class="st3" d="M103.1,146.5h18.8c5.3,0,9.7,4.3,9.7,9.7v61.7c0,5.3-4.3,9.7-9.7,9.7h-18.8c-5.3,0-9.7-4.3-9.7-9.7v-61.7
	C93.4,150.8,97.7,146.5,103.1,146.5z"/>
<path class="st1" d="M125.8,192.5l-10.1-23.8c-1.4-3.3-4.9-3.3-6.3,0l-10.1,23.8c-1.4,3.3,0.3,7.5,3.2,7.5h20.1
	C125.4,200,127.2,195.8,125.8,192.5z M123.8,196c-0.2,0.5-0.6,0.9-1.2,0.9h-20.1c-0.6-0.1-1-0.4-1.2-0.9c-0.3-0.6-0.3-1.3,0-1.9
	l10.1-23.8c0.2-0.5,0.6-0.9,1.2-0.9c0.6,0,1,0.4,1.2,0.9l10.1,23.8C124,194.7,124,195.4,123.8,196L123.8,196z"/>
<path class="st5" d="M113.7,170.2c-0.2-0.5-0.6-0.9-1.2-0.9c-0.6,0-1,0.4-1.2,0.9l-10.1,23.8c-0.3,0.6-0.3,1.3,0,1.9
	c0.2,0.5,0.6,0.9,1.2,0.9h20.1c0.6-0.1,1-0.4,1.2-0.9c0.3-0.6,0.3-1.3,0-1.9L113.7,170.2z"/>
<path class="st6" d="M176.5,271.7c-2.5,0-5-0.8-7.1-2.2c-6.4-4.3-9.5-13.8-8.4-25.9c0.6-6.4-0.7-11.3-3.8-14.7
	c-3.4-3.7-8.9-5.6-16.5-5.6c-0.6,0-1-0.4-1-1s0.4-1,1-1c8.1,0,14.2,2.1,18,6.2c3.5,3.8,4.9,9.3,4.3,16.2c-1,11.4,1.8,20.1,7.5,24.1
	c3.1,2.2,7.2,2.5,10.7,0.7c5.4-2.7,8.9-9.7,9.3-18.6l0.2-3.8c0.9-20,1.4-33.2,15.7-46.5c0.4-0.4,1-0.4,1.4,0c0.4,0.4,0.4,1,0,1.4
	c-13.7,12.7-14.2,25.6-15.1,45.1l-0.2,3.8c-0.4,9.7-4.3,17.3-10.4,20.3C180.4,271.2,178.5,271.7,176.5,271.7z"/>
<path class="st13" d="M176.5,271.7c-2.5,0-5-0.8-7.1-2.2c-6.4-4.3-9.5-13.8-8.4-25.9c0.6-6.4-0.7-11.3-3.8-14.7
	c-3.4-3.7-8.9-5.6-16.5-5.6c-0.6,0-1-0.4-1-1s0.4-1,1-1c8.1,0,14.2,2.1,18,6.2c3.5,3.8,4.9,9.3,4.3,16.2c-1,11.4,1.8,20.1,7.5,24.1
	c3.1,2.2,7.2,2.5,10.7,0.7c5.4-2.7,8.9-9.7,9.3-18.6l0.2-3.8c0.9-20,1.4-33.2,15.7-46.5c0.4-0.4,1-0.4,1.4,0c0.4,0.4,0.4,1,0,1.4
	c-13.7,12.7-14.2,25.6-15.1,45.1l-0.2,3.8c-0.4,9.7-4.3,17.3-10.4,20.3C180.4,271.2,178.5,271.7,176.5,271.7z"/>
<path class="st6" d="M215.2,178.6h6.6c1.8,0,3.6,0.6,5,1.9l3.7,3.4c1,0.9,0.7,2.6-0.5,3.7l-4.8,4c-0.6,0.6-1.6,0.8-2.4,0.5l-4.8-1.9
	c0,0-6.2-2-7.4-6.1L215.2,178.6z"/>
<path class="st6" d="M219,178.6c-5-0.5-10-1.4-14.9-2.7c-3.1,2.5-5.6,11.1-6.1,14.2c6.5,0.7,14.3-0.5,17.3-2.6
	S223.4,178.8,219,178.6z"/>
<rect x="200" y="180.1" transform="matrix(0.7317 -0.6816 0.6816 0.7317 -63.8391 203.0726)" class="st6" width="52" height="5"/>
<polygon class="st6" points="278.1,134.3 272.4,137.7 244.2,164 245.9,165.9 274.1,139.7 279.1,138.6 "/>
<polygon class="st13" points="278.1,134.3 272.4,137.7 244.2,164 245.9,165.9 274.1,139.7 279.1,138.6 "/>
</svg>
