<svg xmlns="http://www.w3.org/2000/svg" viewBox="0 0 717.08 401.23"><defs><style>.cls-1{opacity:0.42;}.cls-2{fill:#5a50a3;}.cls-3{fill:#ffbe9d;}.cls-4{fill:#eb996e;}.cls-5{fill:#263238;}.cls-6{fill:#455a64;}.cls-7{fill:#fafafa;}.cls-8{fill:#ff725e;}.cls-9{opacity:0.8;}.cls-10{fill:#fff;}.cls-11{opacity:0.3;}.cls-12{fill:#e0e0e0;}.cls-13{fill:#f5f5f5;}.cls-14{fill:#ebebeb;}</style></defs><g id="Capa_2" data-name="Capa 2"><g id="Capa_1-2" data-name="Capa 1"><g id="freepik--background-simple--inject-35" class="cls-1"><path id="elhwc54uslk27" class="cls-2" d="M573.4,127c-4.28-19.1-17.24-34.4-31.69-45.65-21.74-16.94-56.17-15.5-81.23-8.27s-53.16,14.65-76.05-.16C369.21,63,359.56,45.2,346.94,31.36,322.5,4.54,285.37-6.41,253.29,3.74c-17.65,5.59-33.39,17.43-45.18,33.09C192.35,57.75,185.64,84,187.77,110.1c3.39,41.46,23.55,83.47,51.07,111,33.88,33.91,79.22,50.75,123.84,53s86.27,3,127.84-13.9c27-11,64.39-33.67,76.42-63.1C575.13,177.09,578.29,148.77,573.4,127Z"/></g><g id="freepik--character-2--inject-35"><path id="eloymyste7fu" class="cls-3" d="M505.09,58.38,474.92,98.11l19.8,15.22c2.06-2,9.45-10.53,9.45-10.53s8.77,5.76,15.81-1.84c3.42-3.69,9.86-11.88,15.58-19.33A19.16,19.16,0,0,0,532.37,55h0A19.16,19.16,0,0,0,505.42,58Z"/><path id="elf1pe5loq01u" class="cls-4" d="M504.17,102.84a24.13,24.13,0,0,1-7.44-11.9s-2.63,7.66,5.65,13.9Z"/><path id="ely2ebaihkdi" class="cls-5" d="M528.23,85.21a1.48,1.48,0,0,1-2.06.15,1.41,1.41,0,0,1-.25-2l0,0a1.47,1.47,0,0,1,2-.15,1.41,1.41,0,0,1,.31,2Z"/><path id="elfrgduiggn2m" class="cls-5" d="M530.3,84.15c-.27,0-.54-1.34-1.73-2.41S526,80.49,526,80.23s.37-.26,1-.19a4,4,0,0,1,3.43,3.09C530.53,83.78,530.42,84.15,530.3,84.15Z"/><path id="elc5i8ojkwxg" class="cls-5" d="M516.63,75.61a1.49,1.49,0,0,1-2.06.15,1.42,1.42,0,0,1-.25-2h0a1.47,1.47,0,0,1,2.06-.15,1.41,1.41,0,0,1,.26,2Z"/><path id="elpb9lje76f9f" class="cls-5" d="M518.5,73.88c-.27,0-.54-1.35-1.73-2.41s-2.58-1.26-2.58-1.52.37-.25,1-.19a4.11,4.11,0,0,1,2.22,1,3.86,3.86,0,0,1,1.21,2.1C518.73,73.5,518.62,73.88,518.5,73.88Z"/><path id="eleo7sm7r63z5" class="cls-5" d="M514.84,86.51a9.87,9.87,0,0,1,2.23,1.38c.33.25.67.44.91.28a2.3,2.3,0,0,0,.6-1.07c.38-1,.78-2,1.19-3.1,1.72-4.39,3.25-7.89,3.43-7.82s-1.08,3.69-2.79,8.08c-.44,1.07-.85,2.1-1.24,3.08a2.36,2.36,0,0,1-.91,1.32,1,1,0,0,1-.9,0,2.22,2.22,0,0,1-.57-.39A11.25,11.25,0,0,1,514.84,86.51Z"/><path id="el9cz73dpf2kr" class="cls-5" d="M510.65,84.18c.2.16-.95,1.45-.68,3.35s1.76,3,1.61,3.18-.53,0-1.12-.53a4.31,4.31,0,0,1-1.41-2.59,3.78,3.78,0,0,1,.65-2.73C510.14,84.33,510.57,84.09,510.65,84.18Z"/><path id="el1drxsbaupsy" class="cls-5" d="M523,69.53c-.41.21-1.45-1-3-2.09s-3-1.72-2.92-2.17c0-.22.51-.34,1.24-.24a6.29,6.29,0,0,1,4.5,3.24C523.15,68.94,523.17,69.42,523,69.53Z"/><path id="elhqvvx39ywgq" class="cls-5" d="M533,80.33c-.45.08-1-.94-2-1.84S529,77,529,76.59c0-.21.41-.36,1-.29a3.87,3.87,0,0,1,3.13,3C533.3,79.92,533.16,80.33,533,80.33Z"/><path id="eljosg1zximkc" class="cls-5" d="M520.93,57.63h-.09a8.15,8.15,0,0,0-5.78,1.88l-.16.13c-2.29,1.92-4.25,4.2-6.55,6.1s-5.07,3.43-8,3.48c-1.23,0-2.79-.62-2.68-1.85a2.57,2.57,0,0,1,.63-1.25c4.38-5.66,7.18-11.66,12.19-17.18a6.31,6.31,0,0,1,5.37-2c1.91.22,4.1.63,4.84,2.41s.22,5.69.3,7.61"/><path id="elb779pwwv5s" class="cls-3" d="M504.42,64.33c-.08-.17-3.87-6.33-8.45-.93s1.79,8.89,1.93,8.74S504.42,64.33,504.42,64.33Z"/><path id="el6x3tpqwt5r" class="cls-4" d="M498,68.68a1.35,1.35,0,0,1-.37-.07,1.24,1.24,0,0,1-.71-.58,3,3,0,0,1,.69-3A4.17,4.17,0,0,1,499,63.91a1.38,1.38,0,0,1,1.32-.12.63.63,0,0,1,.34.73c-.06.21-.19.29-.17.32s.2,0,.34-.25a.78.78,0,0,0,.08-.52.94.94,0,0,0-.41-.58,1.75,1.75,0,0,0-1.69,0,4.2,4.2,0,0,0-1.6,1.23c-.89,1.12-1.2,2.61-.61,3.5a1.3,1.3,0,0,0,1,.59C497.84,68.81,498,68.71,498,68.68Z"/><path id="el073yaj5l5d7q" class="cls-6" d="M531.06,50.82a1.69,1.69,0,0,0-.34-.3,5.84,5.84,0,0,0-1.09-.61,6.86,6.86,0,0,0-7.69,1.42,5.12,5.12,0,0,0-.79,1c-.16.25-.23.4-.21.41a12.35,12.35,0,0,1,1.14-1.23,7.1,7.1,0,0,1,7.47-1.42C530.51,50.47,531,50.86,531.06,50.82Z"/><path id="elek8trtgr9pf" class="cls-5" d="M540.84,73.88c0,1.34-1.77,1.93-3.1,1.8a7,7,0,0,1-4.21-2.88,12.33,12.33,0,0,1-1-3.9c-2.66.42-5.93-1.73-5.54-4.87-2.84,1.62-10.24-2.68-10.58-4.26,0-3.32-1.1-11.33,3.26-11.7,4.86-.42,12,.65,16.59,6.32,6.68,8.31,6,15.31,4.54,19.49"/><path id="elly8kwr881vh" class="cls-7" d="M507.27,75.72s10.18,6.67,14.09,9,6.2,8.25,6.2,8.25l-1,1.38s-6.54,7.79-8.14,9.07c-2.6,2.06-10.4,1.41-12.2.42a18.68,18.68,0,0,1-8.91-19.15s5.85,1.06,8.29-2.47A63.87,63.87,0,0,0,507.27,75.72Z"/><path id="elxdwegwc31xt" class="cls-5" d="M507.27,75.72a1.31,1.31,0,0,1,0,.28,4.75,4.75,0,0,1-.16.81c-.14.71-.36,1.74-.69,3.07-.17.75-.38,1.48-.62,2.21a5.42,5.42,0,0,1-2,1.89,10.78,10.78,0,0,1-6.52.89l.22-.16a18.59,18.59,0,0,0,2.7,13,17.63,17.63,0,0,0,2.38,3,15.54,15.54,0,0,0,3.1,2.49,7.45,7.45,0,0,0,.87.49,5.79,5.79,0,0,0,1,.31,19.46,19.46,0,0,0,2,.35,24.13,24.13,0,0,0,4.25.1,8.66,8.66,0,0,0,4.54-1.31c1.18-1.06,2.24-2.3,3.29-3.45l3-3.48c1-1.14,1.93-2.24,2.76-3.39V93c-1.51-3.63-3.68-6.84-6.52-8.45L513.71,80,509,76.88,507.77,76a5.09,5.09,0,0,1-.45-.31,3.5,3.5,0,0,1,.42.24l1.24.76,4.74,2.93,7.34,4.59A12.56,12.56,0,0,1,525,87.8a23.44,23.44,0,0,1,2.86,5.07V93l-.08.11c-.83,1.17-1.79,2.3-2.76,3.43L522,100a46.16,46.16,0,0,1-3.34,3.51,9,9,0,0,1-4.83,1.44,24.2,24.2,0,0,1-4.34-.11,18.59,18.59,0,0,1-2.11-.36,5.89,5.89,0,0,1-1-.34,7.17,7.17,0,0,1-.93-.53,16.13,16.13,0,0,1-3.19-2.57A18.21,18.21,0,0,1,499.83,98a18.86,18.86,0,0,1-2.67-13.3v-.19h.19a10.65,10.65,0,0,0,6.3-.77A5.12,5.12,0,0,0,505.56,82a20.49,20.49,0,0,0,.66-2.15c.34-1.29.6-2.31.79-3l.21-.79A1.84,1.84,0,0,1,507.27,75.72Z"/><path id="elk23ai1ub0bh" class="cls-5" d="M504.67,73.88c.08-.12.73.2,1.45.71s1.24,1,1.15,1.13-.73-.2-1.45-.71S504.58,74,504.67,73.88Z"/><path id="elnkxsvdo2g2" class="cls-5" d="M519,100.89a2.49,2.49,0,0,1-.8.17,12,12,0,0,1-2.24.06,14.55,14.55,0,0,1-12-7.71,11.26,11.26,0,0,1-.87-2.06,2.27,2.27,0,0,1-.18-.8c.09,0,.43,1.08,1.37,2.68a15.33,15.33,0,0,0,11.68,7.52C517.84,101,519,100.8,519,100.89Z"/><path id="elsg9hrtob4wn" class="cls-5" d="M522.61,97.91c-.08,0-.57-.92-1.53-2.38a29.89,29.89,0,0,0-9.69-9.33c-1.49-.9-2.47-1.36-2.44-1.44a10.1,10.1,0,0,1,2.62,1.12,25.19,25.19,0,0,1,5.56,4.06,25.92,25.92,0,0,1,4.27,5.4A10.6,10.6,0,0,1,522.61,97.91Z"/><path id="el2rszzjjccu3" class="cls-8" d="M589.3,318.58l12,44.82a12.54,12.54,0,0,0-21.46,10.21,19,19,0,0,0-22.7,7.32c-3.54,5.75-2.94,14.54,2.9,17.93,3,1.74,6.68,1.74,10.15,1.7,42-.57,84.25,1,126.24.41,3.6-.05,7.3-.12,10.59-1.58,6.37-2.82,9.3-12.29,9.91-19.23a36.93,36.93,0,0,0-46.76-38.83c3.22-9.51-4.62-20.35-14.45-22.37s-20.11,3.22-26.44,11S620,347.71,618,357.57c-5.3-8.46-22-31.79-27.27-40.25"/><g id="eld0f07aa538c"><g class="cls-9"><path id="elozdi8oiytd" class="cls-10" d="M589.3,318.58l12,44.82a12.54,12.54,0,0,0-21.46,10.21,19,19,0,0,0-22.7,7.32c-3.54,5.75-2.94,14.54,2.9,17.93,3,1.74,6.68,1.74,10.15,1.7,42-.57,84.25,1,126.24.41,3.6-.05,7.3-.12,10.59-1.58,6.37-2.82,9.3-12.29,9.91-19.23a36.93,36.93,0,0,0-46.76-38.83c3.22-9.51-4.62-20.35-14.45-22.37s-20.11,3.22-26.44,11S620,347.71,618,357.57c-5.3-8.46-22-31.79-27.27-40.25"/></g></g><path id="el7f79y3irzx7" class="cls-8" d="M538.26,51.44c-5.35-7.8-15.62-8.66-15.62-8.66-26.47-2.22-30.72,17-32.95,21.86-1.32,2.89-5.78,12.17-7.45,15.14-.67,1.21-2.31,1.22-3.91.88l-4.13-3.45-2.36-1.44L462.12,73c-1.43-1.36-3.79-2.34-7.55-2.55-16.24-.9-24.66,16.24-26.16,19-1.41,2.54-13.93,20.15-15.48,22.33-.1.14-.2.28-.31.41-1.3,1.59-10.18,12.62-11.57,18.75-1,4.33,5.5,13.69,10.1,19.64a7.87,7.87,0,0,0,10.13,2l6.31-3.61.16.75-9.59,20.41-9.87,83.75c.78-1.77-.94,9-2.68,22.09a34.61,34.61,0,0,0,.65,13.33s-.2,1.12-.38,2.8h0v.06c0,.42-.09.87-.13,1.35-.29,3.28-1,11.5-1.21,16.91-.13,3.54.81,20.22,1.75,35.58-1.93,2.16-1.6,6-1.7,9.1-.2,6.2-3.27,11.88-5.81,17.54s-4.61,12.06-2.75,18a15.3,15.3,0,0,0,9.46,9.62,16.08,16.08,0,0,0,17.12-4.7c3.54-4.21,4.61-9.91,5.55-15.33,1.94-11.21,3.82-23,2.58-34.1l7.1-33.75,1.4-5.95a12.33,12.33,0,0,0,1.23-.8c2.12-1.52,15.74-63,15.74-63l-3,42.7,1.51,8.78s-1.51,3-3.88,8.47-3,77.34-3,77.35-2.67,7.55-2.91,8.74-2.22,7.37-2.22,11.15h66.22c8.51-8.51-29.5-19.9-29.5-19.9h-1.09a.87.87,0,0,0,.17-.33c1-4.32,8.57-74,8.57-74s3.38-2.72,4.59-9.69-2.42-14.52-2.42-14.52l.57-13.57c1.36-11.77,6.56-70.39,7.47-73.33s-4.53-10.64-4.53-10.64,6.34-4.67,8.87-7.93c.94,7.45,1.67,14,1.61,15.62-.17,4.39,9.33,7.83,9.33,7.83l16.8-12.8V171.05c0-.19-1.71-2.29-2.86-4.39S516.3,118,516.3,118l-.2.33.06-.11-5.48-8.78-7.45-5.56-5,4.09c-1.84-4.79-3.26-18-2.26-20.69,1.11-3,10.71-18.72,18-22.65s14.22-2.38,19.4,2.77c4.68,4.63,2.16,14.23,2.16,14.23s5.31-5.18,6.53-9.83A25,25,0,0,0,538.26,51.44Z"/><g id="el4s79n5j8ajp"><g class="cls-11"><path id="el81xammke1zk" d="M409.71,242c2.94,2.08,5.5,2.59,9,3.49s7.59.32,10-2.35c2.9-3.23,2.44-8.12,2.91-12.43.52-4.86,2.41-9.44,3.79-14.13,3.92-13.36,3.67-27.53,3.39-41.45a3.45,3.45,0,0,0-.57-2.23,2.38,2.38,0,0,0-3.19,0,6.75,6.75,0,0,0-1.82,3c-8.15,20.71-15.38,35.51-22.38,56.66"/></g></g><path id="elpwpbab6i2wq" class="cls-5" d="M497.7,106.92a1.35,1.35,0,0,1,.17.34,5.89,5.89,0,0,1,.19,1.1,23.08,23.08,0,0,1-.28,4.23,134.34,134.34,0,0,1-3.32,15.24c-.43,1.6-.88,3.26-1.39,5s-1,3.53-1.72,5.34c-1.45,3.63-3.76,7.11-5.2,11.19A81,81,0,0,0,483,162.58a71.25,71.25,0,0,1-3.7,14.21c-1.85,4.68-4,9.11-5,13.73A100.45,100.45,0,0,0,472.75,204a62.25,62.25,0,0,1-2.13,12.19,83.53,83.53,0,0,1-3.54,10.19,70.66,70.66,0,0,1-7.44,13.7,31.84,31.84,0,0,1-2.7,3.21l-.81.75-.29.25a1.67,1.67,0,0,1,.25-.28l.75-.72a36.36,36.36,0,0,0,2.63-3.31,79.19,79.19,0,0,0,12.8-36,99,99,0,0,1,1.57-13.62c1-4.69,3.15-9.16,5-13.81a72.52,72.52,0,0,0,3.68-14.11,79.69,79.69,0,0,1,3.21-13.29c1.48-4.15,3.81-7.62,5.25-11.19.72-1.77,1.21-3.58,1.74-5.3s1-3.38,1.41-5a146.08,146.08,0,0,0,3.48-15.17,24.77,24.77,0,0,0,.37-4.21,6.56,6.56,0,0,0-.14-1A1.53,1.53,0,0,1,497.7,106.92Z"/><path id="elbi6ikzrfm4" class="cls-5" d="M493.38,171.94a5.74,5.74,0,0,1-.39,2,20.17,20.17,0,0,1-4.95,8.22,6.34,6.34,0,0,1-1.55,1.27,50.24,50.24,0,0,0,4.08-5.34A48,48,0,0,0,493.38,171.94Z"/><path id="eljvxsl43rgq8" class="cls-5" d="M453.78,176.67l.75.23c.49.16,1.2.44,2.14.74,1.87.64,4.61,1.48,8.08,2.34a127.12,127.12,0,0,0,28.14,3.55l-.17.07,5.71-4.94,1.77-1.53a5.68,5.68,0,0,0,2-3.76,9.25,9.25,0,0,0-.11-2.17q-.54-4.41-1-8.48h0a166.83,166.83,0,0,1-4.74-20.94c-.41-2.6-.67-4.67-.83-6.09-.07-.68-.12-1.22-.16-1.63a1.82,1.82,0,0,1,0-.57,3.45,3.45,0,0,1,.1.56c.07.4.15.94.25,1.62.2,1.41.51,3.47,1,6.06a179.79,179.79,0,0,0,4.91,20.85h0c.34,2.71.7,5.54,1.06,8.48a8.77,8.77,0,0,1,.12,2.29,6,6,0,0,1-.7,2.25,6.3,6.3,0,0,1-1.52,1.85L498.81,179l-5.72,4.93L493,184h-.18a122.86,122.86,0,0,1-28.18-3.64c-3.46-.91-6.19-1.81-8.05-2.49-.93-.33-1.63-.64-2.11-.83A3.94,3.94,0,0,1,453.78,176.67Z"/><path id="elp2i03hbklzg" class="cls-5" d="M470.27,185.56a19.09,19.09,0,0,1-.65-11.48c.16,0-.23,2.59,0,5.76S470.42,185.52,470.27,185.56Z"/><path id="el1nk53n3awsc" class="cls-5" d="M493.84,210.66a5.85,5.85,0,0,1-1,.64c-.68.37-1.66.93-2.85,1.64a82.23,82.23,0,0,0-8.94,6.08,83.57,83.57,0,0,0-8.06,7.22c-1,1-1.75,1.8-2.27,2.37a5.83,5.83,0,0,1-.87.85,5.48,5.48,0,0,1,.71-1c.48-.61,1.22-1.47,2.16-2.49a67.38,67.38,0,0,1,17.09-13.37c1.22-.67,2.23-1.18,2.94-1.5A4.7,4.7,0,0,1,493.84,210.66Z"/><path id="elyxcxda3yrx" class="cls-5" d="M490.55,232.63a4.15,4.15,0,0,1-.84.6c-.56.36-1.38.85-2.4,1.45-2,1.2-4.9,2.79-8.11,4.45s-6.16,3.07-8.32,4.05c-1.08.48-2,.86-2.57,1.11a3.94,3.94,0,0,1-1,.34,3.92,3.92,0,0,1,.88-.52l2.5-1.27c2.12-1.06,5-2.52,8.24-4.17s6.08-3.2,8.17-4.31l2.48-1.31A3.8,3.8,0,0,1,490.55,232.63Z"/><path id="ellpp7x00d4dn" class="cls-5" d="M481.17,266.58c-.1.1-3.68-3.16-8-7.28s-7.73-7.55-7.63-7.65,3.68,3.15,8,7.27S481.26,266.47,481.17,266.58Z"/><path id="elp215adgj9o" class="cls-5" d="M489.64,254.87c0,.16-2.27.24-5,.77s-4.89,1.25-4.94,1.1A18.67,18.67,0,0,1,489.64,254.87Z"/><path id="el3azxzr8czbq" class="cls-5" d="M485,307.33a7.94,7.94,0,0,1-.74.74L482.11,310l-7,6.21c-2.75,2.41-5.29,4.54-7.2,6-1,.74-1.73,1.31-2.29,1.69a3.85,3.85,0,0,1-.89.54c0-.06,1.12-1,2.95-2.52s4.34-3.7,7.09-6.1,5.26-4.58,7.12-6.1c.92-.76,1.69-1.36,2.23-1.76A3.76,3.76,0,0,1,485,307.33Z"/><path id="ela92po8mrhe8" class="cls-5" d="M412.84,303a3.8,3.8,0,0,1-.82-.61,11.07,11.07,0,0,1-1.78-2.14,29.71,29.71,0,0,1-3.54-8.42,45.08,45.08,0,0,1-1.54-9,25.6,25.6,0,0,1,0-2.77,3.06,3.06,0,0,1,.14-1c.08,0,0,1.44.25,3.75a54.84,54.84,0,0,0,1.67,8.89,34.24,34.24,0,0,0,3.35,8.37A19.45,19.45,0,0,0,412.84,303Z"/><path id="elvogezh5wd4" class="cls-5" d="M439.12,306c0,.17-3.19.71-6.84,2.3s-6.26,3.53-6.35,3.4a7,7,0,0,1,1.64-1.37A25.67,25.67,0,0,1,437,306.3,6.89,6.89,0,0,1,439.12,306Z"/><path id="elwskvjcpz1cl" class="cls-5" d="M430.53,324.33a23.29,23.29,0,0,1-6.12,2.38,23,23,0,0,1-6.48,1.07c0-.15,2.87-.61,6.34-1.57S430.47,324.23,430.53,324.33Z"/><path id="elorehj5tnb3" class="cls-5" d="M445.84,251.43c-.14,0-2.64-8.39-5.6-18.83s-5.23-18.94-5.09-19,2.64,8.4,5.59,18.84S446,251.4,445.84,251.43Z"/><path id="eliky4lcg5i9" class="cls-5" d="M469.21,215.71a14.7,14.7,0,0,1-1.66-2.48c-.95-1.57-2.18-3.79-3.43-6.3s-2.25-4.84-2.92-6.55a14.12,14.12,0,0,1-1-2.82,22.07,22.07,0,0,1,1.3,2.68c.75,1.66,1.81,4,3.05,6.46s2.42,4.74,3.28,6.35A19.16,19.16,0,0,1,469.21,215.71Z"/><path id="elrjpt0ihg2" class="cls-5" d="M476.84,138.33a4.53,4.53,0,0,1-.84.66l-2.36,1.66c-2,1.41-4.72,3.38-7.65,5.67s-5.51,4.46-7.36,6l-2.18,2a4.46,4.46,0,0,1-.85.65,3.88,3.88,0,0,1,.71-.8c.47-.49,1.18-1.18,2.08-2,1.79-1.67,4.33-3.89,7.28-6.19s5.71-4.23,7.76-5.56c1-.67,1.87-1.19,2.46-1.53A3.69,3.69,0,0,1,476.84,138.33Z"/><path id="elukgdb07d2rr" class="cls-5" d="M431.84,128.84c-.08,0-.56-1-1.57-2.41a21.61,21.61,0,0,0-10.82-8.16c-1.68-.56-2.77-.75-2.76-.84a2.28,2.28,0,0,1,.78,0,13.38,13.38,0,0,1,2.09.44,19.57,19.57,0,0,1,11,8.3,12.09,12.09,0,0,1,1,1.88C431.75,128.56,431.84,128.83,431.84,128.84Z"/><path id="elpfgo6wn1kq8" class="cls-5" d="M417.84,127.12c0,.09-.95-.14-2.47-.23a17.09,17.09,0,0,0-11.13,3.34c-1.22.91-1.88,1.61-1.94,1.55a7.13,7.13,0,0,1,1.71-1.84,15.35,15.35,0,0,1,11.39-3.41A6.67,6.67,0,0,1,417.84,127.12Z"/><path id="elugfjts3le2o" class="cls-5" d="M430.6,143.18a15.56,15.56,0,0,0-8.56-9.65,5.09,5.09,0,0,1,1.89.63,12.28,12.28,0,0,1,3.83,2.92,12.8,12.8,0,0,1,2.45,4.15A5,5,0,0,1,430.6,143.18Z"/><g id="ell4qszwi7c0b"><g class="cls-11"><path id="elwsz1e5hvpgk" d="M449,161.67a16.85,16.85,0,0,1-1.77-5.91,16.66,16.66,0,0,1,1.48-6.48q4.78-12.81,9.58-25.61c3.67-9.8,7.36-19.67,9.25-30,.26-1.42.28-3.28-1-3.87a2.3,2.3,0,0,0-2.54.77,6.82,6.82,0,0,0-1.15,2.58q-9.53,33.18-20.92,65.81"/></g></g><path id="elnjjrut967jg" class="cls-5" d="M447.84,379.88c.05-.09,1.67.78,4.5,1.67a38.12,38.12,0,0,0,11.38,1.59,50.62,50.62,0,0,0,11.43-1.45,10.86,10.86,0,0,0,3.19-1.36c.68-.46,1-.81,1-.77s-.06.1-.2.27a5.55,5.55,0,0,1-.71.66,9.77,9.77,0,0,1-3.19,1.56,44.94,44.94,0,0,1-11.53,1.62,35.37,35.37,0,0,1-11.5-1.76,29.16,29.16,0,0,1-3.26-1.37A7.73,7.73,0,0,1,447.84,379.88Z"/><path id="el8hrz9392rrg" class="cls-5" d="M476,381.51a2.21,2.21,0,0,1,.81,0,16.27,16.27,0,0,1,2.18.37A25.52,25.52,0,0,1,491.54,389a16.37,16.37,0,0,1,1.44,1.68c.31.42.47.67.44.69s-.8-.83-2.14-2.11a29.2,29.2,0,0,0-12.39-7.05A29.17,29.17,0,0,1,476,381.51Z"/><path id="elq6gqnja3yvp" class="cls-5" d="M480.67,391.85c-.15,0-1.11-2.34-2.72-5.07s-3.22-4.76-3.1-4.86a17.44,17.44,0,0,1,3.55,4.59A16.72,16.72,0,0,1,480.67,391.85Z"/><path id="elwtmcw92krsj" class="cls-5" d="M469.26,393.7a11.58,11.58,0,0,1,1.21-10.17,30.82,30.82,0,0,0-1.28,5A33.06,33.06,0,0,0,469.26,393.7Z"/><path id="el9u6fxit44rl" class="cls-5" d="M457.36,394.12a10.71,10.71,0,0,1-.08-5.7,10.5,10.5,0,0,1,2.44-5.15,29.9,29.9,0,0,0-1.94,5.26A32.73,32.73,0,0,0,457.36,394.12Z"/><path id="el3x2u5u2ph9y" class="cls-5" d="M512.59,125.74c.13.07-2.84,5.77-6.62,12.74s-7,12.57-7.09,12.5,2.84-5.77,6.63-12.75S512.46,125.67,512.59,125.74Z"/><path id="elttz3kfkfhxa" class="cls-5" d="M428,131.39a4.16,4.16,0,0,1,.61.44,10.66,10.66,0,0,1,1.4,1.45,14.84,14.84,0,0,1,1.64,2.51,17,17,0,0,1,1.27,3.45,17.33,17.33,0,0,1,.42,3.66,14.45,14.45,0,0,1-.34,3,10.69,10.69,0,0,1-.6,1.92,2.3,2.3,0,0,1-.34.66c-.09,0,.3-1,.58-2.65a16.82,16.82,0,0,0,.22-2.92,17.5,17.5,0,0,0-.45-3.53,18.14,18.14,0,0,0-1.19-3.36,17.16,17.16,0,0,0-1.5-2.51C428.7,132.16,427.91,131.46,428,131.39Z"/><path id="ellrap18cepme" class="cls-5" d="M431.84,129.33a3.71,3.71,0,0,1,.79,1.06,8,8,0,0,1,.43,6.23c-.28.77-.58,1.18-.63,1.15A11.23,11.23,0,0,0,431.84,129.33Z"/><path id="eltti4ow5r56" class="cls-5" d="M453.31,99.62a7,7,0,0,1-.67,1.37c-.46.86-1.15,2.09-2,3.6-1.75,3-4.26,7.15-7.07,11.68l-7.2,11.59-2.17,3.52a9.59,9.59,0,0,1-.85,1.26,8.58,8.58,0,0,1,.67-1.36c.46-.86,1.16-2.09,2-3.6,1.75-3,4.26-7.15,7.07-11.68l7.19-11.6,2.18-3.51A9.07,9.07,0,0,1,453.31,99.62Z"/><g id="elgygyl2iwm4u"><g class="cls-11"><path id="el76ke2tr6hwh" d="M435,146a8.58,8.58,0,0,0,1.45-8.06,20.85,20.85,0,0,0,4.24-2.91,6.78,6.78,0,0,0,2.24-4.51c0-.93-.18-1.86-.1-2.78a8.49,8.49,0,0,1,1.16-3.16c2-3.63,4.11-7.16,5.8-10.92a29.39,29.39,0,0,0,3-11.92c-2.79,2.09-4.17,5.49-5.72,8.6-3.13,6.24-7.38,11.82-11.07,17.74a19.7,19.7,0,0,0-2.49,5.19,21.07,21.07,0,0,0-.35,6.58c.07,1.37.14,2.75.2,4.12a1.93,1.93,0,0,0,.35,1.21c.3.31.94.3,1.06-.11"/></g></g><path id="eldz0uikd8d8" class="cls-5" d="M429,351.11a2.09,2.09,0,0,1,0,.5,10.2,10.2,0,0,1-.21,1.43,24.38,24.38,0,0,1-1.46,5.1,15.06,15.06,0,0,1-4.7,6.31,12,12,0,0,1-4.26,2,10.16,10.16,0,0,1-5.05-.08,8.09,8.09,0,0,1-4.15-2.87,11.39,11.39,0,0,1-2-4.27,26.58,26.58,0,0,1-.46-7.86c.11-2.23.16-4,.09-5.27s-.17-1.93-.12-1.93a1.88,1.88,0,0,1,.12.48,13.66,13.66,0,0,1,.2,1.43,42.59,42.59,0,0,1,.08,5.3,27.5,27.5,0,0,0,.55,7.73,11.48,11.48,0,0,0,1.91,4.08,7.66,7.66,0,0,0,3.9,2.68,10.58,10.58,0,0,0,8.88-1.78,14.9,14.9,0,0,0,4.64-6.07,27.47,27.47,0,0,0,1.6-5C428.84,351.78,428.92,351.1,429,351.11Z"/><path id="el721k0op26b2" class="cls-5" d="M404.56,388.09a2.9,2.9,0,0,1,0-.93,23.34,23.34,0,0,1,.17-2.51,35.36,35.36,0,0,1,5.67-15.49,24.12,24.12,0,0,1,1.49-2c.38-.46.6-.7.63-.68s-.71,1.11-1.81,2.91a42.28,42.28,0,0,0-3.57,7.39,43.59,43.59,0,0,0-2.05,8C404.73,386.78,404.65,388.09,404.56,388.09Z"/><path id="el38th0frulft" class="cls-5" d="M417.37,383.79a10.37,10.37,0,0,1-.72-2.44,40.68,40.68,0,0,1-.8-12.2,9.67,9.67,0,0,1,.4-2.51,17.8,17.8,0,0,1,0,2.53c-.05,1.56-.06,3.71.09,6.08s.45,4.49.7,6A15.35,15.35,0,0,1,417.37,383.79Z"/><path id="eltsqvgg3pmmk" class="cls-5" d="M426.21,373.7a32.94,32.94,0,0,0-1.7-5.05,37.59,37.59,0,0,0-2.89-4.48,10.52,10.52,0,0,1,3.36,4.25A10.23,10.23,0,0,1,426.21,373.7Z"/><g id="elxphm84hb4f"><g class="cls-11"><path id="el9tehh1dq31v" d="M501.47,176.1a13.77,13.77,0,0,0,5.81-14.36c-.83-3.5-3-6.58-3.65-10.12-.81-4.68,3.45-13.69,4.73-18.09,0,0-5.34,10.62-6.89,13.12s-2.78,3.49-2.41,6.4a59.55,59.55,0,0,0,1.38,6.47c1.57,6.28,2.86,14.12,1,16.58"/></g></g><g id="el7yp06mx7g4l"><g class="cls-11"><path id="eldph4ckkid3n" d="M453.84,296.33c3.19-4.34,6.48-8.94,7.09-14.28a31.51,31.51,0,0,0-.5-8.17c-1.44-9.49-3.18-20-4.61-29.53,0,0-2.37,40.82-2.63,40.91L454.7,294l-.95,2Z"/></g></g><path id="el6yop46x7s58" class="cls-5" d="M462.32,273.12c.09,0-.24,1.42-.39,3.74-.08,1.15-.14,2.54-.31,4.08a15.78,15.78,0,0,1-1.25,4.91,39.53,39.53,0,0,1-2.48,4.39l-2.17,3.46c-.63,1-1.14,1.78-1.51,2.32a3.74,3.74,0,0,1-.61.81,3.72,3.72,0,0,1,.44-.92c.31-.57.78-1.39,1.36-2.4s1.31-2.23,2.08-3.52a46.25,46.25,0,0,0,2.42-4.35,16.58,16.58,0,0,0,1.25-4.75c.19-1.52.28-2.91.42-4.07a22.82,22.82,0,0,1,.44-2.73A4.07,4.07,0,0,1,462.32,273.12Z"/><path id="elxwij6r6fhbh" class="cls-5" d="M517.13,55.75a2.15,2.15,0,0,1-.5.35c-.33.22-.84.5-1.47.92a43.76,43.76,0,0,0-5.07,3.83,42.17,42.17,0,0,0-14.25,37.59,44.36,44.36,0,0,0,1.26,6.23c.18.73.38,1.28.48,1.66a2.41,2.41,0,0,1,.14.59,3,3,0,0,1-.24-.56c-.13-.37-.36-.91-.58-1.64a39.28,39.28,0,0,1-1.42-6.23,41.42,41.42,0,0,1,14.36-37.92,38.22,38.22,0,0,1,5.21-3.72c.64-.4,1.17-.65,1.52-.84A4,4,0,0,1,517.13,55.75Z"/><path id="elgan1g5bkt65" class="cls-5" d="M487.11,83.89A4.33,4.33,0,0,1,487,82.7a11.06,11.06,0,0,1,0-1.41,13.8,13.8,0,0,1,.09-1.86,32.42,32.42,0,0,1,.77-4.8,33.18,33.18,0,0,1,4.78-10.85,32.43,32.43,0,0,1,3-3.81c.45-.52.92-.94,1.31-1.33s.75-.69,1-.93a4.75,4.75,0,0,1,1-.73c.07.08-1.24,1.17-3,3.24a35.45,35.45,0,0,0-7.6,14.53,34.24,34.24,0,0,0-.87,4.71C487.13,82.18,487.21,83.89,487.11,83.89Z"/><path id="elqddhrttpcl8" class="cls-5" d="M491.78,108c-.13.06-2.85-5.1-6.08-11.54s-5.73-11.7-5.6-11.77,2.84,5.1,6.07,11.54S491.91,107.92,491.78,108Z"/><g id="elw7vc1u5gcm"><g class="cls-11"><path id="el6x98fkkr63v" d="M456.29,244.33a123.63,123.63,0,0,0,15.16-17.09,37.82,37.82,0,0,1,5.27-6.36,10.73,10.73,0,0,1,7.49-3,2.7,2.7,0,0,1,2.49,1.38,3,3,0,0,1-.68,2.62C482,228,475.9,232.45,470,236.76c-4.18,3-8.56,6.13-13.65,6.94"/></g></g><path id="elr0i85lzzkqa" class="cls-5" d="M410.1,149.06c1.08,1.42-9.12,19.33-9.12,19.33l6.57,1.14,10.29-17.76Z"/><path id="eldd1xi7i21wm" class="cls-6" d="M434.32,174.67a21.55,21.55,0,0,0-26.76-10.43c-4.86,1.79-9.72,3.6-10.62,5.57-2.59,5.73-17.1,53.52-17.1,53.52l42.72,10.09s13.2-43.94,13.91-46.54C437.49,183,436.34,178.7,434.32,174.67Z"/><path id="elhtxei0rnppp" class="cls-5" d="M471.84,75.77l-8.53-2.44c2.91,9.48-23.81,77.41-23.81,77.41l-12.13,24.85,5.84,3.32,11.56-24.11Z"/><g id="elitbussbnc7a"><rect class="cls-5" x="378.2" y="224.49" width="46.87" height="5.9"/></g><g id="elq3n7yhdxpi"><rect class="cls-12" x="405.31" y="191.2" width="21.01" height="25.69"/></g><path id="elyev3ftbs6hp" class="cls-5" d="M421.92,219.51l-20.08-6.42,7.85-24.51h0l20,6.42h0Zm-20-6.46,20,6.4L429.74,195l-20-6.39Z"/><path id="elczrwz2ibcmv" class="cls-13" d="M427,139.52s-4.66-1.83-7.51,0-6.41,7.74-5.5,10.69,8.92,13.8,8.92,13.8,10.47,11.61,14.47,7.61c0,0,7.44,5.37,9,3.54,1.15-1.3-.51-3.55-.29-3.16.48.85,3.43,2,4.69.74.73-.72-.32-3.42-1.13-4.32s2.59,1.32,3.91-.5c1.13-1.57-5-6.39-5-6.39s-7.81-6.28-8.76-8,.19-4,.19-4l.78-2-8.59-2.92C431.7,144.4,427,139.52,427,139.52Z"/><path id="elxnhlbn29jg" class="cls-5" d="M427,139.52a1,1,0,0,1,.21.19l.6.58,2.31,2.27c.51.49,1.07,1,1.72,1.59a1.75,1.75,0,0,0,.51.34l.65.22,1.38.46,6.5,2.17.17.06-.06.17-.77,2h0a5.8,5.8,0,0,0-.52,2,3,3,0,0,0,.5,2,29.79,29.79,0,0,0,3.4,3.34c1.24,1.1,2.56,2.2,3.93,3.33a50.6,50.6,0,0,1,4.15,3.59,14,14,0,0,1,1.85,2.21,2.38,2.38,0,0,1,.45,1.53,1,1,0,0,1-.19.43,1.64,1.64,0,0,1-.29.3,2,2,0,0,1-.73.4,5.8,5.8,0,0,1-3-.35h0l0,0a.17.17,0,0,0,0-.1h0l.24.3a5.72,5.72,0,0,1,.41.67,8.3,8.3,0,0,1,.61,1.44,4.05,4.05,0,0,1,.22,1.62,1.88,1.88,0,0,1-.12.45,1.26,1.26,0,0,1-.32.37,2.27,2.27,0,0,1-.77.4,4.63,4.63,0,0,1-3.22-.5,3.1,3.1,0,0,1-.7-.48,1.29,1.29,0,0,1-.16-.17l-.08-.11v-.05h0v-.09c-.12-.06.78-.4.44-.22a1.56,1.56,0,0,1,.27.4,4.54,4.54,0,0,1,.52,1.61,2,2,0,0,1-.6,1.68,2.14,2.14,0,0,1-1.76.27,14.47,14.47,0,0,1-4-1.66,40.43,40.43,0,0,1-3.53-2.24h.34a3.25,3.25,0,0,1-2.29.91,6.3,6.3,0,0,1-2.31-.5,17.84,17.84,0,0,1-3.92-2.28,48.52,48.52,0,0,1-6.31-5.76h0c-1.6-2.2-3.11-4.33-4.51-6.4s-2.61-3.94-3.77-6a11.1,11.1,0,0,1-.66-1.55,4.43,4.43,0,0,1-.08-1.66,10.73,10.73,0,0,1,.88-2.94,17.25,17.25,0,0,1,3-4.5,9.83,9.83,0,0,1,1.73-1.55,5.37,5.37,0,0,1,1.92-.78,9.22,9.22,0,0,1,3.23,0,13.21,13.21,0,0,1,1.95.48l.48.18.16.08H427l-.5-.14a16.37,16.37,0,0,0-1.94-.42,9.37,9.37,0,0,0-3.17,0,4.84,4.84,0,0,0-1.81.77,9,9,0,0,0-1.67,1.53,17.19,17.19,0,0,0-2.84,4.45c-.74,1.72-1.42,3.92-.11,5.82a68.41,68.41,0,0,0,3.78,6c1.4,2.08,2.92,4.17,4.53,6.36h0a48.2,48.2,0,0,0,6.26,5.68,17.38,17.38,0,0,0,3.8,2.21,6.26,6.26,0,0,0,2.13.46,2.76,2.76,0,0,0,1.92-.76l.15-.15.18.12c1.11.78,2.28,1.53,3.48,2.21a14.2,14.2,0,0,0,3.81,1.6,1.71,1.71,0,0,0,1.33-.16,1.43,1.43,0,0,0,.42-1.24,3.62,3.62,0,0,0-.46-1.4l-.09-.16v-.07h0a.4.4,0,0,0,.12-.1c.06,0,.05-.09.1-.08a.37.37,0,0,0,.14-.07c.11-.05,0,0,.06,0h0v.06l.11.11a2.71,2.71,0,0,0,.59.41,4.22,4.22,0,0,0,2.83.46,1.59,1.59,0,0,0,.59-.31.65.65,0,0,0,.26-.49,3.9,3.9,0,0,0-.21-1.4,7.25,7.25,0,0,0-.56-1.35,4.17,4.17,0,0,0-.38-.61l-.23-.29a.42.42,0,0,1-.09-.14v-.05a.22.22,0,0,1,0-.16c0-.09.2-.22.21-.2a.51.51,0,0,1,.3,0,5.51,5.51,0,0,0,2.78.36,1.61,1.61,0,0,0,.55-.29,1,1,0,0,0,.32-.46,2,2,0,0,0-.39-1.17,14,14,0,0,0-1.77-2.14,53.61,53.61,0,0,0-4.11-3.57l-3.92-3.36a30.12,30.12,0,0,1-3.44-3.43,3.45,3.45,0,0,1-.56-2.29,6.24,6.24,0,0,1,.58-2.16h0c.27-.71.54-1.4.78-2l.11.22-6.48-2.24-1.37-.48-.65-.23a2.27,2.27,0,0,1-.58-.39c-.65-.58-1.2-1.13-1.7-1.63-1-1-1.74-1.8-2.25-2.34l-.56-.62C427.08,139.6,427,139.53,427,139.52Z"/><path id="el4bvyeg170vx" class="cls-5" d="M437.41,171.62a13.56,13.56,0,0,1-3.67-2.76,42.92,42.92,0,0,1-3.32-3.15,13.21,13.21,0,0,1,3.67,2.76A42.92,42.92,0,0,1,437.41,171.62Z"/><path id="el9xmchjrbxt6" class="cls-5" d="M446.3,172.18a9.35,9.35,0,0,1-1.59-1.13L441,168.19c-2.92-2.23-5.33-4-5.26-4.09a30.7,30.7,0,0,1,5.57,3.68C444.24,170,446.42,172.06,446.3,172.18Z"/><path id="el8yceglnuhdd" class="cls-5" d="M449.64,168.26a5.56,5.56,0,0,1-1.67-.69,24.45,24.45,0,0,1-3.69-2.34,31,31,0,0,1-3.25-2.91,5.87,5.87,0,0,1-1.16-1.38c.12-.12,2.08,1.81,4.73,3.88S449.72,168.11,449.64,168.26Z"/><path id="elfysasd06g4" class="cls-13" d="M556.14,222.46,549.33,214h0l-1.91-2.37-19-24.39-14.23,10.84L534.14,217l2.29,14.23,14.68-5.28s6.26,7,7.26,7.8,3.14-.73,2.1-3.6C560,229,556.14,222.46,556.14,222.46Z"/><path id="elygvrz9r0t8r" class="cls-5" d="M556.14,222.46l.25.36c.16.27.39.64.68,1.1.58,1,1.45,2.4,2.51,4.27a7.15,7.15,0,0,1,1.27,3.36,2.73,2.73,0,0,1-.73,2,1.83,1.83,0,0,1-1,.52,1.3,1.3,0,0,1-.62-.09,2,2,0,0,1-.49-.37c-1.11-1.06-2.2-2.26-3.38-3.52l-1.79-2c-.31-.34-.61-.68-.93-1l-.47-.52-.23-.27-.12-.13-.05,0a0,0,0,0,0,.07,0h.07l-14.67,5.32-.26.09v-.28c-.72-4.42-1.5-9.21-2.31-14.22l.07.14-12.83-12.11-7.2-6.73-.22-.21.24-.18,14.24-10.82.19-.14.15.18,19.79,25.49,5.75,7.23,1.52,1.94.38.5a.57.57,0,0,1,.12.18l-.16-.16-.41-.48L554,220l-5.86-7.13c-4.93-6.19-11.82-15-19.94-25.38h.33l-14.22,10.87v-.39l7.12,6.72,12.82,12.13.06.05v.09c.8,5,1.56,9.81,2.27,14.23l-.31-.18,14.7-5.25h0a.39.39,0,0,1,.19.12l.08.08.12.13.23.27.47.52.92,1,1.77,2c1.16,1.27,2.25,2.48,3.33,3.54a1.13,1.13,0,0,0,1.59.14,1.85,1.85,0,0,0,.14-.14,2.49,2.49,0,0,0,.66-1.76,7,7,0,0,0-1.19-3.25c-1-1.89-1.86-3.34-2.42-4.32-.27-.48-.48-.85-.63-1.13A2,2,0,0,1,556.14,222.46Z"/><polygon id="eli5fur8on4r9" class="cls-5" points="591.46 318.29 589.72 321.29 557.97 247.22 560.47 246.24 591.46 318.29"/><polygon id="elmeo74atrcsl" class="cls-6" points="552.47 223.62 545.27 226.76 555.33 251.73 562.41 248.88 552.47 223.62"/><path id="elriog9zgdduf" class="cls-5" d="M548.4,225.39a2.47,2.47,0,0,1-.59-.28c-.36-.22-.89-.55-1.6-1a10,10,0,0,0-6.74-1.06c-3,.58-6.17,2.77-9.24,5.89A90.71,90.71,0,0,0,521,240.83a111.54,111.54,0,0,1-11.8,14.32,61.27,61.27,0,0,1-17.32,12.58,45.35,45.35,0,0,1-11.18,3.6,36.69,36.69,0,0,1-12.28.14,33.66,33.66,0,0,1-27.89-37.94,45.53,45.53,0,0,1,3.45-11.72,103.92,103.92,0,0,1,5.28-10.29c3.75-6.46,7.44-12.44,9.84-18.5s3.55-12.07,2.83-17.47a28.84,28.84,0,0,0-5.65-13.45,31.16,31.16,0,0,0-8.25-7.53,32.77,32.77,0,0,0-6.47-3,10.13,10.13,0,0,1-2.4-.81,9,9,0,0,1,2.53.3,27.65,27.65,0,0,1,6.85,2.63,30.82,30.82,0,0,1,8.88,7.51,29.88,29.88,0,0,1,6.33,14.09c.9,5.79-.2,12.26-2.64,18.52s-6.11,12.47-9.76,18.9a104.35,104.35,0,0,0-5.09,10.07,43.72,43.72,0,0,0-3.2,11.1,31.24,31.24,0,0,0,25.82,35c7.71,1.31,15.45-.38,22-3.35a59.87,59.87,0,0,0,16.82-11.94,113.19,113.19,0,0,0,11.83-13.86,87.36,87.36,0,0,1,9.74-11.8c3.28-3.12,6.77-5.36,10.08-5.85a9.75,9.75,0,0,1,4.33.28,10.74,10.74,0,0,1,2.85,1.33,10.19,10.19,0,0,1,1.5,1.19C548.29,225.19,548.43,225.33,548.4,225.39Z"/><path id="eldptnhfd3sg6" class="cls-13" d="M549.43,235.06a11.56,11.56,0,0,0-.47-2.92,2.34,2.34,0,0,0-.94-1.47c-.52-.3-1.35-.06-1.41.54a4.75,4.75,0,0,0-.07-2.31,2.29,2.29,0,0,0-1.59-1.56,1.53,1.53,0,0,0-1.8,1.08,6.11,6.11,0,0,0-.2-2.48,1.92,1.92,0,0,0-3.78.08,6.35,6.35,0,0,0-.08,2.71,1.16,1.16,0,0,0-1.33-1l-.2,0a2.16,2.16,0,0,0-1.47,1.45,16.89,16.89,0,0,0-.14,2.25v2.18a1.53,1.53,0,0,0,1.68,1.36,1.6,1.6,0,0,0,.71-.26,1.57,1.57,0,0,0,1.42,1.62,1.71,1.71,0,0,0,1.76-1.39,2.26,2.26,0,0,0,1.06,2.47,2.43,2.43,0,0,0,2.77-.43,1.59,1.59,0,0,0,1.28,1.85l.13,0a2.38,2.38,0,0,0,2.17-1.29A5,5,0,0,0,549.43,235.06Z"/><path id="elr08vmxv5zn" class="cls-5" d="M549.43,235.06a2.53,2.53,0,0,1,0,.55,5.06,5.06,0,0,1-.23,1.59,2.76,2.76,0,0,1-1.77,1.81,1.82,1.82,0,0,1-1.63-.26,1.65,1.65,0,0,1-.67-1.73l.3.18a2.62,2.62,0,0,1-2.78.58,2.19,2.19,0,0,1-1.19-1.11,2.7,2.7,0,0,1-.22-1.68h.45a1.56,1.56,0,0,1-.62,1.14,2.21,2.21,0,0,1-1.23.48,1.79,1.79,0,0,1-1.79-1.79v-.08l.4.2a1.77,1.77,0,0,1-2.2-.1,1.58,1.58,0,0,1-.59-1.06v-3.27a7.08,7.08,0,0,1,.09-1.13,1.89,1.89,0,0,1,.53-1.14,2.77,2.77,0,0,1,.73-.54,1.82,1.82,0,0,1,.91-.24,1.38,1.38,0,0,1,1.37,1.21h-.52a6.41,6.41,0,0,1,.12-2.89,2.39,2.39,0,0,1,2.24-1.7,2.43,2.43,0,0,1,2,1.78,6.91,6.91,0,0,1,.17,2.48l-.45-.05a1.7,1.7,0,0,1,1.64-1.28,2.12,2.12,0,0,1,1.71.9,4,4,0,0,1,.49,3.24l-.33-.05a.89.89,0,0,1,.54-.69,1.34,1.34,0,0,1,.79-.09,1.6,1.6,0,0,1,1,.92,7.71,7.71,0,0,1,.55,2,9.36,9.36,0,0,1,.11,1.29,1.62,1.62,0,0,1,0,.44,16,16,0,0,0-.27-1.69,8.08,8.08,0,0,0-.6-1.92,1.33,1.33,0,0,0-.85-.74c-.38-.08-.9.12-.93.52h-.34a3.71,3.71,0,0,0-.47-2.94,1.68,1.68,0,0,0-1.38-.71,1.26,1.26,0,0,0-1.22.93l-.44,0a6.71,6.71,0,0,0-.17-2.32,2,2,0,0,0-1.6-1.43,1.9,1.9,0,0,0-1.73,1.38,5.83,5.83,0,0,0-.08,2.66h-.52c0-.37-.44-.7-.87-.71a1.86,1.86,0,0,0-1.24.62,1.24,1.24,0,0,0-.4.85c0,.35-.07.72-.09,1.08v3.16a1.11,1.11,0,0,0,.41.72,1.26,1.26,0,0,0,1.56.11l.46-.38v.59a1.32,1.32,0,0,0,1.26,1.36h0a1.46,1.46,0,0,0,1.42-1.16l.45,0a2,2,0,0,0,1.12,2.33,2.27,2.27,0,0,0,2.36-.46l.53-.52-.22.7a1.32,1.32,0,0,0,.52,1.36,1.49,1.49,0,0,0,1.35.25,2.59,2.59,0,0,0,1.66-1.6,5.27,5.27,0,0,0,.31-1.52A2,2,0,0,1,549.43,235.06Z"/><path id="elk57laq1wntc" class="cls-5" d="M538.28,235.08a16.41,16.41,0,0,1,.41-3.43c.28-1.87.15-3.39.29-3.42a6.2,6.2,0,0,1,.23,3.49A9,9,0,0,1,538.28,235.08Z"/><path id="el1ala5pnzsmc" class="cls-5" d="M543.11,228.12a9.68,9.68,0,0,1-.34,3.63,9.14,9.14,0,0,1-1.27,3.42,22.54,22.54,0,0,1,.76-3.54A19.12,19.12,0,0,1,543.11,228.12Z"/><path id="elv9h70evg81" class="cls-5" d="M546.76,230.45a8,8,0,0,1-1.49,6.79c-.13-.08.61-1.47,1-3.34S546.61,230.47,546.76,230.45Z"/></g><g id="freepik--Smoke--inject-35"><path id="elyuxp78p8g5j" class="cls-8" d="M499.63,358.79a43,43,0,0,0-46.44-1.25c-.3-11.44-.79-23.54-7-33.19S426,309.09,416.74,315.8c4.38-19.11-10.94-40.29-30.46-42.12s-38.44,16.13-37.72,35.72c-13.94-27.62-48.12-43.28-78.14-35.8s-52.86,37.35-52.2,68.29a49.43,49.43,0,0,0-71.33,44.37c-19.37-12.89-49.1-4.86-61.68,14.71H516.66C520.19,384.94,513.05,368.24,499.63,358.79Z"/><g id="el0wkoga9056am"><g class="cls-9"><path id="elwlptvg8bn2l" class="cls-10" d="M499.63,358.79a43,43,0,0,0-46.44-1.25c-.3-11.44-.79-23.54-7-33.19S426,309.09,416.74,315.8c4.38-19.11-10.94-40.29-30.46-42.12s-38.44,16.13-37.72,35.72c-13.94-27.62-48.12-43.28-78.14-35.8s-52.86,37.35-52.2,68.29a49.43,49.43,0,0,0-71.33,44.37c-19.37-12.89-49.1-4.86-61.68,14.71H516.66C520.19,384.94,513.05,368.24,499.63,358.79Z"/></g></g></g><g id="freepik--character-1--inject-35"><path id="el8ajsdbc5qhl" class="cls-5" d="M267,58.07c-3.18,3.77-2.64,9.34-1.58,14.15s2.45,10,.5,14.51c-1.07,2.49-3,4.46-4.63,6.67s-2.82,5-2.1,7.58c.83,3,3.91,4.76,6.7,6.17-1.57,2.22-.93,5.53,1,7.44a9.42,9.42,0,0,0,7.59,2.25,23.35,23.35,0,0,0,7.69-2.65c4-2,8.07-4.6,9.55-8.79,1.24-3.49.37-7.35-.59-10.93a257.72,257.72,0,0,0-14.93-41.3"/><path id="elaqcd8qvw7t" class="cls-3" d="M304.92,62.13l5.68,48.94-24.48,3c-.73-2.78-2.75-13.7-2.75-13.7s-10.34.49-12.51-9.51c-1-4.85-2.41-15-3.53-24.26a18.93,18.93,0,0,1,16.09-21h0a18.91,18.91,0,0,1,21.43,16C304.88,61.79,304.9,62,304.92,62.13Z"/><path id="el86j26jomc26" class="cls-4" d="M283.36,100.38A23.76,23.76,0,0,0,295.67,94s-1.62,7.84-11.8,9Z"/><path id="el6wfyeucwrje" class="cls-5" d="M271.77,73.33a1.46,1.46,0,0,0,1.67,1.16,1.4,1.4,0,0,0,1.22-1.55v0A1.46,1.46,0,0,0,273,71.73a1.4,1.4,0,0,0-1.22,1.56Z"/><path id="elzfla5m3usne" class="cls-5" d="M270.55,71.33c.21.15,1.13-.87,2.67-1.18s2.83.22,3,0-.19-.4-.75-.66a4.1,4.1,0,0,0-2.42-.23A3.85,3.85,0,0,0,271,70.43C270.53,70.93,270.44,71.33,270.55,71.33Z"/><path id="elxjelq74ur3" class="cls-5" d="M286.46,71a1.45,1.45,0,0,0,1.67,1.17,1.4,1.4,0,0,0,1.22-1.55v0a1.45,1.45,0,0,0-1.67-1.17,1.39,1.39,0,0,0-1.22,1.54Z"/><path id="elups4pq092je" class="cls-5" d="M285.74,68.57c.22.15,1.14-.88,2.68-1.19s2.82.23,2.95,0-.18-.4-.75-.66a4,4,0,0,0-2.41-.24,3.86,3.86,0,0,0-2.08,1.18C285.73,68.13,285.64,68.5,285.74,68.57Z"/><path id="el1f3gxr0qj4u" class="cls-5" d="M282.48,81.13a10.21,10.21,0,0,0-2.59.06c-.4,0-.79,0-.91-.22a2.11,2.11,0,0,1,0-1.22c.18-1,.36-2.1.56-3.23.74-4.59,1.19-8.34,1-8.37s-.94,3.67-1.69,8.27c-.17,1.13-.34,2.21-.49,3.24a2.33,2.33,0,0,0,.11,1.58,1,1,0,0,0,.76.44,2.66,2.66,0,0,0,.69,0A10.27,10.27,0,0,0,282.48,81.13Z"/><path id="elgeq57kad3gr" class="cls-5" d="M287.23,81.27c-.25,0,.09,1.71-1.1,3.18s-3,1.66-3,1.9.46.24,1.22.11a4.29,4.29,0,0,0,2.5-1.49,3.64,3.64,0,0,0,.81-2.65C287.62,81.61,287.34,81.23,287.23,81.27Z"/><path id="elrgs9a79x9ij" class="cls-5" d="M284.11,62.61c.24.39,1.73-.12,3.59-.27s3.41,0,3.57-.38c.07-.21-.26-.55-.93-.83a6.26,6.26,0,0,0-5.46.5C284.27,62,284,62.43,284.11,62.61Z"/><path id="elrpzspal223c" class="cls-5" d="M270.2,66.8c.34.29,1.33-.29,2.6-.57s2.41-.24,2.58-.66c.07-.2-.17-.51-.71-.75a3.81,3.81,0,0,0-2.24-.14,3.66,3.66,0,0,0-1.93,1.13C270.12,66.26,270.05,66.65,270.2,66.8Z"/><path id="ele37dx0ahbs5" class="cls-3" d="M302.51,67.52c.16-.11,6.47-3.44,7.65,3.45s-6,6.66-6,6.46S302.51,67.52,302.51,67.52Z"/><path id="elem8nrxw80xn" class="cls-4" d="M305.84,74.46a2.47,2.47,0,0,0,.35.12,1.28,1.28,0,0,0,.9-.13,3,3,0,0,0,.92-2.9,4,4,0,0,0-.63-1.67,1.38,1.38,0,0,0-1.06-.76.61.61,0,0,0-.65.45.59.59,0,0,0,0,.35s-.17-.09-.16-.38a.77.77,0,0,1,.2-.48.89.89,0,0,1,.63-.29,1.7,1.7,0,0,1,1.44.86,4.16,4.16,0,0,1,.74,1.85,3.14,3.14,0,0,1-1.24,3.27,1.32,1.32,0,0,1-1.13,0C305.84,74.62,305.77,74.48,305.84,74.46Z"/><path id="el0vblzml6flc" class="cls-5" d="M286.67,50.93a14.35,14.35,0,0,0,7.94,12.12,6.29,6.29,0,0,1,2.89,2,8.34,8.34,0,0,1,.6,2.61,4.17,4.17,0,0,0,1.74,2.74,2.63,2.63,0,0,0,3.1-.16,6.45,6.45,0,0,0,1.22-2.37c.34-.83,1-1.68,1.92-1.63.38,0,.79.19,1.12,0a1.1,1.1,0,0,0,.42-.82,15,15,0,0,0-12.33-17.27,15.47,15.47,0,0,0-2.45-.2,7.46,7.46,0,0,0-4.15,1,3.79,3.79,0,0,0-1.76,3.7"/><path id="elduh48lah1he" class="cls-5" d="M270,51.52c-.91.33-5.14,5.56-4.91,9.53.06,1,1.35,1.85,2.27,2.15a4.24,4.24,0,0,0,2.56-.21c3-.75,5.37-3,7.78-4.92s5.34-3.73,8.4-3.29c1.69.23,3.21,1.13,4.87,1.51s3.73.05,4.5-1.46a4.1,4.1,0,0,0,0-3.15,11.42,11.42,0,0,0-7.09-6.87,14.63,14.63,0,0,0-10,.35,20.51,20.51,0,0,0-8.14,6"/><path id="elpwooaz79px" class="cls-7" d="M274.92,78.79a6,6,0,0,0-4.77,4.76c-.5,2.55-1.07,6.22-.56,7.9a17.83,17.83,0,0,0,6.83,9.35c2.56,1.67,7.27,1,9.23.66,5-.86,10.26-11.12,9.91-13.25s-6.72-9.07-7.9-9.55C286.84,78.33,279.69,77.9,274.92,78.79Z"/><path id="el1ilydyggiw" class="cls-5" d="M274.92,78.79a3.4,3.4,0,0,1,.78-.18c.52-.1,1.29-.21,2.29-.31a49.91,49.91,0,0,1,8.47,0,4.26,4.26,0,0,1,1.41.28,8.52,8.52,0,0,1,1.16.92c.72.67,1.43,1.4,2.14,2.18A33.38,33.38,0,0,1,295.31,87a2.79,2.79,0,0,1,.47,1.84,8.33,8.33,0,0,1-.5,1.82,24.15,24.15,0,0,1-1.65,3.44,22.14,22.14,0,0,1-5.05,6.22l-.86.59c-.3.18-.63.32-.94.48a8.88,8.88,0,0,1-1,.31c-.33.08-.66.12-1,.17a23.77,23.77,0,0,1-3.95.27,10,10,0,0,1-3.79-.73,12,12,0,0,1-3-2.19,18.74,18.74,0,0,1-3.85-5.55c-.22-.48-.42-1-.59-1.45a6.42,6.42,0,0,1-.37-1.48,15,15,0,0,1,0-2.84,40.4,40.4,0,0,1,.8-4.78,6.12,6.12,0,0,1,2-3.07,5.77,5.77,0,0,1,2-1.1,2.76,2.76,0,0,1,.8-.15s-.27.07-.76.25a6,6,0,0,0-3.78,4.15,39.68,39.68,0,0,0-.71,4.73,14.14,14.14,0,0,0,0,2.76,10.89,10.89,0,0,0,1,2.8,18.31,18.31,0,0,0,3.8,5.38,11.21,11.21,0,0,0,2.84,2.09,9.62,9.62,0,0,0,3.6.67,22.71,22.71,0,0,0,3.86-.27c.32-.05.66-.1,1-.17a4.84,4.84,0,0,0,.91-.28,7.89,7.89,0,0,0,.87-.44l.82-.56a21.81,21.81,0,0,0,4.92-6.06,23.71,23.71,0,0,0,1.62-3.37,7.86,7.86,0,0,0,.49-1.7,2.36,2.36,0,0,0-.41-1.55,34.17,34.17,0,0,0-4-5.27c-.7-.78-1.39-1.51-2.1-2.17a7.39,7.39,0,0,0-1.06-.88,4.29,4.29,0,0,0-1.27-.26,55,55,0,0,0-8.42-.14c-1,.07-1.76.15-2.28.21A4.06,4.06,0,0,1,274.92,78.79Z"/><path id="el4ggfvnsq40r" class="cls-5" d="M290.18,89.75a4.93,4.93,0,0,1-.56.5,11.81,11.81,0,0,1-1.72,1.08,17,17,0,0,1-13.06,1.07,12.4,12.4,0,0,1-1.88-.78c-.42-.23-.65-.37-.63-.4s1,.38,2.62.83a18.74,18.74,0,0,0,6.5.61A19.25,19.25,0,0,0,287.77,91C289.27,90.33,290.13,89.67,290.18,89.75Z"/><path id="elzgzcs71xdb" class="cls-5" d="M287.56,93.9a10.62,10.62,0,0,1-8.05,1.77c0-.15,1.87-.08,4.09-.58S287.48,93.76,287.56,93.9Z"/><path id="elb87hkrqwfpq" class="cls-5" d="M285,81.75c0,.16-2.59-.16-5.73.26s-5.54,1.36-5.6,1.21A16.79,16.79,0,0,1,285,81.75Z"/><path id="elajg8nd88u" class="cls-5" d="M299.17,71.7a44.86,44.86,0,0,1-5.4,4,43.19,43.19,0,0,1-5.69,3.53,43.08,43.08,0,0,1,5.4-4A41.17,41.17,0,0,1,299.17,71.7Z"/><path id="elspwkuflfd58" class="cls-5" d="M299.55,81.26a18.7,18.7,0,0,1-2,4A19.55,19.55,0,0,1,295.09,89a19.18,19.18,0,0,1,2-4A20,20,0,0,1,299.55,81.26Z"/><path id="elgjkzdc7iuoo" class="cls-8" d="M193.29,186.5c-24.74,7.08-57.69,16.83-82.45,23.91a27,27,0,0,0-47.95-3.31c-12.19-8.46-28.82-10.89-42.3-4.68S-2.06,224,.4,238.6s17.49,26.47,32.12,24c-2,7.83-3.61,15.95-2.58,24s5.09,16,12.11,20,17.12,2.84,21.8-3.75c-3,8-1.12,17.16,3.29,24.43s11.13,12.87,18.21,17.58c6.62,4.41,13.83,8.23,21.68,9.52s16.45-.26,22.39-5.54,8.44-14.64,4.58-21.6c17.26-4.5,30.34-21.64,30.13-39.47s-13.67-34.66-31-38.77c5.39-3.23,5.71-10.77,8.46-16.43,2.64-5.43,7.7-9.22,12.57-12.8L194.7,190"/><g id="eleks9v81962u"><g class="cls-9"><path id="el9otfqt29jam" class="cls-10" d="M193.29,186.5c-24.74,7.08-57.69,16.83-82.45,23.91a27,27,0,0,0-47.95-3.31c-12.19-8.46-28.82-10.89-42.3-4.68S-2.06,224,.4,238.6s17.49,26.47,32.12,24c-2,7.83-3.61,15.95-2.58,24s5.09,16,12.11,20,17.12,2.84,21.8-3.75c-3,8-1.12,17.16,3.29,24.43s11.13,12.87,18.21,17.58c6.62,4.41,13.83,8.23,21.68,9.52s16.45-.26,22.39-5.54,8.44-14.64,4.58-21.6c17.26-4.5,30.34-21.64,30.13-39.47s-13.67-34.66-31-38.77c5.39-3.23,5.71-10.77,8.46-16.43,2.64-5.43,7.7-9.22,12.57-12.8L194.7,190"/></g></g><polygon id="elabc8a3s91x" class="cls-5" points="260.45 159.51 192.32 185.75 193.98 190.7 262.48 163.82 260.45 159.51"/><path id="elxvboioukamk" class="cls-8" d="M183.41,228.07c-4.56-.27-9.37,1.4-11,5.64a11.21,11.21,0,0,0,3.22,12.41c-2.46-.32-4.75,1.88-5.16,4.33a9,9,0,0,0,2.22,6.87,15.23,15.23,0,0,0,26.89-6.72c5.8.44,11.17-5.53,10.1-11.25s-8.23-9.36-13.48-6.85a6.75,6.75,0,0,0-12.75-4.43"/><g id="elh3nhgsrk11"><g class="cls-9"><path id="eldyvfuhuufal" class="cls-10" d="M183.41,228.07c-4.56-.27-9.37,1.4-11,5.64a11.21,11.21,0,0,0,3.22,12.41c-2.46-.32-4.75,1.88-5.16,4.33a9,9,0,0,0,2.22,6.87,15.23,15.23,0,0,0,26.89-6.72c5.8.44,11.17-5.53,10.1-11.25s-8.23-9.36-13.48-6.85a6.75,6.75,0,0,0-12.75-4.43"/></g></g><path id="elur9qog8usea" class="cls-8" d="M191.84,287.88a4.33,4.33,0,0,0-.66,8.63,4.38,4.38,0,0,0,4.71-4,.22.22,0,0,0,0-.08,4.32,4.32,0,0,0-4.44-4.2h-.18"/><g id="el5r33m7lxb2m"><g class="cls-9"><path id="elsc9nlnvydws" class="cls-10" d="M191.84,287.88a4.33,4.33,0,0,0-.66,8.63,4.38,4.38,0,0,0,4.71-4,.22.22,0,0,0,0-.08,4.32,4.32,0,0,0-4.44-4.2h-.18"/></g></g><path id="el0d0dzvaxepfj" class="cls-8" d="M384.68,338.08s-36.56-38.38-38.29-39.31-10.34,0-10.34,0-1.86-9.08-4.18-8.38-4.43,1.4-4.43,1.4l5.12-8.61-1.34-12.55c1.93-8.69,15.17-40.51,15.17-40.51s4.8-8.64,1.28-20.8-11.2-38.4-11.2-38.4,4.27-49.16,3-55.24c-.64-3-4.24-7.27-7.93-10.89l2,.13s-11-15.23-12.42-19.67c-1-3.1-3.8-15.37-5.4-22.49-1.49-6.6-4.94-14.52-10.28-18.67a26.56,26.56,0,0,0-15.91-5.65c-17.12,0-24.28,19.46-24.28,19.46s5.59-6.94,19.28-4.65c10.26,1.72,13.34,12,14.84,25.48.54,4.82-2,14.15-3.81,18.79s-6.66,9.09-6.66,9.09l-4.47,5.15h0a10.89,10.89,0,0,0-2.36,2.83c-.39,1.06-1.23,11.75-2,24.39-1.95,4-4.14,8.46-6.62,13.5L225.09,178.6l7,16s31.56-6.27,46.75-10.85c-.06,4.18-.9,19.13-.27,27.35h0s4,93.08,4,99.24S294.9,381.4,294.9,381.4h32.27s1.95-23.88,3.05-44.32L369,360.19Z"/><path id="elfyt35pyxtxt" class="cls-5" d="M308.61,73.33a5.33,5.33,0,0,1-.22,1.18c-.17.75-.44,1.84-.79,3.17a72.42,72.42,0,0,1-3.49,10.22,35.69,35.69,0,0,1-5.71,9.17,25.51,25.51,0,0,1-2.34,2.31,5.08,5.08,0,0,1-1,.72c-.06-.07,1.27-1.16,3-3.27a39.4,39.4,0,0,0,5.52-9.14,90.67,90.67,0,0,0,3.6-10.11l1-3.12A5.16,5.16,0,0,1,308.61,73.33Z"/><path id="elho38eh2sir7" class="cls-5" d="M314.5,89.39a28,28,0,0,1-3.05,1.76c-1.9,1-4.52,2.49-7.37,4.16s-5.39,3.27-7.22,4.42a26.92,26.92,0,0,1-3,1.82,3.28,3.28,0,0,1,.72-.62c.48-.37,1.2-.88,2.09-1.5,1.78-1.24,4.3-2.88,7.16-4.57s5.51-3.08,7.46-4c1-.48,1.77-.85,2.33-1.1A3.42,3.42,0,0,1,314.5,89.39Z"/><path id="el7pisb2pljic" class="cls-5" d="M319.78,184.33a14.29,14.29,0,0,1-1.71.44c-.56.11-1.24.27-2,.5s-1.66.44-2.61.79-2,.69-3.1,1.17-2.24,1-3.44,1.58a51,51,0,0,0-7.35,4.63,52.26,52.26,0,0,0-6.38,5.88c-.87,1-1.73,2-2.43,2.92s-1.36,1.85-1.92,2.69-1,1.63-1.45,2.32a16,16,0,0,0-1,1.8,11.08,11.08,0,0,1-.87,1.54,11.72,11.72,0,0,1,.69-1.63,16.2,16.2,0,0,1,.94-1.86c.4-.7.81-1.53,1.39-2.37a30.43,30.43,0,0,1,1.89-2.75c.69-1,1.54-1.94,2.41-3a50.72,50.72,0,0,1,6.43-6,49.74,49.74,0,0,1,7.44-4.64c1.22-.57,2.37-1.14,3.5-1.55s2.17-.81,3.15-1.12,1.87-.52,2.65-.72a16.91,16.91,0,0,1,2-.42A9.5,9.5,0,0,1,319.78,184.33Z"/><path id="elg3a4son8v69" class="cls-5" d="M302.64,172.81a2.11,2.11,0,0,1-.26.4l-.83,1.08c-.73.92-1.77,2.27-3,4a124.3,124.3,0,0,0-8.84,13.84A126.06,126.06,0,0,0,282.84,207q-1.14,3-1.73,4.68c-.18.5-.33.93-.46,1.27a2.44,2.44,0,0,1-.19.44,1.27,1.27,0,0,1,.09-.47c.1-.35.22-.79.37-1.3.32-1.14.86-2.76,1.57-4.75A107.89,107.89,0,0,1,298.29,178c1.29-1.68,2.37-3,3.16-3.88.35-.41.65-.74.9-1A1.64,1.64,0,0,1,302.64,172.81Z"/><path id="elda717nng297" class="cls-5" d="M325.2,201.87a4.43,4.43,0,0,1-.38.3l-1.14.76c-1,.66-2.43,1.6-4.18,2.81a153.63,153.63,0,0,0-13.14,10.14c-2.45,2.11-4.73,4.2-6.74,6.16a50,50,0,0,0-5,5.49,23.53,23.53,0,0,0-2.65,4.24c-.51,1.07-.73,1.69-.77,1.67a1.41,1.41,0,0,1,.11-.46c.09-.31.25-.74.47-1.3a22.15,22.15,0,0,1,2.54-4.37,47.59,47.59,0,0,1,5-5.61c2-2,4.28-4.1,6.74-6.22a127.6,127.6,0,0,1,13.27-10c1.78-1.18,3.25-2.08,4.28-2.68l1.19-.68A2.06,2.06,0,0,1,325.2,201.87Z"/><path id="el1sypl2yt41r" class="cls-8" d="M364.65,361.14s-13.74,17.93-7,22.35,10.26,2.12,11.89,1.65,34.67-38.25,34.67-38.25,2.88-11.15-3.4-11.15-18.54-.17-18.54-.17Z"/><path id="elp368ki90w8m" class="cls-5" d="M323.07,121.92a4.09,4.09,0,0,1-.09.85c-.09.59-.2,1.4-.35,2.41s-.45,2.3-.73,3.78a48.24,48.24,0,0,1-1.27,4.94,86.94,86.94,0,0,1-23.49,38.77,56.21,56.21,0,0,1-10.55,8.07,34.38,34.38,0,0,1-8.25,3.47c-.79.2-1.59.37-2.39.49a4.81,4.81,0,0,1-.84.1s.28-.08.82-.2,1.34-.31,2.35-.59a36,36,0,0,0,8.13-3.59,56.79,56.79,0,0,0,10.43-8.09,86.16,86.16,0,0,0,10.57-12.24,88.48,88.48,0,0,0,12.9-26.28c.58-1.8.95-3.46,1.34-4.91s.62-2.72.82-3.75l.45-2.39A3.89,3.89,0,0,1,323.07,121.92Z"/><path id="el818ywqv4xni" class="cls-5" d="M292.54,154.85a12.23,12.23,0,0,0-1.89-2.77,10.5,10.5,0,0,0-7.22-3,15.38,15.38,0,0,0-7.68,2.18c-1.81,1-2.81,1.88-2.87,1.8a2.82,2.82,0,0,1,.65-.64,16.93,16.93,0,0,1,2-1.48,14.81,14.81,0,0,1,7.88-2.39,10.41,10.41,0,0,1,7.48,3.3,7.3,7.3,0,0,1,1.36,2.13A2.88,2.88,0,0,1,292.54,154.85Z"/><path id="elfkjwcss18vq" class="cls-5" d="M287.42,119.33a8.94,8.94,0,0,1-.52,1.33c-.36.85-.87,2.07-1.48,3.6-1.23,3-2.74,7.31-4.44,12a108.88,108.88,0,0,1-5,11.85c-.76,1.46-1.41,2.63-1.9,3.41a7.89,7.89,0,0,1-.8,1.18,7.56,7.56,0,0,1,.62-1.28c.44-.81,1-2,1.75-3.47,1.42-3,3.13-7.15,4.83-11.87s3.27-9,4.59-12c.66-1.5,1.22-2.71,1.64-3.53A6.47,6.47,0,0,1,287.42,119.33Z"/><path id="elp9prja0ma1" class="cls-5" d="M296.41,156.56a11.57,11.57,0,0,1-2.63,0,55.69,55.69,0,0,1-6.31-.75,51.78,51.78,0,0,1-6.17-1.48,11.28,11.28,0,0,1-2.47-.92,16,16,0,0,1,2.56.57c1.57.39,3.75.89,6.17,1.32s4.64.71,6.25.89A17.69,17.69,0,0,1,296.41,156.56Z"/><path id="elh79g4h0cdvj" class="cls-5" d="M321,116.93c-.08,0-.38-.9-1.08-2.27a18.58,18.58,0,0,0-8.47-8.27c-1.4-.67-2.33-1-2.3-1a7.47,7.47,0,0,1,2.45.69,16.64,16.64,0,0,1,8.65,8.45A7.71,7.71,0,0,1,321,116.93Z"/><path id="elpfdebmzb1r" class="cls-5" d="M329.37,138.08c.19-.05.86,3.92,3.2,8.18s5.46,6.83,5.32,7a8.93,8.93,0,0,1-2-1.67,23.33,23.33,0,0,1-3.78-5,25.23,25.23,0,0,1-2.3-5.86A9.55,9.55,0,0,1,329.37,138.08Z"/><path id="el5ieddzasash" class="cls-5" d="M336.47,170.92a6.52,6.52,0,0,1-.69-.63c-.42-.43-1-1-1.72-1.86a47.1,47.1,0,0,1-4.91-6.75,40.76,40.76,0,0,1-3.52-7.58c-.35-1-.6-1.85-.74-2.43a2.83,2.83,0,0,1-.18-.91c.08,0,.49,1.23,1.26,3.21a52.68,52.68,0,0,0,3.62,7.44,65.13,65.13,0,0,0,4.76,6.79A27.93,27.93,0,0,1,336.47,170.92Z"/><g id="el89hmzc83yra"><g class="cls-11"><path id="elq035u2c69js" d="M312.66,171.11a42.66,42.66,0,0,0,14.18,22.34c5.84,4.77,13.34,8.47,16,15.54a12.23,12.23,0,0,0,1.48,3.35c.75,1,3,.76,4.11.15L343,193.1Z"/></g></g><path id="el8pg5q64r0u" class="cls-5" d="M334,121.87a56.83,56.83,0,0,0-.17-6.26,58,58,0,0,0-1.38-6.11,5.44,5.44,0,0,1,.83,1.67,18.78,18.78,0,0,1,1.07,8.87A5,5,0,0,1,334,121.87Z"/><g id="elunoydgmhbbn"><g class="cls-11"><path id="ell42ob76xwkl" d="M277.74,188.23c11.93-2.36,23.56-10,31.23-19.49s11.55-22.47,11.42-34.64c-3.62,10.73-8.8,21.8-16.09,30.47s-15.3,16.6-26.19,19.73"/></g></g><path id="els2wms2ihh3" class="cls-5" d="M336.58,254.75a.87.87,0,0,1-.05.22c0,.17-.11.38-.19.63-.19.59-.46,1.39-.79,2.4-.69,2.14-1.68,5.15-2.9,8.86l-4.32,13.19c-.82,2.48-1.7,5.08-2.65,7.78s-1.63,5.56-2.38,8.49v-.2l.85,1.38c.8,1.34,1.58,2.68,2.26,4.06a45.1,45.1,0,0,1,1.77,4.16,47.5,47.5,0,0,1,2.3,8.22,64.13,64.13,0,0,1,.82,14.38c-.17,4.1-.52,7.41-.77,9.69-.13,1.1-.24,2-.32,2.62l-.1.68c0,.15,0,.23-.05.22a.88.88,0,0,1,0-.23,3.65,3.65,0,0,1,.05-.69c0-.64.13-1.52.22-2.62.18-2.29.47-5.59.6-9.68A65.15,65.15,0,0,0,330,314a47.55,47.55,0,0,0-2.29-8.12c-.53-1.37-1.13-2.74-1.77-4.11a41.51,41.51,0,0,0-2.24-4c-.29-.47-.57-.94-.84-1.37l-.06-.1v-.1c.76-3,1.46-5.83,2.42-8.54s1.82-5.29,2.67-7.77c1.67-4.94,3.17-9.39,4.43-13.14s2.31-6.74,3.06-8.81c.36-1,.66-1.79.87-2.38.1-.24.18-.44.24-.61A.85.85,0,0,1,336.58,254.75Z"/><path id="elrfdv7bnk09p" class="cls-5" d="M322.57,297.09a6.24,6.24,0,0,1-.9-.88c-.55-.58-1.31-1.47-2.19-2.6a47,47,0,0,1-9-20.42c-.25-1.42-.39-2.58-.45-3.38a5.23,5.23,0,0,1,0-1.25c.09,0,.27,1.76.85,4.56a52.63,52.63,0,0,0,8.94,20.27C321.45,295.7,322.64,297,322.57,297.09Z"/><path id="el95bofqpfnru" class="cls-5" d="M289.28,331.7a6.28,6.28,0,0,1,.58,1.23c.39.9.87,2,1.46,3.4,1.24,2.86,3,6.78,5.29,11s4.49,7.87,6.17,10.5l2,3.1a6.5,6.5,0,0,1,.7,1.16,6.22,6.22,0,0,1-.87-1c-.53-.69-1.27-1.72-2.15-3A113.67,113.67,0,0,1,291,336.5c-.58-1.45-1-2.64-1.31-3.46A7.83,7.83,0,0,1,289.28,331.7Z"/><g id="elr66twepx9n8"><g class="cls-11"><path id="el00ulxy28a4to" d="M296.18,99a42.74,42.74,0,0,0,11-20.85c.33-1.6.78-3.49,2.31-4.07a3,3,0,0,1,3.16.93,6.06,6.06,0,0,1,1.29,3.2c.68,5-1.89,10-5.54,13.51s-8.29,5.74-12.84,7.93"/></g></g><path id="els4ws096w6ha" class="cls-5" d="M299.11,51.33a1.77,1.77,0,0,1,.18.45c.11.35.24.78.41,1.3s.37,1.26.56,2.08.45,1.74.63,2.79A65.24,65.24,0,0,1,302,65.31a68,68,0,0,1-.86,18.18,66.8,66.8,0,0,1-1.76,7.23c-.28,1-.62,1.92-.89,2.72s-.53,1.47-.76,2-.38.91-.53,1.25a1.9,1.9,0,0,1-.21.43,1.53,1.53,0,0,1,.11-.47c.12-.35.27-.77.44-1.28s.44-1.24.68-2,.55-1.71.81-2.73c.66-2.38,1.21-4.79,1.63-7.22a80.17,80.17,0,0,0,1-9,78.06,78.06,0,0,0-.14-9,72,72,0,0,0-1-7.33c-.16-1-.38-2-.55-2.79s-.33-1.53-.48-2.1-.23-1-.31-1.32A2.09,2.09,0,0,1,299.11,51.33Z"/><g id="elj7taozvuwsn"><g class="cls-11"><path id="elch1x0gdq08u" d="M331,336.82c1,2.7,5.08,2.95,7.22,1s2.74-5,2.93-7.85a45.56,45.56,0,0,0-7.88-28.64c-3-4.37-7.1-9.57-7.34-14.89.25-.43-3,9.43-3,9.43.46,3.16,2.77,3.26,4.31,8.27,3,9.87,4.54,20.77,3,31"/></g></g><g id="elfsvd269x0ab"><g class="cls-11"><path id="eljb1khonfgto" d="M315.37,286.46a16.22,16.22,0,0,0,1.41,2.79c-.1-4.27-.11-10.27-1.31-14.37l-5.91-20.13c-1.19,11.43,1.27,21.84,5.81,31.71"/></g></g><path id="elbsqarveomkd" class="cls-8" d="M330.89,390.08c-.24-1.21-3.67-8.68-3.67-8.68H295s-42.37,11.1-33.67,19.8l73.48-.23C334.76,397.1,331.13,391.33,330.89,390.08Z"/><path id="elom68mx2lqm" class="cls-5" d="M327,380.33a6.73,6.73,0,0,1-1.13.67,33.16,33.16,0,0,1-3.28,1.47A37.69,37.69,0,0,1,311,384.89a36.83,36.83,0,0,1-11.77-1.31A10,10,0,0,1,296,382a7.73,7.73,0,0,1-.73-.67c-.14-.17-.21-.27-.2-.28s.35.32,1,.78a11.09,11.09,0,0,0,3.23,1.41,40,40,0,0,0,11.64,1.14,41.3,41.3,0,0,0,11.49-2.25c1.42-.5,2.55-1,3.32-1.3A6.21,6.21,0,0,1,327,380.33Z"/><path id="elo9icp35t89b" class="cls-5" d="M298.49,383.07c0,.09-1.16.27-3,.78a29.62,29.62,0,0,0-12.67,7.2c-1.36,1.3-2.11,2.21-2.18,2.16s.13-.27.45-.7a18.53,18.53,0,0,1,1.47-1.72,25.91,25.91,0,0,1,12.84-7.3,16.63,16.63,0,0,1,2.22-.39A3.17,3.17,0,0,1,298.49,383.07Z"/><path id="elc2ugp057byc" class="cls-5" d="M293.7,393.63a23.61,23.61,0,0,1,5.95-10.14c.12.11-1.54,2.16-3.17,5S293.84,393.69,293.7,393.63Z"/><path id="elelcbmqq1m5w" class="cls-5" d="M305.36,395.53a33.25,33.25,0,0,0,.07-5.28,31.89,31.89,0,0,0-1.3-5.11,11.89,11.89,0,0,1,1.23,10.39Z"/><path id="elfcjycwnkvhm" class="cls-5" d="M317.51,396a30.32,30.32,0,0,0-.42-5.71,30.93,30.93,0,0,0-2-5.37,12.83,12.83,0,0,1,2.4,11.08Z"/><path id="elib0rf06ta0n" class="cls-5" d="M382.53,336.39a4.65,4.65,0,0,1,.06,1.18,21.83,21.83,0,0,1-.33,3.22,31.23,31.23,0,0,1-3.54,10,16.5,16.5,0,0,1-8,7,11.47,11.47,0,0,1-3.15.79,4,4,0,0,1-1.19,0,18.5,18.5,0,0,0,4.2-1.13,16.93,16.93,0,0,0,7.66-6.88,34.41,34.41,0,0,0,3.63-9.86C382.45,338.07,382.44,336.38,382.53,336.39Z"/><path id="elhmpfa62cann" class="cls-5" d="M373.84,370.84a6.08,6.08,0,0,1-1.11-1.8,16.17,16.17,0,0,1-1.41-4.91,16.47,16.47,0,0,1,.2-5.1,5.67,5.67,0,0,1,.65-2,26.85,26.85,0,0,0-.33,7.05A28,28,0,0,0,373.84,370.84Z"/><path id="el1uowh301u9i" class="cls-5" d="M362.84,371.46a6.92,6.92,0,0,1,0-2.13,18.48,18.48,0,0,1,1.38-5,15.92,15.92,0,0,1,2.86-4.38,6.55,6.55,0,0,1,1.63-1.43c.14.13-2.41,2.32-4,6A33.88,33.88,0,0,0,362.84,371.46Z"/><path id="elo9z83as4ql" class="cls-5" d="M388,353c-.07.05-.45-.39-1.19-.94a8.85,8.85,0,0,0-6.74-1.69,9.51,9.51,0,0,1-1.49.27A3.1,3.1,0,0,1,380,350a7.77,7.77,0,0,1,7.05,1.75A3.06,3.06,0,0,1,388,353Z"/><path id="ela69oyvnnc1h" class="cls-5" d="M392.52,342.77a17.78,17.78,0,0,1-1.78-.27,12.14,12.14,0,0,0-4.25.2,12.44,12.44,0,0,0-3.92,1.65,14.76,14.76,0,0,1-1.48,1,4.54,4.54,0,0,1,1.27-1.32,10.47,10.47,0,0,1,4-1.86,10.19,10.19,0,0,1,4.43-.05A4.28,4.28,0,0,1,392.52,342.77Z"/><path id="el6be3jh95j66" class="cls-5" d="M353,305.16a5,5,0,0,1-.82-.77L350,302.2a32.46,32.46,0,0,0-3.32-3,1.92,1.92,0,0,0-.5-.29,4.24,4.24,0,0,0-.61-.17,8.52,8.52,0,0,0-1.32-.17,27.09,27.09,0,0,0-2.85,0c-4,.14-7.52.24-10.1.28h-3.07a4.66,4.66,0,0,1-1.12-.07,5.28,5.28,0,0,1,1.12-.14l3.05-.19c2.59-.14,6.15-.29,10.1-.43a28.05,28.05,0,0,1,2.9,0,9.44,9.44,0,0,1,1.4.2,5.46,5.46,0,0,1,.66.19,2.91,2.91,0,0,1,.62.35,28.32,28.32,0,0,1,3.3,3.18c.88.95,1.56,1.75,2,2.31A4.37,4.37,0,0,1,353,305.16Z"/><path id="ela0rmkldt9c5" class="cls-5" d="M329.61,104.62a29.35,29.35,0,0,1,12.93-13.41c3-1.57,6.81-2.56,9.71-.78s3.71,5.51,4.14,8.86a124.92,124.92,0,0,1,.85,22.63h3.87s-.25-20.37-.77-24.76c-.43-3.54-3.14-12-9.82-12.52C342,84,334,88.53,326.65,103.17"/><path id="elotchjxgnka" class="cls-6" d="M359.61,210h0c-10.87,0-19.69-8.81-19.69-22.41V125.94c0-8.15,8.82-17,19.69-17h0a19.69,19.69,0,0,1,19.69,19.69h0v61.7A19.7,19.7,0,0,1,359.62,210Z"/><path id="elzumwpbfutr" class="cls-5" d="M307.58,97c-24.05,5.47-22.53,27.68-22.53,27.68,4.66-8.21,5.07-21.06,26.39-23,16.06-1.45,30.76,17,30.76,17l2.47-3.36C339.54,108.44,328,92.33,307.58,97Z"/><path id="elozid1e7dyd" class="cls-5" d="M311.78,153.82l-5.1,7.7s16.16,34.25,37.16,34.44l.55-.34-3.1-9.19s-21.88-15-29.46-32.61"/><path id="el5ei6716euxj" class="cls-5" d="M355.32,110a5.29,5.29,0,0,1-.29-1.31,26.2,26.2,0,0,1-.22-3.65c0-1.54.07-3.37,0-5.38a14.57,14.57,0,0,0-1.63-6.23A8,8,0,0,0,351,90.91a6.8,6.8,0,0,0-2.78-1.25A10.79,10.79,0,0,0,343,90a29.42,29.42,0,0,0-3.39,1.27,7.91,7.91,0,0,1-1.25.49,6.8,6.8,0,0,1,1.17-.67,22.65,22.65,0,0,1,3.36-1.44,10.9,10.9,0,0,1,5.43-.49,7.22,7.22,0,0,1,3,1.31,8.46,8.46,0,0,1,2.28,2.66,14.71,14.71,0,0,1,1.66,6.46c.08,2,0,3.89-.07,5.42a33.67,33.67,0,0,0,0,3.62A11.74,11.74,0,0,1,355.32,110Z"/><path id="elqkt7tyv0o5r" class="cls-5" d="M365.11,209c-.14,0-.26-22.15-.26-49.47S365,110,365.11,110s.26,22.15.26,49.47S365.25,209,365.11,209Z"/><path id="elmyv4p312bvq" class="cls-5" d="M379,163.54a9.8,9.8,0,0,1-1.44.57c-.94.34-2.32.76-4,1.22a67.55,67.55,0,0,1-13.78,2,66.11,66.11,0,0,1-13.91-.9c-1.76-.31-3.17-.62-4.14-.88a9.34,9.34,0,0,1-1.48-.44,7.87,7.87,0,0,1,1.53.24c1,.2,2.39.45,4.14.72A73,73,0,0,0,373.45,165c1.73-.41,3.12-.78,4.08-1.06A7.83,7.83,0,0,1,379,163.54Z"/><path id="ele0dqkdb9va6" class="cls-5" d="M378.76,136.24a8,8,0,0,1-1.33.62c-.86.38-2.14.84-3.74,1.35a56.34,56.34,0,0,1-5.72,1.45,59.7,59.7,0,0,1-7.18.91,58.3,58.3,0,0,1-7.24,0,52.26,52.26,0,0,1-5.85-.75,39.62,39.62,0,0,1-3.88-.89,6.84,6.84,0,0,1-1.39-.45,7.76,7.76,0,0,1,1.44.26c.91.2,2.24.46,3.89.72s3.62.49,5.83.63a59.69,59.69,0,0,0,14.29-.86c2.17-.41,4.1-.87,5.71-1.33s2.89-.87,3.77-1.19A7.68,7.68,0,0,1,378.76,136.24Z"/><path id="elm9ns30txf7m" class="cls-14" d="M225.1,178.65s-7.43-6.69-8.43-6.39-4.65-.46-6.41.54-5.53,5-5.53,5,1,1.64,4.15.82a17.38,17.38,0,0,0,4.52-1.7s-7.72,7.86-8.67,9.55c-.35.62-.16,3,1.47,3.48a6,6,0,0,0,4.31-.72s-.12,3.27,2.51,3.9a7.78,7.78,0,0,0,4.28,0s-.38,4.37,3,4.32h2.14a3.66,3.66,0,0,0,2.65,1.84c2.13.5,7.4-4.74,7.4-4.74Z"/><path id="el9fhne3ppjy5" class="cls-5" d="M225.1,178.65a2.24,2.24,0,0,1,.16.27l.4.81,1.53,3.16,5.49,11.61v.12l-.09.1a32.57,32.57,0,0,1-4.53,3.75,10.46,10.46,0,0,1-1.39.77,3,3,0,0,1-1.7.29,4.11,4.11,0,0,1-2.79-2l.22.15h-2a3.24,3.24,0,0,1-2-.58,3.37,3.37,0,0,1-1.16-1.84,6.63,6.63,0,0,1-.22-2.17l.34.26a8.35,8.35,0,0,1-4.7-.07,3.27,3.27,0,0,1-1.89-1.63,5.44,5.44,0,0,1-.55-2.44l.4.24a6.36,6.36,0,0,1-4.11.85,2.55,2.55,0,0,1-1.15-.51,2.62,2.62,0,0,1-.74-1,3.75,3.75,0,0,1-.31-1.18,2.46,2.46,0,0,1,.16-1.26,30.72,30.72,0,0,1,2.88-3.46c2-2.16,3.94-4.2,5.85-6.14l.3.37a19.52,19.52,0,0,1-4.55,1.71,6.13,6.13,0,0,1-2.37.2,3,3,0,0,1-2.07-1.12l-.1-.13.13-.13c1.28-1.35,2.55-2.6,3.83-3.72a9.86,9.86,0,0,1,2-1.46,6.73,6.73,0,0,1,2.35-.42c.76,0,1.49,0,2.19.06h1.48a1.13,1.13,0,0,1,.26,0,1.59,1.59,0,0,1,.3.06,8.8,8.8,0,0,1,1.63,1c.48.35.93.7,1.35,1,1.68,1.35,2.95,2.48,3.8,3.25l1,.89a2.42,2.42,0,0,1,.31.33,2.48,2.48,0,0,1-.36-.28l-1-.84c-.88-.74-2.17-1.83-3.87-3.15a15.46,15.46,0,0,0-2.93-1.93.55.55,0,0,0-.4,0H212.8a6.13,6.13,0,0,0-2.2.41,8.9,8.9,0,0,0-1.93,1.42c-1.26,1.11-2.51,2.37-3.78,3.71v-.27a2.59,2.59,0,0,0,1.75.9,5.58,5.58,0,0,0,2.19-.2,19,19,0,0,0,4.41-1.67l1.49-.83-1.18,1.21c-1.9,2-3.86,4-5.83,6.15a32.17,32.17,0,0,0-2.8,3.36c-.36,1.15.25,3,1.7,3.2a5.86,5.86,0,0,0,3.73-.79l.39-.22v.45c0,1.49.65,3.15,2.08,3.56a7.88,7.88,0,0,0,4.36.09l.35-.11v.37a4.22,4.22,0,0,0,1.18,3.57,2.73,2.73,0,0,0,1.75.49h2.12l.07.15a3.67,3.67,0,0,0,2.46,1.7,4.59,4.59,0,0,0,2.75-1,32.09,32.09,0,0,0,4.48-3.66v.22c-2.22-4.87-4-8.85-5.31-11.65q-.92-2.07-1.44-3.21l-.36-.85A1.08,1.08,0,0,1,225.1,178.65Z"/><path id="el2xxg73nnwxm" class="cls-5" d="M231.84,191.33a7.82,7.82,0,0,1-1.32-1.71,39.51,39.51,0,0,1-2.55-4.53,37.85,37.85,0,0,1-1.93-4.82,8.48,8.48,0,0,1-.51-2.1c.15,0,1.16,3.07,2.91,6.7S232,191.26,231.84,191.33Z"/><path id="elsya8uv3nnuo" class="cls-5" d="M214.16,185.8c.08.12-.86.91-2,1.89a10.13,10.13,0,0,1-2.15,1.7,5.94,5.94,0,0,1,1.83-2.06A5.75,5.75,0,0,1,214.16,185.8Z"/><path id="eljqefvor8lbn" class="cls-5" d="M221.1,190.84a10.76,10.76,0,0,1-2.24,1.33,10.14,10.14,0,0,1-2.31,1.2c-.09-.11.77-.94,2.06-1.65A5.09,5.09,0,0,1,221.1,190.84Z"/><path id="elxsxr65vy2bl" class="cls-5" d="M225.53,195.15c.07.13-.65.61-1.48,1.25s-1.46,1.23-1.57,1.13.38-.86,1.25-1.54S225.47,195,225.53,195.15Z"/></g><g id="freepik--Floor--inject-35"><path id="elwok9xjkkuc" class="cls-5" d="M692.23,401c0,.14-148.83.26-332.37.26S27.45,401.11,27.45,401s148.8-.26,332.41-.26S692.23,400.83,692.23,401Z"/></g></g></g></svg>